{"glyphs":{"0":{"ha":779,"x_min":58,"x_max":735,"o":"m 464 840 q 663 747 590 840 q 735 497 735 653 q 695 253 735 368 q 568 60 656 139 q 361 -18 481 -18 q 137 77 215 -18 q 58 342 58 172 q 73 475 58 410 q 104 568 88 540 q 135 585 114 585 q 154 576 146 585 q 163 554 163 567 q 160 540 163 543 q 134 466 147 526 q 121 342 121 406 q 142 197 121 261 q 219 85 163 132 q 364 38 276 38 q 535 110 463 38 q 641 285 608 183 q 674 497 674 388 q 619 702 674 621 q 460 783 565 783 q 338 733 389 783 q 288 603 288 682 q 320 513 288 550 q 401 475 353 475 q 450 483 439 475 q 463 486 454 486 q 484 478 475 486 q 493 456 493 469 q 401 414 493 414 q 275 468 325 414 q 225 600 225 522 q 294 770 225 700 q 464 840 363 840 z "},"1":{"ha":544,"x_min":35,"x_max":525,"o":"m 339 613 q 463 756 463 667 q 442 779 463 779 q 378 731 408 779 q 339 613 347 682 m 289 -19 q 261 1 261 -19 q 276 33 261 14 q 303 160 303 67 q 299 241 303 194 q 288 340 294 288 q 281 414 282 393 q 274 525 274 508 q 163 488 235 507 q 61 468 92 468 q 35 497 35 468 q 64 524 35 519 q 276 585 175 543 q 331 763 282 689 q 447 838 379 838 q 503 815 482 838 q 525 758 525 792 q 336 549 525 622 q 335 535 336 544 q 335 522 335 525 q 350 347 335 460 q 364 164 364 228 q 289 -19 364 -19 z "},"2":{"ha":746,"x_min":18,"x_max":753,"o":"m 69 706 l 47 704 q 27 711 36 703 q 18 732 18 719 q 69 763 18 763 q 183 742 126 763 q 397 839 271 839 q 581 760 510 839 q 651 560 651 681 q 581 322 651 444 q 407 117 510 199 q 599 13 543 13 q 667 35 644 13 q 690 97 690 58 q 665 154 690 135 q 657 175 657 161 q 667 197 657 189 q 688 206 675 206 q 731 171 710 206 q 753 97 753 136 q 713 -6 753 33 q 599 -44 672 -44 q 501 -17 551 -44 q 360 76 450 11 q 140 -8 249 -8 q 51 17 83 -8 q 18 88 18 42 q 59 183 18 142 q 168 225 100 224 q 361 149 254 226 q 520 332 451 217 q 589 560 589 447 q 536 718 589 654 q 397 782 483 782 q 305 763 350 782 q 238 715 260 744 q 313 638 286 685 q 339 540 339 590 q 307 447 339 483 q 222 410 275 410 q 138 449 172 410 q 103 554 103 488 q 142 692 103 626 q 69 706 107 708 m 81 96 q 98 61 81 74 q 143 49 115 49 q 314 111 231 49 q 171 167 240 167 q 106 145 132 167 q 81 96 81 124 m 224 467 q 263 488 249 467 q 276 540 276 508 q 197 671 276 617 q 164 554 164 618 q 183 490 164 514 q 224 467 201 467 z "},"3":{"ha":726,"x_min":42,"x_max":647,"o":"m 539 440 q 647 231 647 361 q 562 40 647 115 q 324 -36 476 -36 q 113 38 185 -36 q 42 201 42 111 q 88 304 42 304 q 108 295 99 304 q 117 272 117 286 q 114 258 117 264 q 104 207 104 236 q 115 154 104 183 q 148 93 125 125 q 217 40 171 61 q 326 18 264 18 q 517 80 449 18 q 585 235 585 142 q 501 397 585 336 q 324 325 422 325 q 240 350 274 325 q 206 413 206 375 q 210 438 206 425 q 226 467 214 450 q 269 496 239 485 q 344 507 300 507 q 493 471 421 507 q 534 533 518 492 q 550 617 550 575 q 512 733 550 682 q 390 783 474 783 q 361 782 368 783 q 386 700 386 744 q 352 611 386 647 q 275 575 318 575 q 207 602 233 575 q 181 672 181 629 q 203 742 181 707 q 260 799 225 776 q 182 821 225 818 q 166 820 179 821 q 146 819 153 819 q 114 840 114 819 q 132 868 114 863 q 182 874 150 874 q 318 828 260 874 q 393 838 357 838 q 556 772 501 838 q 611 617 611 707 q 590 517 611 568 q 539 440 569 465 m 326 700 q 306 767 326 739 q 258 724 276 751 q 239 672 239 697 q 276 629 239 629 q 311 649 296 629 q 326 700 326 669 m 268 413 q 283 392 268 401 q 324 383 299 383 q 392 395 354 383 q 451 426 429 407 q 344 450 401 450 q 291 440 314 450 q 268 413 268 431 z "},"4":{"ha":892,"x_min":15,"x_max":892,"o":"m 431 797 l 404 793 q 383 801 392 792 q 374 822 374 810 q 431 857 374 857 q 528 812 492 857 q 565 700 565 767 q 364 346 565 532 q 590 267 546 278 q 635 492 613 399 q 668 664 668 636 q 664 703 668 692 q 661 715 661 711 q 670 737 661 728 q 692 746 679 746 q 729 671 729 746 q 711 557 729 633 q 650 253 671 379 q 733 243 690 243 q 839 293 792 243 q 863 304 847 304 q 883 295 875 304 q 892 274 892 286 q 877 242 892 261 q 824 203 863 222 q 733 185 785 185 q 639 194 683 185 q 622 36 622 115 q 629 -12 622 -3 q 633 -28 633 -21 q 624 -49 633 -40 q 601 -58 615 -58 q 560 40 560 -58 q 579 208 560 108 q 396 271 522 224 q 314 301 358 286 q 117 213 208 213 q 43 238 71 213 q 15 304 15 264 q 51 381 15 353 q 142 410 88 410 q 303 368 201 410 q 448 535 393 446 q 503 700 503 624 q 486 765 503 735 q 431 797 469 796 m 79 304 q 92 278 79 288 q 121 269 104 269 q 253 328 182 269 q 144 353 193 353 q 97 338 114 353 q 79 304 79 322 z "},"5":{"ha":704,"x_min":22,"x_max":664,"o":"m 640 860 q 658 851 651 860 q 664 831 664 842 q 663 822 664 825 q 640 783 657 799 q 608 759 624 767 q 558 747 592 751 q 510 743 525 743 q 453 743 494 743 q 391 747 436 743 q 293 754 346 750 q 229 760 240 758 q 285 576 289 700 q 339 581 322 581 q 569 496 490 581 q 647 294 647 411 q 544 63 647 151 q 293 -25 440 -25 q 94 34 165 -25 q 22 160 22 93 q 31 183 22 174 q 53 192 39 192 q 81 167 75 192 q 153 65 93 100 q 294 31 213 31 q 499 101 414 31 q 585 293 585 172 q 519 457 585 390 q 333 524 454 524 q 282 519 332 524 q 234 394 271 439 q 154 349 197 349 q 96 369 119 349 q 72 425 72 390 q 116 510 72 472 q 226 564 160 549 q 215 667 232 621 q 183 731 199 714 q 153 757 167 749 q 138 782 138 765 q 155 811 138 806 q 214 817 172 817 q 332 808 233 817 q 453 799 431 799 q 514 800 489 799 q 563 805 539 801 q 597 817 586 808 q 607 839 608 826 q 640 860 614 860 m 156 404 q 194 433 175 404 q 221 503 214 463 q 158 472 182 497 q 133 428 133 447 q 156 404 133 404 z "},"6":{"ha":696,"x_min":50,"x_max":658,"o":"m 422 493 q 594 424 529 493 q 658 242 658 356 q 581 58 658 138 q 378 -21 503 -21 q 144 72 238 -21 q 50 328 50 164 q 190 696 50 533 q 340 805 249 763 q 514 847 431 847 q 571 815 571 847 q 561 794 571 804 q 539 785 551 785 q 524 786 536 785 q 508 788 513 788 q 362 753 438 788 q 233 657 286 718 q 113 328 113 518 q 189 113 113 189 q 379 36 265 36 q 540 101 483 36 q 596 242 596 167 q 549 382 596 328 q 422 436 503 436 q 323 395 365 436 q 281 294 281 354 q 300 241 281 261 q 351 221 319 221 q 381 233 367 221 q 394 260 394 246 q 392 270 394 261 q 389 282 389 279 q 418 313 389 313 q 453 260 453 313 q 422 192 453 219 q 350 164 392 164 q 257 200 296 164 q 218 294 218 236 q 278 433 218 374 q 422 493 338 493 z "},"7":{"ha":653,"x_min":25,"x_max":697,"o":"m 254 761 q 135 733 182 761 q 88 660 88 706 q 106 620 88 635 q 151 606 124 606 q 263 645 215 606 q 332 757 310 685 q 254 761 297 761 m 243 -6 q 211 -33 240 -33 q 182 -1 182 -33 q 304 360 182 153 q 607 746 426 568 q 524 738 574 738 q 390 749 501 738 q 294 599 358 650 q 146 549 229 549 q 59 579 93 549 q 25 656 25 610 q 86 773 25 728 q 254 818 147 818 q 340 813 282 818 q 342 840 342 821 q 320 906 342 875 q 261 933 299 936 l 244 932 q 213 956 213 929 q 264 989 213 989 q 365 945 326 989 q 403 840 403 901 q 400 804 403 829 q 510 793 478 793 q 644 831 607 793 q 667 840 654 840 q 683 835 672 840 q 697 808 697 826 q 666 742 697 788 q 613 672 635 696 q 343 314 432 476 q 243 -6 254 151 z "},"8":{"ha":728,"x_min":49,"x_max":678,"o":"m 669 685 q 621 539 669 606 q 472 444 572 472 q 628 348 579 411 q 678 213 678 285 q 592 39 678 103 q 364 -25 506 -25 q 139 33 229 -25 q 49 197 49 92 q 119 367 49 300 q 281 451 189 433 q 168 518 217 469 q 119 635 119 567 q 186 775 119 715 q 357 835 253 835 q 467 798 426 835 q 508 706 508 761 q 475 626 508 658 q 385 594 442 594 q 324 612 349 594 q 299 650 299 629 q 307 672 299 664 q 328 681 315 681 q 356 667 346 681 q 388 651 365 651 q 430 666 413 651 q 447 706 447 681 q 420 758 447 738 q 350 779 393 779 q 227 735 272 779 q 182 635 182 692 q 372 468 182 519 q 395 472 379 469 q 418 476 411 475 q 608 685 608 525 q 583 774 608 732 q 510 839 558 817 q 485 867 485 851 q 513 892 485 892 q 614 832 558 892 q 669 685 669 772 m 364 29 q 543 76 471 29 q 615 213 615 124 q 363 418 615 372 q 183 348 254 406 q 111 203 111 290 q 187 76 111 122 q 364 29 263 29 z "},"9":{"ha":718,"x_min":53,"x_max":667,"o":"m 354 835 q 581 739 494 835 q 667 497 667 643 q 535 138 667 281 q 192 -6 403 -6 q 113 6 124 -6 q 106 26 106 13 q 136 54 106 54 q 164 53 139 54 q 194 51 189 51 q 491 178 376 51 q 606 497 606 306 q 537 699 606 618 q 354 779 468 779 q 176 713 238 779 q 114 557 114 646 q 166 427 114 476 q 293 378 218 378 q 408 417 368 378 q 449 521 449 456 q 434 565 449 542 q 399 590 419 588 q 383 601 390 592 q 376 621 376 611 q 385 642 376 633 q 407 651 394 651 q 476 613 443 650 q 510 522 510 575 q 451 377 510 433 q 293 321 392 321 q 122 386 192 321 q 53 557 53 451 q 133 752 53 669 q 354 835 213 835 z "},"ˈ":{"ha":694,"x_min":0,"x_max":694,"o":"m 0 0 l 0 972 l 694 972 l 694 0 l 0 0 m 347 549 l 583 903 l 111 903 l 347 549 m 389 486 l 625 132 l 625 840 l 389 486 m 111 69 l 583 69 l 347 424 l 111 69 m 69 840 l 69 132 l 306 486 l 69 840 z "},"ν":{"ha":694,"x_min":0,"x_max":694,"o":"m 0 0 l 0 972 l 694 972 l 694 0 l 0 0 m 347 549 l 583 903 l 111 903 l 347 549 m 389 486 l 625 132 l 625 840 l 389 486 m 111 69 l 583 69 l 347 424 l 111 69 m 69 840 l 69 132 l 306 486 l 69 840 z "},"ξ":{"ha":694,"x_min":0,"x_max":694,"o":"m 0 0 l 0 972 l 694 972 l 694 0 l 0 0 m 347 549 l 583 903 l 111 903 l 347 549 m 389 486 l 625 132 l 625 840 l 389 486 m 111 69 l 583 69 l 347 424 l 111 69 m 69 840 l 69 132 l 306 486 l 69 840 z "},"ο":{"ha":694,"x_min":0,"x_max":694,"o":"m 0 0 l 0 972 l 694 972 l 694 0 l 0 0 m 347 549 l 583 903 l 111 903 l 347 549 m 389 486 l 625 132 l 625 840 l 389 486 m 111 69 l 583 69 l 347 424 l 111 69 m 69 840 l 69 132 l 306 486 l 69 840 z "},"‑":{"ha":694,"x_min":0,"x_max":694,"o":"m 0 0 l 0 972 l 694 972 l 694 0 l 0 0 m 347 549 l 583 903 l 111 903 l 347 549 m 389 486 l 625 132 l 625 840 l 389 486 m 111 69 l 583 69 l 347 424 l 111 69 m 69 840 l 69 132 l 306 486 l 69 840 z "},"‒":{"ha":694,"x_min":0,"x_max":694,"o":"m 0 0 l 0 972 l 694 972 l 694 0 l 0 0 m 347 549 l 583 903 l 111 903 l 347 549 m 389 486 l 625 132 l 625 840 l 389 486 m 111 69 l 583 69 l 347 424 l 111 69 m 69 840 l 69 132 l 306 486 l 69 840 z "},"―":{"ha":694,"x_min":0,"x_max":694,"o":"m 0 0 l 0 972 l 694 972 l 694 0 l 0 0 m 347 549 l 583 903 l 111 903 l 347 549 m 389 486 l 625 132 l 625 840 l 389 486 m 111 69 l 583 69 l 347 424 l 111 69 m 69 840 l 69 132 l 306 486 l 69 840 z "},"‖":{"ha":694,"x_min":0,"x_max":694,"o":"m 0 0 l 0 972 l 694 972 l 694 0 l 0 0 m 347 549 l 583 903 l 111 903 l 347 549 m 389 486 l 625 132 l 625 840 l 389 486 m 111 69 l 583 69 l 347 424 l 111 69 m 69 840 l 69 132 l 306 486 l 69 840 z "},"‗":{"ha":694,"x_min":0,"x_max":694,"o":"m 0 0 l 0 972 l 694 972 l 694 0 l 0 0 m 347 549 l 583 903 l 111 903 l 347 549 m 389 486 l 625 132 l 625 840 l 389 486 m 111 69 l 583 69 l 347 424 l 111 69 m 69 840 l 69 132 l 306 486 l 69 840 z "},"‛":{"ha":694,"x_min":0,"x_max":694,"o":"m 0 0 l 0 972 l 694 972 l 694 0 l 0 0 m 347 549 l 583 903 l 111 903 l 347 549 m 389 486 l 625 132 l 625 840 l 389 486 m 111 69 l 583 69 l 347 424 l 111 69 m 69 840 l 69 132 l 306 486 l 69 840 z "},"‟":{"ha":694,"x_min":0,"x_max":694,"o":"m 0 0 l 0 972 l 694 972 l 694 0 l 0 0 m 347 549 l 583 903 l 111 903 l 347 549 m 389 486 l 625 132 l 625 840 l 389 486 m 111 69 l 583 69 l 347 424 l 111 69 m 69 840 l 69 132 l 306 486 l 69 840 z "},"‣":{"ha":694,"x_min":0,"x_max":694,"o":"m 0 0 l 0 972 l 694 972 l 694 0 l 0 0 m 347 549 l 583 903 l 111 903 l 347 549 m 389 486 l 625 132 l 625 840 l 389 486 m 111 69 l 583 69 l 347 424 l 111 69 m 69 840 l 69 132 l 306 486 l 69 840 z "},"․":{"ha":694,"x_min":0,"x_max":694,"o":"m 0 0 l 0 972 l 694 972 l 694 0 l 0 0 m 347 549 l 583 903 l 111 903 l 347 549 m 389 486 l 625 132 l 625 840 l 389 486 m 111 69 l 583 69 l 347 424 l 111 69 m 69 840 l 69 132 l 306 486 l 69 840 z "},"‥":{"ha":694,"x_min":0,"x_max":694,"o":"m 0 0 l 0 972 l 694 972 l 694 0 l 0 0 m 347 549 l 583 903 l 111 903 l 347 549 m 389 486 l 625 132 l 625 840 l 389 486 m 111 69 l 583 69 l 347 424 l 111 69 m 69 840 l 69 132 l 306 486 l 69 840 z "},"℣":{"ha":694,"x_min":0,"x_max":694,"o":"m 0 0 l 0 972 l 694 972 l 694 0 l 0 0 m 347 549 l 583 903 l 111 903 l 347 549 m 389 486 l 625 132 l 625 840 l 389 486 m 111 69 l 583 69 l 347 424 l 111 69 m 69 840 l 69 132 l 306 486 l 69 840 z "},"ℤ":{"ha":694,"x_min":0,"x_max":694,"o":"m 0 0 l 0 972 l 694 972 l 694 0 l 0 0 m 347 549 l 583 903 l 111 903 l 347 549 m 389 486 l 625 132 l 625 840 l 389 486 m 111 69 l 583 69 l 347 424 l 111 69 m 69 840 l 69 132 l 306 486 l 69 840 z "},"℥":{"ha":694,"x_min":0,"x_max":694,"o":"m 0 0 l 0 972 l 694 972 l 694 0 l 0 0 m 347 549 l 583 903 l 111 903 l 347 549 m 389 486 l 625 132 l 625 840 l 389 486 m 111 69 l 583 69 l 347 424 l 111 69 m 69 840 l 69 132 l 306 486 l 69 840 z "},"∃":{"ha":694,"x_min":0,"x_max":694,"o":"m 0 0 l 0 972 l 694 972 l 694 0 l 0 0 m 347 549 l 583 903 l 111 903 l 347 549 m 389 486 l 625 132 l 625 840 l 389 486 m 111 69 l 583 69 l 347 424 l 111 69 m 69 840 l 69 132 l 306 486 l 69 840 z "},"∄":{"ha":694,"x_min":0,"x_max":694,"o":"m 0 0 l 0 972 l 694 972 l 694 0 l 0 0 m 347 549 l 583 903 l 111 903 l 347 549 m 389 486 l 625 132 l 625 840 l 389 486 m 111 69 l 583 69 l 347 424 l 111 69 m 69 840 l 69 132 l 306 486 l 69 840 z "},"∅":{"ha":694,"x_min":0,"x_max":694,"o":"m 0 0 l 0 972 l 694 972 l 694 0 l 0 0 m 347 549 l 583 903 l 111 903 l 347 549 m 389 486 l 625 132 l 625 840 l 389 486 m 111 69 l 583 69 l 347 424 l 111 69 m 69 840 l 69 132 l 306 486 l 69 840 z "},"∐":{"ha":694,"x_min":0,"x_max":694,"o":"m 0 0 l 0 972 l 694 972 l 694 0 l 0 0 m 347 549 l 583 903 l 111 903 l 347 549 m 389 486 l 625 132 l 625 840 l 389 486 m 111 69 l 583 69 l 347 424 l 111 69 m 69 840 l 69 132 l 306 486 l 69 840 z "},"∓":{"ha":694,"x_min":0,"x_max":694,"o":"m 0 0 l 0 972 l 694 972 l 694 0 l 0 0 m 347 549 l 583 903 l 111 903 l 347 549 m 389 486 l 625 132 l 625 840 l 389 486 m 111 69 l 583 69 l 347 424 l 111 69 m 69 840 l 69 132 l 306 486 l 69 840 z "},"∔":{"ha":694,"x_min":0,"x_max":694,"o":"m 0 0 l 0 972 l 694 972 l 694 0 l 0 0 m 347 549 l 583 903 l 111 903 l 347 549 m 389 486 l 625 132 l 625 840 l 389 486 m 111 69 l 583 69 l 347 424 l 111 69 m 69 840 l 69 132 l 306 486 l 69 840 z "},"∖":{"ha":694,"x_min":0,"x_max":694,"o":"m 0 0 l 0 972 l 694 972 l 694 0 l 0 0 m 347 549 l 583 903 l 111 903 l 347 549 m 389 486 l 625 132 l 625 840 l 389 486 m 111 69 l 583 69 l 347 424 l 111 69 m 69 840 l 69 132 l 306 486 l 69 840 z "},"∗":{"ha":694,"x_min":0,"x_max":694,"o":"m 0 0 l 0 972 l 694 972 l 694 0 l 0 0 m 347 549 l 583 903 l 111 903 l 347 549 m 389 486 l 625 132 l 625 840 l 389 486 m 111 69 l 583 69 l 347 424 l 111 69 m 69 840 l 69 132 l 306 486 l 69 840 z "},"∘":{"ha":694,"x_min":0,"x_max":694,"o":"m 0 0 l 0 972 l 694 972 l 694 0 l 0 0 m 347 549 l 583 903 l 111 903 l 347 549 m 389 486 l 625 132 l 625 840 l 389 486 m 111 69 l 583 69 l 347 424 l 111 69 m 69 840 l 69 132 l 306 486 l 69 840 z "},"∛":{"ha":694,"x_min":0,"x_max":694,"o":"m 0 0 l 0 972 l 694 972 l 694 0 l 0 0 m 347 549 l 583 903 l 111 903 l 347 549 m 389 486 l 625 132 l 625 840 l 389 486 m 111 69 l 583 69 l 347 424 l 111 69 m 69 840 l 69 132 l 306 486 l 69 840 z "},"∜":{"ha":694,"x_min":0,"x_max":694,"o":"m 0 0 l 0 972 l 694 972 l 694 0 l 0 0 m 347 549 l 583 903 l 111 903 l 347 549 m 389 486 l 625 132 l 625 840 l 389 486 m 111 69 l 583 69 l 347 424 l 111 69 m 69 840 l 69 132 l 306 486 l 69 840 z "},"∝":{"ha":694,"x_min":0,"x_max":694,"o":"m 0 0 l 0 972 l 694 972 l 694 0 l 0 0 m 347 549 l 583 903 l 111 903 l 347 549 m 389 486 l 625 132 l 625 840 l 389 486 m 111 69 l 583 69 l 347 424 l 111 69 m 69 840 l 69 132 l 306 486 l 69 840 z "},"≡":{"ha":694,"x_min":0,"x_max":694,"o":"m 0 0 l 0 972 l 694 972 l 694 0 l 0 0 m 347 549 l 583 903 l 111 903 l 347 549 m 389 486 l 625 132 l 625 840 l 389 486 m 111 69 l 583 69 l 347 424 l 111 69 m 69 840 l 69 132 l 306 486 l 69 840 z "},"≢":{"ha":694,"x_min":0,"x_max":694,"o":"m 0 0 l 0 972 l 694 972 l 694 0 l 0 0 m 347 549 l 583 903 l 111 903 l 347 549 m 389 486 l 625 132 l 625 840 l 389 486 m 111 69 l 583 69 l 347 424 l 111 69 m 69 840 l 69 132 l 306 486 l 69 840 z "},"≣":{"ha":694,"x_min":0,"x_max":694,"o":"m 0 0 l 0 972 l 694 972 l 694 0 l 0 0 m 347 549 l 583 903 l 111 903 l 347 549 m 389 486 l 625 132 l 625 840 l 389 486 m 111 69 l 583 69 l 347 424 l 111 69 m 69 840 l 69 132 l 306 486 l 69 840 z "}," ":{"ha":236,"x_min":0,"x_max":0,"o":""},"!":{"ha":386,"x_min":146,"x_max":410,"o":"m 193 153 q 172 162 181 153 q 164 182 164 171 q 167 199 164 190 q 188 296 188 233 q 179 475 188 400 q 171 660 171 553 q 190 763 171 721 q 150 882 150 814 q 183 946 150 946 q 211 917 211 946 q 210 899 211 914 q 208 881 208 885 q 219 822 208 849 q 325 881 253 881 q 385 857 361 881 q 410 799 410 833 q 382 732 410 758 q 310 706 354 706 q 242 722 272 706 q 233 663 233 704 q 238 496 233 557 l 250 296 q 235 201 250 250 q 193 153 219 153 m 317 822 q 256 781 279 822 q 310 765 274 765 q 349 793 349 765 q 340 814 349 806 q 317 822 331 822 m 149 13 l 156 57 q 194 82 161 86 q 218 70 210 81 q 224 47 226 60 l 217 3 q 183 -24 213 -24 q 156 -12 167 -24 q 149 13 146 -1 z "},"\"":{"ha":319,"x_min":63,"x_max":251,"o":"m 77 841 q 82 845 77 841 q 99 850 86 850 q 120 841 111 850 q 129 819 129 832 q 125 694 129 735 q 89 661 121 661 q 67 693 63 661 q 68 819 68 703 q 77 841 68 832 m 199 841 q 204 845 199 841 q 221 850 208 850 q 242 841 233 850 q 251 819 251 832 q 247 694 251 735 q 211 661 243 661 q 189 693 185 661 q 190 819 190 703 q 199 841 190 832 z "},"#":{"ha":667,"x_min":58,"x_max":608,"o":"m 572 304 l 575 249 l 456 249 l 421 0 l 358 0 l 394 249 l 243 249 l 208 0 l 147 0 l 182 249 l 63 249 l 58 304 l 190 304 l 214 474 l 94 474 l 92 529 l 221 529 l 256 778 l 318 778 l 282 529 l 433 529 l 468 778 l 531 778 l 494 529 l 604 529 l 608 474 l 486 474 l 464 304 l 572 304 m 425 474 l 275 474 l 251 304 l 403 304 l 425 474 z "},"$":{"ha":625,"x_min":40,"x_max":581,"o":"m 292 -101 q 283 -123 292 -114 q 260 -132 274 -132 q 240 -123 249 -132 q 231 -101 231 -114 q 254 42 231 -74 q 99 89 158 47 q 40 194 40 131 q 97 307 40 257 q 236 357 153 357 q 349 240 349 357 q 329 97 349 203 q 465 140 410 97 q 519 244 519 183 q 474 349 519 311 q 318 413 429 386 q 101 608 101 464 q 167 746 101 682 q 347 811 232 810 q 369 936 369 900 q 378 958 369 949 q 401 967 388 967 q 432 928 432 967 q 410 807 432 899 q 517 755 476 800 q 558 647 558 710 q 517 562 558 599 q 417 526 475 525 q 346 550 378 526 q 314 631 314 574 q 335 754 314 658 q 208 708 251 751 q 164 608 164 664 q 331 469 164 506 q 419 445 383 457 q 496 408 454 433 q 559 342 538 383 q 581 243 581 300 q 510 102 581 164 q 317 39 439 40 q 292 -101 292 -92 m 267 97 q 286 236 286 201 q 272 281 286 263 q 232 300 258 300 q 142 269 182 300 q 101 194 101 238 q 151 126 101 153 q 267 97 200 100 m 396 753 q 376 631 376 664 q 419 583 376 583 q 474 602 453 583 q 496 647 496 621 q 396 753 496 739 z "},"%":{"ha":1072,"x_min":61,"x_max":1024,"o":"m 221 350 q 104 403 147 350 q 61 550 61 456 q 88 681 61 618 q 115 699 97 699 q 137 690 128 699 q 146 668 146 681 q 143 656 146 658 q 121 550 121 603 q 147 449 121 492 q 225 407 174 407 q 336 473 292 407 q 388 618 381 539 q 319 614 354 614 q 210 644 256 614 q 165 722 165 675 q 201 800 165 767 q 301 833 238 833 q 397 792 357 833 q 449 685 438 750 q 758 879 599 721 q 781 888 767 888 q 802 878 793 888 q 811 857 811 869 q 807 842 811 850 q 569 370 681 631 q 432 -53 458 110 q 401 -79 426 -79 q 374 -47 374 -79 q 463 257 374 15 q 690 743 551 499 q 449 628 568 657 q 381 436 444 522 q 221 350 317 350 m 740 335 q 778 430 740 388 q 875 472 815 472 q 983 419 943 472 q 1024 282 1024 367 q 960 77 1024 165 q 793 -11 896 -11 q 678 44 722 -11 q 635 189 635 100 q 660 314 632 256 q 688 333 668 333 q 709 324 700 333 q 718 301 718 315 q 715 290 718 299 q 694 189 694 240 q 722 88 694 131 q 799 46 749 46 q 917 117 871 46 q 963 282 963 189 q 942 374 963 333 q 875 414 921 414 q 821 389 842 414 q 800 335 800 364 q 850 274 800 288 q 872 243 872 267 q 863 223 872 232 q 842 214 854 214 q 813 220 833 214 q 767 256 793 226 q 740 335 740 286 m 386 675 q 358 748 381 718 q 301 778 336 778 q 247 763 267 778 q 226 725 226 749 q 254 688 226 706 q 319 671 282 671 q 386 675 353 671 z "},"&":{"ha":1056,"x_min":63,"x_max":1036,"o":"m 993 669 q 1036 535 1036 604 q 928 349 1036 417 q 826 93 939 201 q 499 -15 713 -15 q 183 90 303 -15 q 63 354 63 196 q 240 664 63 571 q 231 731 231 693 q 283 867 231 815 q 403 919 335 919 q 497 887 467 919 q 528 825 528 854 q 519 803 528 813 q 496 794 510 794 q 467 819 472 794 q 444 851 463 840 q 403 863 425 863 q 326 828 358 863 q 293 731 293 793 q 296 688 293 701 q 388 706 338 706 q 508 673 467 706 q 549 594 549 640 q 517 524 549 549 q 442 499 485 499 q 342 526 392 499 q 261 611 292 553 q 125 354 125 533 q 228 131 125 219 q 499 42 332 42 q 772 125 676 42 q 868 321 867 208 q 767 304 825 304 q 610 348 669 304 q 550 463 550 392 q 591 550 550 514 q 692 586 632 586 q 828 540 765 586 q 915 414 890 494 q 975 536 975 463 q 944 632 975 582 q 938 650 938 643 q 968 681 938 681 q 993 669 982 681 m 488 594 q 460 633 488 617 q 388 649 433 649 q 313 635 346 649 q 374 575 336 594 q 442 556 411 556 q 473 565 458 556 q 488 594 488 575 m 613 463 q 658 388 613 414 q 767 361 704 361 q 867 379 822 361 q 801 489 849 449 q 693 529 754 529 q 635 510 657 529 q 613 463 613 490 z "},"'":{"ha":194,"x_min":63,"x_max":129,"o":"m 77 841 q 82 845 77 841 q 99 850 86 850 q 120 841 111 850 q 129 819 129 832 q 125 694 129 735 q 89 661 121 661 q 67 693 63 661 q 68 819 68 703 q 77 841 68 832 z "},"(":{"ha":338,"x_min":58,"x_max":383,"o":"m 338 929 q 356 935 344 935 q 383 907 383 935 q 369 881 383 889 q 192 674 264 813 q 121 324 121 536 q 142 95 121 197 q 198 -67 164 -7 q 264 -162 232 -128 q 325 -210 296 -196 q 344 -239 344 -218 q 318 -267 344 -267 q 279 -252 306 -267 q 214 -195 253 -237 q 141 -91 175 -153 q 83 80 107 -29 q 58 322 58 189 q 140 699 58 546 q 338 929 221 851 z "},")":{"ha":339,"x_min":-40,"x_max":285,"o":"m 36 935 q 210 749 136 893 q 285 356 285 606 q 258 107 285 219 q 192 -72 231 -6 q 110 -185 154 -139 q 35 -250 67 -232 q -12 -268 4 -268 q -33 -260 -25 -268 q -40 -240 -40 -251 q -25 -217 -40 -224 q 155 -12 86 -175 q 224 357 224 150 q 203 583 224 483 q 147 742 182 683 q 81 832 113 800 q 15 881 49 864 q -3 910 -3 889 q 25 938 -3 938 q 36 935 33 938 z "},"*":{"ha":382,"x_min":21,"x_max":353,"o":"m 119 931 l 203 826 l 335 882 l 233 788 l 353 707 l 210 742 l 151 610 l 153 747 l 21 756 l 156 804 l 119 931 z "},"+":{"ha":600,"x_min":47,"x_max":553,"o":"m 271 310 l 271 535 l 329 535 l 329 310 l 553 310 l 553 251 l 329 251 l 329 28 l 271 28 l 271 251 l 47 251 l 47 310 l 271 310 z "},",":{"ha":181,"x_min":50,"x_max":136,"o":"m 101 83 q 136 53 136 83 q 85 -106 136 -106 q 60 -97 69 -106 q 50 -74 50 -87 q 56 -56 50 -65 q 71 53 71 -33 q 80 74 71 65 q 101 83 89 83 z "},"-":{"ha":426,"x_min":47,"x_max":378,"o":"m 238 300 l 138 301 q 83 299 94 301 q 58 302 69 293 q 47 325 47 311 q 67 356 47 350 q 138 361 86 361 l 238 360 q 338 367 314 360 q 347 369 343 369 q 369 360 360 369 q 378 339 378 350 q 238 300 378 294 z "},".":{"ha":181,"x_min":61,"x_max":140,"o":"m 64 15 l 69 63 q 110 88 75 92 q 132 76 124 86 q 139 53 140 65 l 132 6 q 97 -19 128 -19 q 71 -10 81 -19 q 64 15 61 0 z "},"/":{"ha":456,"x_min":-26,"x_max":494,"o":"m -26 -19 l -26 -12 q 50 182 -8 58 q 147 378 108 306 q 281 619 186 450 q 436 903 385 797 q 464 919 444 919 q 485 910 476 919 q 494 890 494 901 q 336 589 494 871 q 209 360 254 442 q 108 159 164 278 q 35 -28 51 40 q -4 -50 28 -57 q -26 -19 -26 -43 z "},":":{"ha":181,"x_min":61,"x_max":143,"o":"m 64 13 l 71 57 q 85 77 74 69 q 111 82 96 85 q 140 47 143 79 l 132 3 q 99 -24 128 -24 q 72 -12 82 -24 q 64 13 61 -1 m 64 303 l 71 350 q 106 376 75 376 q 131 366 121 376 q 140 342 142 356 l 132 294 q 94 268 126 264 q 69 280 78 269 q 64 303 61 290 z "},";":{"ha":181,"x_min":51,"x_max":151,"o":"m 72 304 l 81 349 q 92 369 82 361 q 119 374 103 376 q 149 339 151 368 l 140 294 q 107 268 136 268 q 80 278 90 268 q 72 304 69 289 m 81 78 q 86 83 81 78 q 104 88 90 88 q 128 78 118 88 q 139 56 139 68 q 86 -101 139 -101 q 61 -92 71 -101 q 51 -69 51 -83 q 56 -54 51 -61 q 72 56 72 -29 q 81 78 72 68 z "},"<":{"ha":600,"x_min":46,"x_max":554,"o":"m 554 82 l 554 21 l 46 251 l 46 310 l 554 542 l 554 481 l 118 281 l 554 82 z "},"=":{"ha":600,"x_min":47,"x_max":553,"o":"m 553 410 l 553 351 l 47 351 l 47 410 l 553 410 m 553 211 l 553 153 l 47 153 l 47 211 l 553 211 z "},">":{"ha":600,"x_min":46,"x_max":554,"o":"m 46 82 l 482 281 l 46 481 l 46 542 l 554 310 l 554 251 l 46 21 l 46 82 z "},"?":{"ha":590,"x_min":21,"x_max":574,"o":"m 301 150 q 256 189 278 150 q 233 272 233 228 q 268 374 233 331 q 374 469 303 418 q 475 567 439 517 q 511 694 511 618 q 465 797 511 756 q 339 838 418 838 q 289 832 311 838 q 356 706 356 792 q 322 615 356 650 q 244 581 289 581 q 165 613 200 581 q 131 706 131 646 q 174 811 131 769 q 116 798 142 813 q 81 768 90 783 q 53 746 67 746 q 21 775 21 746 q 67 836 21 806 q 179 867 114 867 q 224 861 207 867 q 279 883 247 875 q 346 893 307 893 q 519 831 457 893 q 574 693 574 776 q 528 537 574 599 q 397 414 482 475 q 320 344 346 376 q 294 272 294 313 q 322 204 294 226 q 332 181 332 192 q 323 159 332 168 q 301 150 314 150 m 257 19 l 264 63 q 304 89 268 93 q 326 77 318 88 q 333 54 335 67 l 325 8 q 293 -18 319 -18 q 265 -7 275 -18 q 257 19 254 4 m 294 706 q 236 806 294 774 q 192 706 192 768 q 208 654 192 671 q 247 638 225 638 q 280 656 265 638 q 294 706 294 674 z "},"@":{"ha":800,"x_min":56,"x_max":744,"o":"m 669 261 l 706 229 q 584 126 661 167 q 419 85 507 85 q 160 192 265 85 q 56 451 56 299 q 162 705 56 600 q 415 810 268 810 q 648 728 551 810 q 744 529 744 646 q 672 334 744 417 q 521 251 600 251 q 476 269 494 251 q 456 317 457 286 l 453 315 q 328 251 392 251 q 232 292 269 251 q 194 390 194 333 q 261 576 194 490 q 428 661 328 661 q 532 579 497 661 l 556 638 l 613 638 l 532 379 q 544 301 506 301 q 645 372 599 301 q 692 510 692 442 q 611 691 692 622 q 418 760 531 760 q 199 667 288 760 q 111 444 111 575 q 201 226 111 317 q 419 135 292 135 q 559 169 492 135 q 669 261 626 203 m 425 604 q 310 535 358 604 q 261 404 261 465 q 285 333 261 360 q 344 307 308 307 q 455 378 407 307 q 503 511 503 449 q 479 575 503 546 q 425 604 456 604 z "},"A":{"ha":919,"x_min":28,"x_max":878,"o":"m 682 506 q 827 367 776 451 q 878 189 878 283 q 831 32 878 86 q 721 -22 783 -22 q 646 7 672 -22 q 597 196 597 57 q 618 474 597 251 q 396 519 522 519 q 279 510 342 519 q 238 263 244 390 q 366 292 311 260 q 421 376 421 324 q 450 407 421 407 q 472 399 463 407 q 481 376 481 390 q 409 251 481 300 q 236 206 338 203 q 267 40 236 82 q 275 21 275 32 q 266 -1 275 8 q 243 -10 257 -10 q 193 51 213 -10 q 175 213 174 111 q 65 268 101 228 q 28 363 28 308 q 82 481 28 431 q 231 557 136 532 q 349 797 276 704 q 517 889 421 889 q 625 847 586 889 q 688 615 688 786 q 682 506 688 557 m 658 196 q 724 33 658 33 q 791 78 765 33 q 817 189 817 122 q 779 333 817 267 q 678 442 742 399 q 658 196 658 254 m 517 832 q 301 571 393 832 q 396 578 350 578 q 622 535 517 578 q 626 617 626 576 q 581 807 626 761 q 517 832 556 832 m 214 492 q 126 439 161 472 q 90 363 90 406 q 176 269 90 294 q 214 492 181 369 z "},"B":{"ha":781,"x_min":56,"x_max":739,"o":"m 543 443 q 660 392 614 432 q 723 310 707 353 q 739 224 739 268 q 653 36 739 103 q 439 -31 567 -31 q 223 44 306 -31 q 140 268 140 118 q 192 578 140 378 q 91 626 126 592 q 56 710 56 661 q 99 806 56 764 q 224 865 143 849 q 196 964 221 938 q 188 986 188 972 q 196 1008 188 999 q 218 1017 204 1017 q 260 978 240 1017 q 286 874 281 940 q 369 872 325 875 q 474 855 414 869 q 581 815 535 840 q 660 739 628 789 q 693 622 693 689 q 656 519 693 569 q 543 443 619 469 m 439 21 q 605 74 533 21 q 676 224 676 128 q 598 365 676 315 q 379 404 519 414 q 358 410 367 403 q 349 432 349 418 q 358 453 349 444 q 379 463 367 463 q 502 480 450 464 q 581 522 554 496 q 619 572 607 547 q 632 622 632 597 q 588 735 632 693 q 464 801 546 776 q 288 819 382 825 q 261 625 286 751 q 329 644 296 625 q 363 701 363 664 q 361 711 363 703 q 360 722 360 719 q 368 743 360 735 q 389 751 376 751 q 421 701 421 751 q 376 606 421 644 q 250 569 331 568 q 203 271 203 383 q 272 81 203 142 q 439 21 342 21 m 118 710 q 199 631 118 649 q 226 810 222 743 q 146 770 174 799 q 118 710 118 742 z "},"C":{"ha":835,"x_min":54,"x_max":794,"o":"m 511 550 q 426 778 426 632 q 429 814 426 792 q 201 669 288 788 q 115 399 115 550 q 203 142 115 243 q 443 40 290 40 q 717 165 631 40 q 743 179 726 179 q 763 170 754 179 q 772 147 772 161 q 761 121 772 139 q 723 78 750 103 q 660 33 696 54 q 566 -4 624 11 q 443 -19 508 -19 q 158 98 263 -19 q 54 399 54 215 q 164 720 54 583 q 446 875 274 857 q 527 975 472 939 q 647 1011 582 1011 q 726 974 726 1011 q 696 946 726 946 q 672 949 693 946 q 647 951 651 951 q 517 876 558 951 q 719 797 644 869 q 794 631 794 725 q 756 528 794 569 q 650 486 718 486 q 511 550 575 486 m 650 546 q 731 631 731 546 q 666 761 731 706 q 493 819 601 817 q 489 778 489 800 q 541 610 489 674 q 650 546 593 546 z "},"D":{"ha":836,"x_min":42,"x_max":813,"o":"m 379 -19 q 282 10 321 -19 q 226 92 243 39 q 203 192 208 144 q 197 304 197 240 q 207 440 197 386 q 85 504 129 456 q 42 626 42 553 q 142 808 42 735 q 393 882 243 882 q 591 851 507 882 q 722 765 675 819 q 790 646 768 710 q 813 508 813 582 q 781 327 813 419 q 694 157 749 235 q 557 30 640 79 q 379 -19 474 -19 m 381 36 q 574 115 486 36 q 706 300 661 193 q 750 508 750 407 q 742 588 750 550 q 711 672 735 626 q 650 749 688 717 q 544 803 613 782 q 388 825 476 825 q 184 766 264 825 q 104 626 104 707 q 213 497 104 521 q 256 717 232 633 q 285 739 260 739 q 306 730 297 739 q 315 708 315 721 q 314 699 315 701 q 275 492 293 621 q 390 521 347 494 q 435 585 432 547 q 445 604 436 596 q 467 613 454 613 q 488 603 479 613 q 497 582 497 594 q 440 483 497 531 q 268 435 382 436 q 258 304 258 386 q 285 105 258 174 q 381 36 313 36 z "},"E":{"ha":726,"x_min":39,"x_max":674,"o":"m 419 246 q 599 202 525 246 q 674 88 674 158 q 629 0 674 38 q 481 -37 585 -37 q 292 -5 381 -37 q 149 93 203 28 q 100 -18 104 49 q 69 -47 97 -47 q 48 -38 57 -47 q 39 -17 39 -29 q 114 147 39 76 q 83 281 83 215 q 197 524 83 432 q 183 603 183 563 q 210 719 183 663 q 288 815 238 776 q 261 910 261 861 q 270 933 261 924 q 293 942 279 942 q 313 933 304 942 q 322 910 322 924 q 339 844 322 878 q 401 865 368 858 q 474 874 435 874 q 599 842 553 874 q 646 761 646 810 q 615 695 646 721 q 538 669 585 669 q 425 696 485 669 q 322 768 365 722 q 246 603 246 706 q 251 560 246 578 q 408 597 322 597 q 562 560 501 597 q 622 465 622 524 q 617 436 622 451 q 599 399 613 421 q 551 365 586 378 q 467 351 517 351 q 323 383 386 351 q 224 468 260 414 q 146 281 146 396 q 165 183 146 235 q 419 246 271 246 m 611 88 q 553 159 611 129 q 419 189 494 189 q 194 131 285 189 q 316 48 239 78 q 481 18 393 18 q 576 38 540 18 q 611 88 611 57 m 561 464 q 517 517 561 494 q 407 539 472 539 q 271 503 314 539 q 351 435 300 461 q 465 408 401 408 q 561 464 561 408 m 474 817 q 374 797 415 817 q 453 746 407 767 q 538 725 500 725 q 570 735 556 725 q 585 761 585 744 q 553 801 585 786 q 474 817 522 817 z "},"F":{"ha":776,"x_min":42,"x_max":856,"o":"m 190 638 l 210 639 q 232 633 222 642 q 242 611 242 625 q 185 578 242 578 q 84 618 126 578 q 42 714 42 658 q 103 832 42 785 q 257 879 164 879 q 489 818 367 879 q 699 879 576 879 q 813 846 769 879 q 856 768 856 813 q 821 694 856 722 q 729 665 786 665 q 645 678 688 665 q 579 702 603 690 q 494 746 556 714 q 435 585 435 686 q 446 500 435 561 q 550 518 500 518 q 653 500 608 518 q 714 463 697 482 q 731 431 731 444 q 722 408 731 417 q 700 400 713 400 q 675 413 683 400 q 550 460 642 460 q 460 443 507 460 q 472 314 472 375 q 454 138 472 210 q 406 35 436 67 q 351 -8 376 4 q 296 -19 325 -19 q 206 17 240 -19 q 172 126 172 53 q 232 321 172 219 q 389 475 292 422 q 374 585 374 542 q 442 776 374 694 q 257 822 342 822 q 148 792 192 822 q 104 714 104 761 q 131 658 104 681 q 190 638 157 635 m 697 821 q 544 786 604 821 q 729 722 664 722 q 775 734 757 722 q 793 767 793 746 q 768 804 793 788 q 697 821 743 821 m 411 314 q 401 417 411 349 q 281 285 326 369 q 235 126 235 200 q 296 38 235 38 q 367 85 339 38 q 403 190 394 132 q 411 314 411 247 z "},"G":{"ha":1014,"x_min":56,"x_max":988,"o":"m 944 357 q 988 243 988 317 q 978 181 988 213 q 944 150 968 150 q 924 159 932 150 q 917 181 917 168 q 918 193 917 189 q 928 243 928 217 q 924 278 928 261 q 901 314 919 296 q 851 332 882 332 q 799 322 824 332 q 811 244 811 285 q 731 68 811 150 q 507 -14 650 -14 q 186 115 317 -14 q 56 431 56 243 q 183 750 56 624 q 504 876 310 876 q 572 869 538 876 q 603 936 583 910 q 638 969 624 963 q 660 976 651 976 q 681 967 672 976 q 690 944 690 958 q 669 917 690 924 q 628 856 643 907 q 777 756 722 824 q 832 624 832 688 q 807 553 832 582 q 739 525 782 525 q 611 606 667 525 q 556 782 556 686 q 557 814 556 800 q 504 818 532 818 q 226 706 332 818 q 119 431 119 594 q 232 156 119 268 q 507 43 344 43 q 696 117 624 43 q 743 296 768 192 q 590 251 663 251 q 455 285 504 251 q 406 372 406 319 q 443 448 406 415 q 551 481 481 481 q 772 375 701 481 q 851 393 817 393 q 944 357 908 393 m 467 372 q 503 327 467 344 q 590 310 539 310 q 718 349 640 310 q 551 422 663 422 q 489 407 511 422 q 467 372 467 392 m 740 583 q 769 624 769 583 q 728 719 769 665 q 618 799 688 772 q 653 649 610 715 q 740 583 696 583 z "},"H":{"ha":1076,"x_min":28,"x_max":1097,"o":"m 515 447 l 581 469 q 763 539 718 518 q 841 770 782 678 q 978 863 900 863 q 1053 833 1028 863 q 1078 758 1078 803 q 821 500 1078 626 q 813 378 813 442 q 823 274 813 331 q 858 148 833 217 q 938 28 883 79 q 1067 -33 992 -22 q 1097 -57 1097 -39 q 1088 -80 1097 -71 q 1067 -89 1079 -89 q 848 40 944 -89 q 751 379 751 168 q 756 475 751 431 q 600 417 689 449 l 536 393 q 474 371 494 379 q 351 65 435 183 q 153 -54 267 -54 q 64 -20 100 -54 q 28 72 28 14 q 60 192 28 138 q 153 287 92 246 q 274 356 214 328 q 419 414 333 383 q 438 636 438 525 q 385 797 438 754 q 310 647 369 707 q 175 586 250 586 q 99 615 129 586 q 69 693 69 644 q 141 828 69 767 q 324 881 213 889 q 278 958 313 936 q 265 985 265 971 q 274 1006 265 997 q 297 1015 283 1015 q 350 974 319 1015 q 386 864 381 932 q 500 636 500 815 q 486 438 500 542 q 500 442 490 439 q 515 447 510 446 m 975 803 q 892 742 932 800 q 831 572 853 685 q 1017 758 1017 671 q 1006 792 1017 781 q 975 803 996 804 m 178 646 q 280 698 242 646 q 328 819 318 750 q 304 822 314 822 q 177 778 222 822 q 132 693 132 735 q 145 659 132 672 q 178 646 158 646 m 153 0 q 300 97 232 0 q 406 349 368 194 q 174 230 258 294 q 90 72 90 165 q 108 19 90 39 q 153 0 125 0 z "},"I":{"ha":613,"x_min":0,"x_max":578,"o":"m 408 22 q 480 37 451 22 q 508 81 508 51 q 465 134 508 113 q 361 156 422 156 q 282 144 332 156 q 320 56 286 90 q 408 22 354 22 m 325 726 q 210 825 301 825 q 156 813 176 825 q 135 781 135 801 q 169 737 135 753 q 256 721 203 721 q 325 726 290 721 m 256 664 q 117 697 163 664 q 72 781 72 731 q 112 853 72 824 q 210 882 151 882 q 319 848 271 882 q 386 742 368 814 q 515 864 506 772 q 526 883 517 875 q 546 892 535 892 q 569 881 560 892 q 576 857 578 871 q 532 756 572 804 q 394 683 492 707 q 343 424 401 588 q 338 407 339 413 q 282 203 286 265 q 356 211 329 211 q 516 173 461 211 q 571 79 571 135 q 528 -3 571 29 q 407 -35 485 -35 q 279 10 331 -35 q 219 128 228 54 q 115 68 161 111 q 58 -28 68 25 q 29 -53 54 -53 q 0 -22 0 -53 q 15 34 0 -1 q 84 118 31 69 q 218 188 138 167 q 278 429 218 257 q 333 671 338 588 q 256 664 294 664 z "},"J":{"ha":724,"x_min":28,"x_max":821,"o":"m 222 111 l 224 122 q 214 148 225 136 q 182 160 203 160 q 116 124 143 160 q 89 38 89 89 q 142 -76 89 -31 q 272 -122 196 -122 q 462 -44 388 -122 q 536 171 536 33 q 529 344 536 249 q 522 511 522 440 q 560 683 522 624 q 425 743 500 708 q 354 775 374 767 q 294 794 335 783 q 218 806 254 806 q 138 781 164 806 q 111 715 111 756 q 136 663 111 683 q 146 639 146 653 q 137 617 146 626 q 117 608 128 608 q 72 642 94 608 q 50 715 50 675 q 94 819 50 775 q 218 863 139 863 q 451 794 313 863 q 585 736 465 788 q 735 839 642 839 q 821 760 821 839 q 783 688 821 715 q 683 661 744 661 q 618 668 650 661 q 585 508 585 611 q 592 352 585 447 q 599 176 599 257 q 513 -79 599 21 q 275 -179 426 -179 q 97 -118 167 -179 q 28 35 28 -57 q 74 164 28 113 q 186 215 119 215 q 261 188 236 215 q 286 122 286 161 q 254 79 286 79 q 231 89 240 79 q 222 111 222 99 m 731 783 q 646 721 682 783 q 658 719 650 721 q 672 717 665 718 q 683 717 678 717 q 758 758 758 717 q 731 783 758 783 z "},"K":{"ha":986,"x_min":42,"x_max":1146,"o":"m 219 -21 q 240 4 219 -3 q 320 95 294 26 q 351 315 346 164 q 240 426 240 335 q 273 496 240 465 q 353 539 306 526 q 357 640 354 594 q 274 635 322 635 q 99 696 157 635 q 42 825 42 757 q 51 847 42 839 q 72 856 60 856 q 103 828 100 856 q 152 728 106 765 q 274 690 199 690 q 363 699 321 690 q 424 882 376 824 q 531 940 471 940 q 598 913 574 940 q 622 844 622 885 q 567 733 622 785 q 418 654 511 681 q 414 543 414 604 q 571 464 490 536 q 625 522 599 490 q 688 604 651 554 q 732 664 725 654 q 817 765 765 707 q 939 832 878 832 q 960 824 951 832 q 969 803 969 815 q 939 774 969 774 q 861 722 910 774 q 781 628 807 664 q 611 422 686 497 q 668 344 644 386 q 703 288 676 332 q 744 223 731 243 q 785 160 757 203 q 830 97 813 118 q 874 41 847 75 q 924 -12 901 7 q 972 -50 946 -31 q 1022 -78 997 -69 q 1072 -86 1047 -86 q 1102 -84 1086 -86 q 1121 -82 1118 -82 q 1146 -101 1146 -82 q 1071 -146 1146 -146 q 1002 -132 1038 -146 q 938 -101 967 -118 q 874 -46 910 -83 q 817 16 839 -8 q 759 91 794 40 q 709 164 724 142 q 659 242 694 186 q 615 311 624 299 l 594 346 q 581 366 589 353 q 568 383 572 379 q 413 311 485 317 q 402 183 408 235 q 381 78 396 131 q 336 -4 365 26 q 264 -47 307 -35 q 251 -50 256 -50 q 229 -42 239 -50 q 219 -21 219 -33 m 301 426 q 350 372 301 381 q 351 425 350 379 q 351 479 351 471 q 316 458 331 474 q 301 426 301 442 m 414 486 l 413 439 q 412 403 413 428 q 411 368 411 378 q 531 424 467 369 q 414 486 479 479 m 529 885 q 466 840 494 885 q 424 715 438 794 q 523 774 485 738 q 561 844 561 810 q 529 885 561 885 z "},"L":{"ha":782,"x_min":0,"x_max":749,"o":"m 474 632 q 625 733 565 668 q 685 858 685 797 q 674 890 685 878 q 644 903 663 903 q 548 838 599 903 q 474 632 497 772 m 144 0 q 376 300 314 0 q 145 232 228 300 q 63 83 63 164 q 87 23 63 46 q 144 0 111 0 m 410 613 q 494 865 426 764 q 656 965 561 965 q 722 938 696 965 q 749 860 749 910 q 668 689 749 768 q 467 567 588 610 q 446 356 456 410 q 667 248 600 333 q 735 64 735 163 q 719 -21 735 19 q 681 -85 703 -61 q 640 -122 658 -108 q 611 -136 621 -136 q 588 -127 597 -136 q 579 -106 579 -118 q 593 -81 579 -90 q 674 65 674 -28 q 620 212 674 144 q 436 297 567 279 q 143 -58 363 -58 q 42 -19 83 -58 q 0 83 0 19 q 24 176 0 129 q 92 266 47 224 q 213 335 136 308 q 385 360 290 361 q 403 550 392 408 q 321 543 358 543 q 161 592 222 543 q 100 729 100 640 q 108 751 100 742 q 131 760 117 760 q 151 751 143 760 q 160 729 160 742 q 209 631 160 660 q 321 603 258 603 q 410 613 369 603 z "},"M":{"ha":1243,"x_min":28,"x_max":1193,"o":"m 154 992 l 161 992 q 347 803 292 969 q 526 869 438 869 q 618 851 576 869 q 684 802 660 832 q 722 747 708 772 q 740 700 735 722 q 978 844 858 844 q 1107 792 1056 844 q 1193 504 1193 703 q 1157 226 1193 367 q 1065 6 1121 86 q 1039 -7 1057 -7 q 1018 1 1026 -7 q 1010 24 1010 10 q 1014 42 1010 33 q 1097 244 1064 113 q 1131 504 1131 375 q 1119 634 1131 575 q 1070 740 1107 693 q 975 788 1033 788 q 763 629 875 788 q 785 449 785 558 q 733 127 785 268 q 594 -14 682 -14 q 538 7 563 -14 q 504 129 504 42 q 558 384 504 238 q 696 642 613 531 q 635 764 679 715 q 522 811 588 811 q 364 738 442 811 q 386 492 386 643 q 322 133 386 285 q 154 -19 257 -19 q 63 27 99 -19 q 28 161 28 74 q 105 476 28 296 q 296 757 182 656 q 149 932 254 911 q 122 961 122 938 q 132 983 122 974 q 154 992 142 992 m 324 492 q 311 694 324 588 q 153 431 217 585 q 89 161 89 276 q 90 133 89 147 q 97 94 92 118 q 118 53 103 69 q 156 38 133 38 q 274 174 224 38 q 324 492 324 311 m 722 435 q 714 568 722 513 q 606 335 647 456 q 565 129 565 214 q 596 42 565 42 q 681 158 642 42 q 722 435 721 275 z "},"N":{"ha":986,"x_min":0,"x_max":942,"o":"m 413 457 q 410 544 413 494 q 281 313 332 444 q 229 93 231 181 q 241 50 229 68 q 275 32 253 32 q 370 154 328 32 q 413 457 413 276 m 879 551 q 843 730 879 665 q 738 794 807 794 q 465 610 614 794 q 474 457 474 539 q 419 115 474 256 q 271 -26 364 -26 q 196 6 225 -26 q 167 93 167 39 q 233 354 167 199 q 400 625 300 510 q 365 786 392 713 q 247 763 315 763 q 70 810 140 763 q 0 929 0 857 q 43 1022 0 985 q 151 1058 86 1058 q 291 1010 226 1058 q 399 874 356 963 q 471 1019 471 932 q 443 1113 471 1069 q 439 1128 439 1117 q 447 1151 439 1142 q 469 1160 456 1160 q 515 1111 496 1160 q 533 1019 533 1063 q 421 817 533 897 q 454 685 440 764 q 739 851 607 851 q 884 784 826 851 q 942 551 942 717 q 895 277 942 424 q 767 -3 849 131 q 740 -18 757 -18 q 719 -9 728 -18 q 710 14 710 0 q 714 31 710 22 q 835 295 790 154 q 879 551 879 436 m 64 929 q 117 851 64 883 q 247 819 169 819 q 349 839 296 819 q 151 1001 271 1001 q 64 929 64 1001 z "},"O":{"ha":917,"x_min":57,"x_max":933,"o":"m 863 889 l 863 896 q 886 926 863 919 q 913 921 903 931 q 927 891 924 911 q 932 858 931 871 q 933 828 933 844 q 842 632 933 710 q 871 457 871 563 q 748 126 871 258 q 446 -7 625 -7 q 165 105 274 -7 q 57 407 57 217 q 87 585 57 494 q 167 724 117 676 q 189 732 178 732 q 210 724 201 732 q 219 701 219 715 q 211 681 219 689 q 145 566 171 643 q 119 407 119 489 q 211 146 119 242 q 449 50 303 50 q 704 169 600 50 q 808 457 808 289 q 789 597 808 533 q 600 553 721 553 q 374 608 469 553 q 279 751 279 664 q 333 849 279 811 q 472 888 386 888 q 664 838 574 888 q 815 688 754 789 q 872 826 872 746 q 863 889 872 860 m 767 651 q 637 785 715 739 q 472 831 558 831 q 374 807 407 831 q 340 747 340 783 q 419 651 340 693 q 606 610 499 610 q 767 651 706 610 z "},"P":{"ha":721,"x_min":50,"x_max":772,"o":"m 510 875 q 699 806 625 875 q 772 632 772 738 q 690 452 772 521 q 524 383 607 383 q 501 392 510 383 q 493 415 493 401 q 522 443 493 440 q 650 499 589 447 q 711 632 711 551 q 654 765 711 713 q 510 817 597 817 q 340 772 417 817 q 421 383 421 621 q 367 90 421 196 q 222 -17 313 -17 q 96 58 142 -17 q 50 278 50 132 q 103 560 50 421 q 260 789 156 700 q 94 875 190 875 q 73 883 82 875 q 64 903 64 890 q 74 924 64 915 q 94 933 83 933 q 306 822 224 933 q 510 875 399 875 m 358 371 q 289 738 361 601 q 156 527 200 657 q 111 278 111 397 q 140 108 111 179 q 224 38 169 38 q 318 129 279 38 q 358 371 357 221 z "},"Q":{"ha":924,"x_min":57,"x_max":1054,"o":"m 924 -146 q 607 40 779 -146 q 429 -1 522 -1 q 238 54 315 -1 q 161 190 161 110 q 203 285 161 250 q 313 319 246 319 q 408 301 363 319 q 498 244 454 282 q 564 182 542 206 q 624 114 586 158 q 754 258 703 164 q 806 464 806 351 q 716 723 806 621 q 490 825 626 825 q 325 788 399 825 q 208 690 251 750 q 142 560 165 629 q 119 422 119 492 q 142 303 119 338 q 147 283 147 293 q 117 254 147 254 q 72 303 86 254 q 57 422 57 353 q 106 642 57 539 q 256 813 156 744 q 490 881 357 881 q 760 764 653 881 q 868 464 868 647 q 811 240 868 344 q 660 71 754 135 q 790 -42 719 4 q 922 -87 860 -87 q 1008 -67 976 -87 q 1024 -61 1017 -61 q 1054 -87 1054 -61 q 1010 -129 1054 -112 q 924 -146 965 -146 m 222 189 q 283 95 222 138 q 429 53 343 53 q 569 85 501 53 q 449 206 519 151 q 311 261 379 261 q 247 240 271 261 q 222 189 222 218 z "},"R":{"ha":878,"x_min":71,"x_max":854,"o":"m 835 24 q 854 -6 854 11 q 845 -27 854 -18 q 824 -36 836 -36 q 708 107 771 -36 q 672 183 689 153 q 621 254 654 214 q 537 320 588 294 q 419 354 486 346 q 393 385 393 357 q 401 408 393 399 q 422 417 410 417 q 569 433 503 417 q 683 490 636 449 q 731 592 731 531 q 609 775 731 707 q 331 843 488 843 q 188 813 242 843 q 133 735 133 783 q 175 661 133 693 q 406 756 250 756 q 530 724 481 756 q 579 646 579 693 q 525 573 579 601 q 374 544 471 544 q 197 579 278 544 q 165 399 165 508 q 219 28 165 147 q 224 14 224 19 q 215 -8 224 1 q 193 -17 206 -17 q 164 1 172 -17 q 103 399 103 132 q 143 608 103 525 q 71 735 71 660 q 135 851 71 803 q 331 900 199 900 q 658 816 522 900 q 793 592 793 732 q 728 448 793 508 q 557 375 663 388 q 632 328 599 356 q 691 264 665 301 q 727 208 717 226 q 757 147 738 189 q 764 133 761 138 q 772 115 765 129 q 782 95 779 100 q 790 78 785 90 q 800 60 796 67 q 810 47 804 54 q 822 33 817 39 q 835 24 828 28 m 406 694 q 228 631 292 694 q 374 603 304 603 q 455 610 421 603 q 503 626 489 617 q 517 646 517 636 q 487 681 517 667 q 406 694 457 694 z "},"S":{"ha":804,"x_min":46,"x_max":757,"o":"m 460 525 q 529 500 504 510 q 595 471 554 490 q 660 431 636 451 q 708 383 683 411 q 745 317 733 354 q 757 235 757 279 q 715 103 757 163 q 590 11 672 44 q 540 -101 576 -51 q 474 -172 504 -151 q 428 -192 443 -192 q 396 -164 396 -192 q 415 -135 396 -143 q 522 -11 489 -104 q 453 -22 483 -19 q 372 -26 415 -26 q 140 34 235 -26 q 46 192 46 94 q 113 324 46 269 q 278 378 181 378 q 503 293 413 378 q 597 79 594 208 q 669 144 643 103 q 696 235 696 186 q 633 376 696 326 q 440 469 571 425 q 346 504 378 490 q 272 544 314 518 q 210 606 229 571 q 192 690 192 642 q 265 837 192 775 q 469 899 339 899 q 560 886 513 899 q 708 938 622 938 q 731 929 722 938 q 740 907 740 921 q 707 882 740 882 q 621 857 661 882 q 647 836 640 843 q 699 717 699 786 q 672 648 699 678 q 606 618 646 618 q 525 653 558 618 q 492 744 492 689 q 518 838 492 797 q 468 843 488 843 q 310 797 367 843 q 254 690 254 751 q 302 599 254 632 q 460 525 350 565 m 638 717 q 575 821 638 782 q 553 744 553 788 q 569 695 553 715 q 606 675 585 675 q 638 717 638 675 m 278 319 q 158 283 208 319 q 107 190 107 246 q 183 76 107 122 q 372 29 260 29 q 538 51 469 29 q 474 243 544 167 q 278 319 404 319 z "},"T":{"ha":915,"x_min":31,"x_max":1007,"o":"m 88 618 q 31 733 31 664 q 87 853 31 803 q 247 903 143 903 q 408 874 332 903 q 589 788 483 846 q 801 836 669 836 q 958 801 908 836 q 1007 721 1007 767 q 971 651 1007 678 q 874 624 935 624 q 593 718 765 624 q 531 526 531 661 q 544 385 531 471 q 560 226 560 263 q 394 -14 560 -14 q 349 4 356 -14 q 347 17 347 10 q 394 46 347 46 q 476 91 453 46 q 499 226 499 136 q 483 376 499 231 q 468 526 468 474 q 539 746 468 668 q 247 846 364 846 q 133 814 174 846 q 93 733 93 782 q 122 669 93 697 q 192 640 151 640 q 209 642 194 640 q 225 644 224 644 q 257 618 257 644 q 192 582 257 582 q 88 618 135 582 m 944 719 q 909 760 944 743 q 801 778 874 778 q 650 753 708 778 q 874 681 772 681 q 923 691 901 681 q 944 719 944 701 z "},"U":{"ha":1007,"x_min":56,"x_max":979,"o":"m 117 781 q 154 724 117 746 q 240 703 192 703 q 278 707 249 703 q 235 797 264 763 q 172 831 207 831 q 133 817 150 831 q 117 781 117 803 m 497 38 q 714 174 606 38 q 693 381 693 278 q 713 607 693 499 q 776 792 732 715 q 879 868 819 868 q 949 834 918 868 q 979 714 979 800 q 923 441 979 600 q 778 161 867 282 q 830 42 800 79 q 907 6 860 6 q 921 6 908 6 q 936 7 933 7 q 967 -17 967 7 q 913 -50 967 -50 q 732 106 779 -50 q 497 -19 618 -19 q 335 63 390 -19 q 279 292 279 144 q 283 446 279 307 q 285 614 286 585 q 283 649 285 638 q 240 644 263 644 q 110 681 164 644 q 56 781 56 718 q 90 858 56 826 q 174 890 124 890 q 273 847 228 890 q 335 726 318 804 q 407 794 381 749 q 433 894 433 840 q 415 981 433 958 q 408 1000 408 990 q 439 1031 408 1031 q 481 985 467 1031 q 496 894 496 940 q 454 758 496 819 q 344 667 413 696 q 347 614 347 633 q 344 451 349 589 q 340 292 340 313 q 383 99 340 161 q 497 38 425 38 m 917 714 q 879 810 917 810 q 838 778 860 810 q 797 690 815 746 q 766 549 778 635 q 754 367 754 463 q 761 232 754 279 q 876 487 835 354 q 917 714 917 619 z "},"V":{"ha":954,"x_min":28,"x_max":953,"o":"m 744 857 q 899 797 844 857 q 953 639 953 738 q 918 471 953 579 q 830 253 883 363 q 700 64 776 144 q 551 -17 624 -17 q 499 -5 522 -17 q 462 24 476 7 q 437 72 447 40 q 421 126 426 103 q 413 192 415 150 q 410 258 411 235 q 410 325 410 282 q 371 640 410 546 q 224 597 314 597 q 85 643 142 597 q 28 751 28 689 q 67 844 28 808 q 171 879 107 879 q 310 836 256 879 q 392 743 365 793 q 418 860 418 789 q 388 950 418 911 q 318 999 358 989 q 294 1029 294 1006 q 303 1051 294 1043 q 325 1060 313 1060 q 423 1005 364 1060 q 482 860 482 950 q 419 682 482 757 q 471 326 471 578 q 488 110 471 179 q 556 40 506 40 q 703 157 622 40 q 838 415 785 274 q 890 639 890 557 q 744 797 890 797 q 723 805 732 797 q 714 825 714 813 q 723 848 714 839 q 744 857 732 857 m 89 751 q 128 686 89 717 q 224 656 168 656 q 350 694 299 656 q 171 822 286 822 q 113 803 136 822 q 89 751 89 783 z "},"W":{"ha":1208,"x_min":33,"x_max":1211,"o":"m 1211 783 q 1103 679 1211 707 q 1154 435 1154 558 q 1053 108 1154 235 q 794 -18 951 -18 q 578 108 649 -18 q 347 0 469 0 q 176 76 236 0 q 117 285 117 151 q 172 531 117 396 q 72 597 111 549 q 33 710 33 644 q 67 772 33 772 q 88 763 79 772 q 96 742 96 754 q 94 726 96 740 q 93 710 93 713 q 124 626 93 658 q 199 583 156 594 q 341 762 258 693 q 513 831 424 831 q 578 806 553 831 q 604 743 604 782 q 481 597 604 672 q 233 521 357 521 q 179 285 179 404 q 235 103 179 161 q 347 56 282 56 q 549 163 450 56 q 510 388 510 260 q 526 502 510 444 q 578 603 542 560 q 663 647 614 647 q 732 614 701 647 q 763 496 763 581 q 724 329 763 426 q 621 153 685 232 q 794 39 690 39 q 1008 150 925 39 q 1092 435 1092 261 q 1040 668 1092 561 q 938 669 990 664 q 834 690 885 675 q 751 738 783 706 q 719 815 719 771 q 750 882 719 854 q 836 910 781 910 q 967 860 903 910 q 1076 731 1031 810 q 1131 751 1110 736 q 1151 783 1153 765 q 1158 806 1150 797 q 1181 815 1167 815 q 1202 806 1193 815 q 1211 783 1211 797 m 783 815 q 847 748 783 776 q 1013 724 910 719 q 925 817 972 783 q 836 850 878 850 q 783 815 783 850 m 700 496 q 663 588 700 588 q 598 522 625 588 q 571 388 571 456 q 594 210 571 288 q 671 361 642 279 q 700 496 700 443 m 513 772 q 381 719 449 772 q 264 581 314 667 q 451 648 361 590 q 542 743 542 706 q 513 772 542 772 z "},"X":{"ha":979,"x_min":56,"x_max":1079,"o":"m 1033 -37 l 1049 -37 q 1070 -46 1061 -37 q 1079 -68 1079 -54 q 1069 -90 1079 -83 q 1053 -97 1058 -97 q 1032 -97 1047 -97 q 781 42 908 -97 q 550 428 653 181 q 322 101 419 213 q 129 -11 224 -11 q 105 -4 114 -11 q 94 8 96 3 q 93 19 93 14 q 101 42 93 32 q 125 51 110 51 q 221 90 168 50 q 331 206 274 131 q 429 344 388 281 q 524 496 471 407 q 432 697 481 614 q 353 647 401 665 q 256 628 304 628 q 107 672 158 628 q 56 769 56 715 q 100 861 56 822 q 218 900 144 900 q 439 796 349 900 q 454 879 454 822 q 431 973 454 925 q 372 1039 408 1021 q 356 1064 356 1047 q 364 1085 356 1076 q 385 1094 372 1094 q 467 1028 418 1094 q 515 879 515 963 q 475 744 515 800 q 564 558 517 676 q 644 669 610 625 q 728 767 678 714 q 828 848 778 821 q 931 875 879 875 q 951 866 943 875 q 960 843 960 857 q 951 819 960 831 q 929 810 943 808 q 778 730 871 814 q 589 492 686 646 q 815 92 694 221 q 1033 -37 936 -37 m 118 769 q 155 710 118 736 q 257 685 192 685 q 340 702 299 685 q 404 746 382 719 q 218 843 331 843 q 144 822 171 843 q 118 769 118 800 z "},"Y":{"ha":954,"x_min":0,"x_max":961,"o":"m 774 447 q 775 410 774 440 q 776 361 776 379 q 865 546 831 447 q 900 713 900 644 q 858 792 900 792 q 792 707 811 792 q 774 447 774 622 m 525 156 q 718 283 611 156 q 713 447 713 433 q 715 575 713 524 q 726 683 717 626 q 751 772 735 739 q 796 827 767 806 q 865 849 825 849 q 925 825 897 849 q 961 711 961 794 q 909 495 961 619 q 779 271 857 371 q 782 210 782 218 q 751 -12 782 86 q 669 -174 719 -111 q 552 -278 619 -236 q 417 -337 485 -319 q 276 -354 349 -354 q 82 -293 164 -354 q 0 -118 0 -232 q 44 1 0 -49 q 149 51 88 51 q 232 19 197 51 q 267 -65 267 -14 q 226 -146 267 -146 q 204 -137 214 -146 q 194 -115 194 -128 q 197 -104 194 -110 q 204 -65 204 -81 q 188 -22 204 -37 q 149 -7 171 -7 q 88 -39 114 -7 q 61 -118 61 -71 q 99 -224 61 -182 q 183 -282 138 -267 q 276 -297 229 -297 q 440 -269 364 -297 q 580 -182 517 -240 q 681 -24 643 -124 q 721 206 719 75 q 515 97 613 97 q 443 113 474 97 q 394 158 413 128 q 364 218 375 188 q 348 294 353 249 q 342 370 343 340 q 340 446 340 400 l 340 533 q 338 615 340 565 q 247 600 294 600 q 107 648 163 600 q 51 771 51 696 q 92 869 51 829 q 194 910 132 910 q 309 864 256 910 q 385 713 363 818 q 453 892 453 778 q 451 915 453 894 q 449 940 449 936 q 456 962 449 953 q 476 971 464 971 q 497 965 489 971 q 508 946 506 960 q 512 922 511 932 q 513 892 513 911 q 483 755 513 821 q 396 646 454 689 q 401 414 401 600 q 431 213 401 271 q 525 156 461 156 m 329 674 q 194 853 299 853 q 137 828 160 853 q 114 771 114 804 q 152 688 114 719 q 249 657 190 657 q 329 674 294 657 z "},"Z":{"ha":1097,"x_min":0,"x_max":1057,"o":"m 515 71 l 588 25 q 849 -71 738 -71 q 955 -36 914 -71 q 996 56 996 -1 q 973 124 996 94 q 908 153 950 153 q 887 162 896 153 q 878 183 878 171 q 887 205 878 196 q 908 214 896 214 q 1017 168 976 214 q 1057 56 1057 122 q 998 -76 1057 -22 q 850 -129 939 -129 q 740 -113 794 -129 q 649 -78 686 -97 q 536 -14 611 -58 q 324 107 357 90 q 97 -14 217 -14 q 28 10 57 -14 q 0 74 0 33 q 47 170 0 131 q 179 210 93 210 q 308 181 235 210 q 493 447 378 260 l 519 490 q 646 679 583 596 q 453 782 582 707 q 366 691 422 724 q 249 658 310 658 q 133 693 178 658 q 89 789 89 728 q 131 881 89 847 q 235 915 172 915 q 421 863 322 915 q 432 931 432 899 q 396 1036 432 993 q 389 1056 389 1047 q 398 1078 389 1069 q 418 1088 407 1088 q 468 1038 444 1088 q 492 929 492 988 q 478 835 492 878 q 539 801 499 824 q 612 761 579 778 q 685 729 644 744 q 782 826 738 793 q 879 858 826 858 q 965 775 965 858 q 916 682 965 718 q 792 646 867 646 q 707 660 753 646 q 567 456 647 585 l 538 408 q 368 154 418 215 q 515 71 435 121 m 875 801 q 744 710 819 801 q 788 704 767 704 q 904 772 904 704 q 897 792 904 783 q 875 801 889 801 m 249 717 q 338 744 297 717 q 400 808 379 771 q 236 858 300 858 q 176 838 200 858 q 151 789 151 818 q 178 736 151 756 q 249 717 204 717 m 63 76 q 74 53 63 64 q 106 43 86 43 q 265 132 179 43 q 175 151 211 151 q 91 129 119 151 q 63 76 63 107 z "},"[":{"ha":389,"x_min":68,"x_max":417,"o":"m 282 -165 l 389 -165 q 417 -197 417 -168 q 407 -217 417 -210 q 383 -224 397 -225 l 281 -224 q 136 -200 161 -224 q 90 -67 104 -169 q 69 292 75 36 q 68 403 68 325 q 94 907 68 833 q 129 935 106 935 l 182 935 q 358 944 299 935 l 363 944 q 393 914 393 944 q 367 886 393 890 q 149 876 283 874 q 131 411 131 775 q 172 -147 131 -119 q 282 -165 201 -165 z "},"\\":{"ha":456,"x_min":-33,"x_max":489,"o":"m 489 -12 l 489 -19 q 467 -50 489 -43 q 428 -28 435 -57 q 355 159 411 40 q 253 360 299 278 q 126 589 208 442 q -33 890 -33 874 q -24 910 -33 901 q -3 919 -15 919 q 26 903 18 919 q 182 619 78 797 q 315 378 276 450 q 413 182 354 306 q 489 -12 471 58 z "},"]":{"ha":389,"x_min":-28,"x_max":321,"o":"m 3 -156 l 6 -156 q 193 -167 172 -167 q 242 -162 228 -167 q 233 18 233 -96 q 240 210 233 93 q 247 385 246 328 q 258 769 258 651 q 254 871 258 846 q 207 881 243 881 q 93 868 176 881 q 24 860 38 860 q 3 869 11 860 q -6 892 -6 878 q 24 919 -6 919 q 38 921 29 919 q 60 924 47 922 q 83 926 74 925 q 206 939 165 939 q 303 906 286 939 q 321 765 321 872 q 308 395 321 706 q 296 15 296 85 q 306 -164 296 -111 l 306 -169 q 190 -226 306 -226 q 35 -217 149 -226 q -2 -212 8 -214 q -20 -203 -12 -210 q -28 -182 -28 -196 q 3 -156 -28 -156 z "},"^":{"ha":600,"x_min":43,"x_max":557,"o":"m 271 728 l 329 728 l 557 274 l 493 274 l 299 660 l 107 274 l 43 274 l 271 728 z "},"_":{"ha":694,"x_min":0,"x_max":694,"o":"m 694 -174 l 0 -174 l 0 -104 l 694 -104 l 694 -174 z "},"`":{"ha":285,"x_min":38,"x_max":249,"o":"m 249 571 q 228 543 249 543 q 203 551 214 543 q 65 660 75 653 q 38 703 38 681 q 63 726 38 726 l 79 722 q 98 706 86 717 q 113 694 110 696 q 238 594 131 679 q 249 571 249 586 z "},"a":{"ha":481,"x_min":47,"x_max":428,"o":"m 300 481 q 394 442 360 481 q 428 333 428 404 q 410 167 428 265 q 396 56 396 76 q 399 38 396 46 q 404 21 404 26 q 394 1 404 10 q 372 -8 385 -8 q 333 58 333 -8 q 349 176 333 67 q 367 331 367 288 q 346 400 367 378 q 294 422 325 422 q 165 329 219 422 q 110 135 110 236 q 126 72 110 96 q 169 47 143 47 q 249 118 222 47 q 275 136 256 136 q 304 106 304 136 q 265 33 304 76 q 160 -11 225 -11 q 81 26 114 -11 q 47 135 47 63 q 120 367 47 254 q 300 481 193 481 z "},"b":{"ha":468,"x_min":25,"x_max":483,"o":"m 215 608 q 369 701 308 638 q 406 751 390 722 q 421 801 421 781 q 392 842 421 842 q 215 608 314 842 m 225 -14 q 71 201 71 -14 q 125 525 71 346 q 58 521 96 521 q 25 553 25 521 q 26 562 25 557 q 36 573 28 567 q 58 579 44 579 q 147 590 100 579 q 182 678 163 635 q 233 776 201 721 q 306 865 264 831 q 394 899 349 899 q 460 874 436 899 q 483 804 483 850 q 410 658 483 732 q 196 543 333 579 q 132 201 132 367 q 226 36 132 36 q 331 119 279 36 q 382 300 382 201 q 363 383 382 351 q 310 415 344 415 q 246 389 271 415 q 222 379 236 379 q 201 388 210 379 q 192 410 192 397 q 224 453 192 429 q 313 476 256 476 q 408 428 374 476 q 443 300 443 379 q 376 85 443 183 q 225 -14 308 -14 z "},"c":{"ha":417,"x_min":53,"x_max":386,"o":"m 382 424 q 386 404 386 415 q 357 374 386 374 q 331 389 342 374 q 282 415 313 415 q 161 335 207 415 q 115 167 115 254 q 133 85 115 115 q 169 49 151 56 q 208 42 188 42 q 322 111 283 42 q 349 129 332 129 q 375 97 375 129 q 324 28 375 69 q 204 -14 274 -14 q 94 31 136 -14 q 53 167 53 76 q 119 381 53 286 q 286 475 186 475 q 382 424 361 475 z "},"d":{"ha":472,"x_min":56,"x_max":526,"o":"m 210 -11 q 99 49 143 -11 q 56 206 56 108 q 108 392 56 308 q 243 475 161 475 q 315 452 283 475 q 346 407 346 429 q 337 385 346 394 q 315 376 328 376 q 289 392 297 376 q 243 413 276 413 q 153 349 190 413 q 117 206 117 285 q 142 90 117 135 q 211 46 168 46 q 338 189 293 46 q 386 538 383 332 q 238 621 297 561 q 179 754 179 681 q 210 842 179 803 q 292 881 242 881 q 372 846 338 881 q 435 718 418 801 q 449 586 451 635 q 500 579 478 581 q 526 551 526 575 q 518 531 526 540 q 501 522 510 522 q 447 528 474 522 q 414 238 444 374 q 318 36 383 101 q 210 -11 271 -11 m 289 822 q 254 801 267 822 q 242 756 242 779 q 283 660 242 704 q 388 599 325 615 q 369 730 388 676 q 331 803 351 783 q 289 822 310 822 z "},"e":{"ha":414,"x_min":49,"x_max":397,"o":"m 200 261 q 294 292 253 263 q 335 365 335 321 q 279 413 335 413 q 166 346 221 413 q 111 175 111 279 q 115 134 111 154 q 131 92 119 114 q 167 56 142 69 q 226 43 192 43 q 324 89 286 43 q 346 100 332 100 q 374 68 374 100 q 327 15 374 44 q 222 -14 281 -14 q 96 37 143 -14 q 49 175 49 88 q 121 386 49 300 q 281 472 193 472 q 368 442 339 472 q 397 365 397 411 q 334 245 397 289 q 200 201 271 201 q 169 231 169 201 q 200 261 169 258 z "},"f":{"ha":419,"x_min":-43,"x_max":569,"o":"m 69 -279 q 128 -238 106 -279 q 171 -106 150 -197 q 222 340 201 31 q 70 101 121 250 q 19 -172 19 -49 q 34 -250 19 -221 q 69 -279 49 -279 m 569 772 q 548 706 569 733 q 507 678 526 678 q 485 685 493 678 q 478 700 478 692 q 494 736 478 725 q 507 774 507 746 q 492 808 507 793 q 449 824 476 824 q 342 726 388 824 q 290 443 306 651 q 408 464 343 464 q 465 431 465 464 q 457 411 465 418 q 438 404 449 404 q 419 405 431 404 q 404 406 407 406 q 289 381 338 406 q 229 -128 264 13 q 165 -287 201 -235 q 65 -339 129 -339 q -12 -295 19 -339 q -43 -172 -43 -251 q -18 24 -43 -81 q 71 240 7 128 q 226 415 135 353 q 247 619 236 556 q 285 747 257 682 q 356 844 311 808 q 456 881 400 881 q 540 851 511 881 q 569 772 569 821 z "},"g":{"ha":446,"x_min":-94,"x_max":414,"o":"m 271 417 q 155 336 203 417 q 107 165 107 256 q 140 63 107 94 q 218 38 168 35 q 204 103 204 64 q 233 194 204 154 q 310 235 263 235 q 367 208 346 235 q 389 142 389 182 q 297 3 389 53 q 332 -36 314 -21 q 406 -186 406 -103 q 319 -365 406 -297 q 118 -433 232 -433 q -37 -390 21 -433 q -94 -267 -94 -346 q -51 -158 -94 -203 q 56 -114 -7 -114 q 117 -131 93 -114 q 142 -175 142 -149 q 133 -195 142 -187 q 114 -203 125 -203 q 90 -193 96 -203 q 53 -172 76 -172 q -8 -199 17 -172 q -32 -267 -32 -226 q 8 -348 -32 -319 q 118 -376 49 -376 q 272 -325 201 -376 q 343 -186 343 -274 q 290 -76 343 -132 q 240 -14 261 -47 q 222 -17 229 -17 q 203 -18 215 -18 q 88 31 132 -18 q 44 165 44 81 q 110 377 44 281 q 271 474 175 474 q 377 424 340 474 q 414 289 414 374 q 405 266 414 275 q 382 257 396 257 q 354 289 354 257 q 334 375 354 333 q 271 417 314 417 m 263 101 q 272 50 263 74 q 315 90 299 63 q 331 142 331 117 q 307 176 331 176 q 276 153 290 176 q 263 101 263 131 z "},"h":{"ha":501,"x_min":25,"x_max":464,"o":"m 110 -6 q 81 19 86 -6 q 71 133 71 78 q 117 522 71 329 q 79 521 107 521 q 53 522 61 521 q 35 529 44 522 q 25 551 25 536 q 34 572 25 564 q 54 579 43 581 l 81 579 q 133 583 110 579 q 233 790 171 703 q 369 878 296 878 q 439 853 414 878 q 464 785 464 828 q 378 633 464 704 q 182 533 293 561 q 131 251 150 404 q 217 414 161 353 q 332 475 274 475 q 443 269 443 475 q 435 159 443 218 q 421 69 428 100 q 410 28 414 39 q 381 4 403 4 q 358 13 367 4 q 349 35 349 22 q 349 39 349 36 q 350 43 350 42 q 381 269 381 161 q 328 411 381 411 q 235 347 283 411 q 158 191 188 283 q 139 25 129 99 q 132 3 140 13 q 110 -6 124 -6 m 368 821 q 281 758 329 821 q 201 599 233 694 q 344 681 285 628 q 403 785 403 735 q 368 821 403 821 z "},"i":{"ha":222,"x_min":56,"x_max":272,"o":"m 165 632 l 243 642 l 188 603 l 272 549 l 169 565 l 131 489 l 132 569 l 63 575 l 131 614 l 124 678 l 165 632 m 156 461 q 179 431 179 454 q 178 424 179 426 q 118 11 133 243 q 88 -18 115 -18 q 65 -9 74 -18 q 56 14 56 0 q 62 93 56 28 q 84 262 68 158 q 118 439 100 365 q 131 458 119 451 q 156 461 143 464 z "},"j":{"ha":254,"x_min":-256,"x_max":215,"o":"m 165 547 q 143 576 143 554 q 144 586 143 583 q 161 626 154 617 q 183 636 168 636 q 206 627 197 636 q 215 606 215 618 q 214 594 215 599 q 197 555 204 564 q 175 546 190 546 q 165 547 168 546 m -112 -433 q -215 -397 -175 -433 q -256 -304 -256 -360 q -220 -218 -256 -253 q -136 -183 -185 -183 q -90 -217 -90 -183 q -119 -243 -90 -243 q -131 -242 -124 -243 q -143 -242 -137 -242 q -177 -260 -161 -242 q -193 -303 -193 -278 q -171 -355 -193 -333 q -110 -376 -149 -376 q 1 -320 -47 -376 q 75 -156 50 -264 q 131 318 104 -35 l 139 428 q 169 457 142 457 q 192 448 183 457 q 200 426 200 439 q 193 317 200 389 q 135 -165 167 -21 q 41 -362 106 -290 q -112 -433 -24 -433 z "},"k":{"ha":511,"x_min":26,"x_max":478,"o":"m 185 192 q 178 93 178 146 q 183 38 178 54 q 188 24 188 31 q 178 1 188 10 q 157 -7 169 -7 q 115 93 115 -7 q 125 200 115 132 q 26 306 26 232 q 63 386 26 354 q 164 418 100 418 q 183 511 168 443 q 228 765 228 714 q 222 818 228 808 q 219 829 219 826 q 239 858 219 851 q 251 861 244 861 q 273 853 265 861 q 284 829 281 846 q 288 800 288 813 q 289 765 289 788 q 251 529 289 711 q 225 410 235 461 q 354 326 297 393 q 419 456 414 386 q 447 483 422 483 q 469 474 460 483 q 478 453 478 465 q 447 357 478 411 q 386 281 417 303 q 467 28 467 178 q 456 1 467 8 q 435 -7 446 -7 q 407 28 407 -7 q 340 242 407 147 q 185 192 274 190 m 101 272 q 132 254 114 261 q 153 361 143 319 q 106 345 125 360 q 88 306 88 331 q 101 272 88 286 m 193 246 l 196 246 q 311 288 267 246 q 214 356 274 340 q 193 246 203 310 z "},"l":{"ha":217,"x_min":64,"x_max":243,"o":"m 193 860 q 206 863 199 863 q 227 855 219 863 q 238 831 235 847 q 242 801 242 814 q 243 767 243 789 q 200 531 243 708 q 126 94 126 229 q 132 39 126 56 q 136 25 136 32 q 127 3 136 11 q 106 -6 118 -6 q 64 94 64 -6 q 132 513 64 236 q 182 767 182 719 q 176 819 182 810 q 174 831 174 828 q 193 860 174 853 z "},"m":{"ha":758,"x_min":46,"x_max":706,"o":"m 75 -12 q 46 19 46 -12 q 64 108 46 26 q 101 347 101 268 q 81 432 101 411 q 74 454 74 443 q 83 476 74 467 q 106 485 92 485 q 147 442 129 485 q 157 336 165 399 q 311 475 214 475 q 387 438 354 475 q 424 315 419 400 q 590 478 479 478 q 674 426 642 476 q 706 269 706 375 q 668 7 706 157 q 638 -15 658 -15 q 615 -6 624 -15 q 606 17 606 4 q 607 25 606 22 q 644 267 644 153 q 583 415 644 415 q 478 323 528 415 q 407 103 428 231 q 389 13 394 29 q 365 -3 383 -3 q 344 7 353 -3 q 335 29 335 17 q 347 106 335 40 q 365 279 365 219 q 304 414 365 414 q 194 303 250 414 q 104 13 139 192 q 75 -12 100 -12 z "},"n":{"ha":486,"x_min":47,"x_max":426,"o":"m 319 469 q 350 463 335 469 q 384 439 365 457 q 415 380 403 421 q 426 279 426 339 q 394 25 426 181 q 364 -3 390 -3 q 341 6 350 -3 q 332 29 332 15 q 333 35 332 32 q 364 279 364 168 q 314 406 364 406 q 198 297 257 406 q 106 19 139 189 q 76 -4 101 -4 q 47 28 47 -4 q 78 168 47 46 q 107 339 106 281 q 82 422 106 399 q 75 444 75 433 q 84 465 75 456 q 106 474 93 474 q 149 435 129 474 q 165 339 169 397 q 319 469 222 469 z "},"o":{"ha":474,"x_min":56,"x_max":444,"o":"m 296 483 q 404 431 364 483 q 444 294 444 379 q 381 81 444 175 q 215 -14 317 -14 q 99 44 143 -14 q 56 200 56 103 q 75 313 56 260 q 104 335 82 335 q 125 326 117 335 q 133 304 133 317 q 131 290 133 299 q 118 201 118 258 q 144 92 118 140 q 218 44 169 44 q 335 122 289 44 q 382 294 382 200 q 360 385 382 344 q 293 425 339 425 q 240 401 257 425 q 222 347 222 378 q 288 292 222 292 q 310 283 301 292 q 319 261 319 274 q 282 231 319 231 q 192 264 224 231 q 160 347 160 297 q 197 442 160 401 q 296 483 233 483 z "},"p":{"ha":479,"x_min":-89,"x_max":450,"o":"m 304 474 q 412 417 374 474 q 450 269 450 361 q 399 61 450 136 q 272 -14 347 -14 q 186 19 218 -14 q 154 75 154 51 q 163 97 154 89 q 185 106 172 106 q 213 90 204 106 q 272 44 236 44 q 355 104 322 44 q 388 269 388 164 q 381 327 388 297 q 355 385 375 357 q 304 414 335 414 q 154 274 219 414 q 85 -71 89 133 q 251 -142 188 -71 q 315 -307 315 -214 q 284 -410 315 -375 q 199 -446 253 -446 q 72 -359 118 -446 q 24 -140 25 -272 q -17 -166 1 -147 q -37 -203 -35 -185 q -64 -218 -40 -218 q -89 -190 -89 -218 q -59 -128 -89 -162 q 24 -81 -29 -94 q 106 318 25 163 q 304 474 186 474 m 197 -390 q 253 -308 253 -390 q 206 -183 253 -237 q 85 -129 160 -128 q 120 -320 86 -250 q 197 -390 154 -390 z "},"q":{"ha":463,"x_min":54,"x_max":428,"o":"m 365 -424 q 333 -406 349 -424 q 306 -339 318 -387 q 294 -219 294 -290 q 331 54 294 -124 q 365 289 365 221 q 285 415 365 415 q 165 331 214 415 q 115 163 115 247 q 186 47 115 47 q 243 90 225 47 q 271 110 250 108 q 290 101 283 111 q 297 78 297 92 q 263 19 297 49 q 182 -10 229 -10 q 54 161 54 -10 q 122 372 54 271 q 290 474 189 474 q 391 429 354 474 q 428 297 428 385 q 393 43 428 214 q 357 -211 357 -132 q 390 -374 357 -332 q 397 -394 397 -383 q 365 -424 397 -424 z "},"r":{"ha":329,"x_min":56,"x_max":356,"o":"m 122 61 l 114 15 q 83 -11 110 -11 q 63 -2 71 -11 q 56 19 56 7 l 75 147 q 94 303 94 275 q 64 406 94 375 q 56 428 56 413 q 65 449 56 440 q 85 458 74 458 q 128 424 107 458 q 147 342 149 390 q 218 441 169 407 q 322 475 267 475 q 346 467 336 475 q 356 444 356 458 q 326 417 356 419 q 271 403 296 415 q 228 375 246 390 q 195 328 211 360 q 171 275 179 296 q 151 207 163 254 q 136 138 140 160 q 122 61 132 115 z "},"s":{"ha":396,"x_min":29,"x_max":351,"o":"m 125 196 q 175 160 175 196 q 165 138 175 144 q 147 133 156 132 q 138 135 146 133 q 125 138 131 138 q 92 97 92 138 q 119 51 92 72 q 182 31 146 31 q 254 54 224 31 q 285 122 285 78 q 206 228 285 186 q 104 358 104 282 q 140 440 104 404 q 236 475 175 475 q 322 446 292 475 q 351 392 351 417 q 342 369 351 378 q 319 360 333 360 q 294 378 299 360 q 274 408 290 393 q 235 422 258 422 q 184 404 203 422 q 165 358 165 386 q 179 322 165 338 q 233 282 193 307 q 319 215 290 249 q 347 131 347 181 q 303 22 347 64 q 181 -19 258 -19 q 74 13 119 -19 q 29 96 29 46 q 57 167 29 139 q 125 196 85 196 z "},"t":{"ha":292,"x_min":31,"x_max":315,"o":"m 233 18 q 224 -3 233 6 q 203 -14 215 -12 l 199 -14 q 193 -12 194 -12 q 90 163 90 4 q 125 413 90 274 q 80 409 103 413 q 50 406 57 406 q 31 429 31 406 q 40 452 31 443 q 67 465 49 461 q 99 469 86 468 q 139 471 113 469 q 182 636 157 544 q 210 658 189 656 q 242 631 242 658 q 239 615 242 621 q 200 469 221 561 q 285 467 210 469 q 315 438 315 461 q 289 410 315 410 q 189 414 268 410 q 151 167 151 281 q 206 47 151 58 q 225 38 217 47 q 233 18 233 29 z "},"u":{"ha":467,"x_min":50,"x_max":431,"o":"m 144 426 l 144 419 q 111 176 111 272 q 169 46 111 46 q 290 161 235 46 q 369 446 346 276 q 406 472 374 472 q 423 461 415 472 q 428 438 431 450 q 408 324 424 400 q 385 136 385 182 q 413 40 385 69 q 419 19 419 32 q 410 -2 419 7 q 389 -11 401 -11 q 345 29 365 -11 q 326 125 325 69 q 258 24 300 61 q 169 -14 215 -14 q 85 28 121 -14 q 50 176 50 69 q 81 424 50 267 q 113 458 89 458 q 135 449 126 458 q 144 426 144 439 z "},"v":{"ha":419,"x_min":58,"x_max":413,"o":"m 139 415 l 136 401 q 121 206 121 321 q 126 119 121 156 q 138 67 131 83 q 153 50 144 50 q 217 106 175 50 q 299 260 258 163 q 350 450 340 357 q 363 472 353 464 q 385 478 372 479 q 404 467 396 476 q 413 447 413 458 l 413 444 q 310 145 396 299 q 150 -8 224 -8 q 58 206 58 -8 q 78 421 58 321 q 107 444 82 444 q 131 435 121 444 q 139 415 140 426 z "},"w":{"ha":703,"x_min":56,"x_max":679,"o":"m 626 472 q 639 476 633 476 q 679 390 679 476 q 651 231 679 321 q 568 69 624 142 q 449 -4 513 -4 q 369 35 403 -4 q 338 153 336 74 q 265 38 311 82 q 168 -6 219 -6 q 82 50 108 -6 q 56 181 56 106 q 89 431 56 300 q 119 456 96 456 q 141 447 132 456 q 150 424 150 438 q 149 417 150 419 q 118 181 118 292 q 172 53 118 53 q 289 166 232 53 q 357 433 346 279 q 383 463 360 463 q 406 453 397 463 q 415 431 415 444 q 411 383 415 421 q 394 181 394 219 q 451 56 394 56 q 563 172 508 56 q 618 390 618 289 q 610 432 618 417 q 607 444 607 440 q 626 472 607 465 z "},"x":{"ha":444,"x_min":-33,"x_max":443,"o":"m -3 44 l 1 44 q 199 267 40 44 q 96 415 124 407 q 72 444 72 422 q 82 466 72 457 q 104 475 92 475 q 139 461 121 475 q 178 415 157 447 q 208 369 200 382 q 236 318 215 356 q 325 427 289 390 q 393 464 361 464 q 415 454 406 464 q 424 432 424 444 q 415 412 424 421 q 394 401 406 403 q 267 261 365 397 q 415 44 374 50 q 443 14 443 42 q 433 -10 443 0 q 408 -17 422 -19 q 328 40 367 -12 q 228 210 289 92 q 91 34 139 86 q 1 -18 43 -18 q -26 -8 -18 -18 q -33 14 -33 3 q -24 35 -33 26 q -3 44 -15 44 z "},"y":{"ha":460,"x_min":-118,"x_max":435,"o":"m 150 438 l 149 432 q 118 185 118 268 q 171 56 118 56 q 257 116 213 56 q 330 267 301 176 q 358 440 358 358 q 368 461 358 453 q 390 469 378 469 q 410 460 403 469 q 418 439 418 451 q 404 175 418 393 q 354 -117 392 10 q 435 -242 435 -162 q 426 -263 435 -254 q 404 -272 417 -272 q 383 -263 392 -272 q 375 -242 375 -254 q 332 -176 375 -196 q 197 -362 288 -292 q 11 -433 106 -433 q -81 -404 -44 -433 q -118 -315 -118 -375 q -15 -148 -118 -214 q 207 -82 88 -82 q 296 -94 258 -82 q 347 172 332 19 q 271 46 321 97 q 171 -6 221 -6 q 83 49 111 -6 q 56 185 56 103 q 86 438 56 276 q 119 469 99 468 q 141 460 132 469 q 150 438 150 451 m 19 -376 q 166 -313 93 -376 q 279 -147 239 -250 q 207 -139 250 -139 q 29 -190 114 -139 q -56 -311 -56 -240 q -33 -360 -56 -343 q 19 -376 -11 -376 z "},"z":{"ha":467,"x_min":14,"x_max":449,"o":"m 340 461 l 344 465 q 364 472 351 472 q 399 442 399 472 q 392 419 399 431 q 244 235 321 342 q 104 68 171 132 q 274 63 175 82 q 343 53 319 53 q 380 62 372 53 q 388 94 388 71 q 414 125 388 122 q 441 117 433 129 q 449 88 449 104 q 419 20 449 44 q 343 -4 390 -4 q 264 6 329 -4 q 154 19 194 19 q 56 4 103 19 q 44 3 54 3 q 23 12 32 3 q 14 32 14 21 q 21 54 14 44 q 196 269 108 144 q 301 399 232 321 q 223 406 286 399 q 150 413 160 413 q 115 397 122 413 q 88 379 107 379 q 65 388 75 379 q 56 410 56 397 q 63 432 56 419 q 94 458 71 444 q 150 471 117 471 q 224 463 160 471 q 299 454 288 454 q 340 461 329 454 z "},"{":{"ha":514,"x_min":0,"x_max":532,"o":"m 472 -183 l 481 -183 q 502 -192 493 -183 q 511 -212 511 -200 q 425 -249 511 -249 q 276 -202 338 -249 q 215 -60 215 -156 q 243 82 215 -19 q 268 229 268 169 q 249 325 268 285 q 135 275 199 275 q 30 304 60 275 q 0 371 0 333 q 39 439 0 408 q 139 469 78 469 q 242 436 200 469 q 257 515 257 475 q 242 636 257 567 q 228 756 228 708 q 287 889 228 842 q 429 936 346 936 q 517 914 481 936 q 532 890 532 906 q 523 867 532 876 q 501 858 514 858 q 486 863 494 858 q 429 876 463 876 q 328 843 368 876 q 289 756 289 810 q 303 650 289 719 q 319 515 319 569 q 286 385 319 446 q 331 229 331 321 q 303 61 331 151 q 278 -60 278 -19 q 425 -189 278 -189 q 472 -183 444 -189 m 135 336 q 221 379 185 336 q 139 410 188 410 q 82 397 103 410 q 61 371 61 383 q 135 336 61 336 z "},"|":{"ha":308,"x_min":122,"x_max":186,"o":"m 122 -347 l 122 1042 l 186 1042 l 186 -347 l 122 -347 z "},"}":{"ha":514,"x_min":-18,"x_max":486,"o":"m 361 413 q 279 376 313 413 q 363 331 313 331 q 408 342 390 331 q 425 368 425 353 q 410 398 425 383 q 361 413 394 413 m 208 750 q 173 845 208 811 q 79 879 138 879 q 19 872 46 879 q 15 872 18 872 l 13 871 q -18 899 -18 871 q 6 928 -18 924 q 79 938 40 938 q 219 888 168 938 q 271 739 271 838 q 256 638 271 717 q 240 511 240 556 q 254 433 240 474 q 361 471 299 471 q 453 440 421 471 q 486 368 486 408 q 454 299 486 328 q 363 271 422 271 q 249 321 297 271 q 228 225 228 283 q 231 174 228 196 q 242 127 235 151 q 250 99 249 103 q 274 -54 274 1 q 217 -201 274 -154 q 79 -249 160 -249 q -14 -210 -14 -249 q -5 -188 -14 -197 q 17 -179 4 -179 q 28 -181 25 -179 q 79 -190 57 -190 q 172 -159 133 -190 q 211 -57 211 -128 q 189 82 211 -1 q 167 225 167 171 q 213 379 167 314 q 178 511 178 433 q 196 650 178 578 q 208 750 208 697 z "},"~":{"ha":600,"x_min":43,"x_max":558,"o":"m 85 264 l 43 303 q 181 401 100 401 q 310 364 232 401 q 332 353 317 361 q 356 342 347 346 q 376 334 364 339 q 399 327 389 329 q 421 325 410 325 q 517 401 469 325 l 558 361 q 498 288 529 313 q 421 264 467 263 q 293 300 375 264 q 181 339 221 339 q 85 264 129 339 z "}," ":{"ha":236,"x_min":0,"x_max":0,"o":""},"¡":{"ha":386,"x_min":-10,"x_max":254,"o":"m 207 331 q 228 322 219 331 q 236 301 236 313 q 233 285 236 293 q 213 188 213 250 q 221 8 213 133 q 229 -176 229 -122 q 210 -279 229 -237 q 250 -399 250 -331 q 217 -462 250 -462 q 189 -433 189 -462 q 190 -416 189 -431 q 192 -397 192 -401 q 181 -339 192 -365 q 75 -397 147 -397 q 15 -374 39 -397 q -10 -315 -10 -350 q 18 -249 -10 -275 q 90 -222 46 -222 q 158 -239 128 -222 q 167 -179 167 -221 q 163 -12 167 -74 l 150 188 q 165 282 150 233 q 207 331 181 331 m 83 -339 q 144 -297 122 -339 q 90 -282 126 -282 q 51 -310 51 -282 q 60 -331 51 -322 q 83 -339 69 -339 m 251 471 l 244 426 q 206 401 239 397 q 182 413 190 403 q 176 436 174 424 l 183 481 q 217 507 188 507 q 244 496 233 507 q 251 471 254 485 z "},"¢":{"ha":625,"x_min":43,"x_max":574,"o":"m 383 894 q 405 885 396 894 q 414 864 414 876 q 408 847 414 853 q 390 756 404 843 q 524 706 475 753 q 574 592 574 660 q 544 514 574 544 q 478 483 514 483 q 422 507 443 483 q 401 550 401 531 q 410 572 401 563 q 432 582 419 582 q 461 558 454 582 q 478 543 468 543 q 501 556 490 543 q 513 592 513 569 q 476 667 513 638 q 379 699 440 697 q 304 142 317 211 q 464 219 413 142 q 490 232 475 232 q 511 224 503 232 q 519 201 519 215 q 496 159 519 186 q 417 108 472 132 q 293 85 363 83 q 256 -56 272 -19 q 228 -74 247 -74 q 197 -43 197 -74 q 200 -31 197 -36 q 232 93 214 -3 q 43 349 43 136 q 124 610 43 490 q 328 751 204 731 q 360 883 346 865 q 383 894 369 894 m 296 519 l 318 692 q 169 570 233 674 q 106 349 106 467 q 244 149 106 181 q 296 519 268 292 z "},"£":{"ha":794,"x_min":-21,"x_max":763,"o":"m 753 150 q 763 114 763 143 q 716 7 763 47 q 593 -33 669 -33 q 388 32 489 -33 q 263 113 269 108 q 85 -8 196 -8 q 8 18 36 -8 q -21 86 -21 44 q 19 176 -21 135 q 139 218 58 218 q 233 194 189 218 q 254 347 264 257 q 149 336 189 336 q 76 367 76 336 q 86 388 76 379 q 107 397 96 397 q 128 395 111 397 q 149 393 144 393 q 250 404 176 393 q 249 442 250 419 q 247 474 247 464 q 318 736 247 651 q 499 821 389 821 q 563 810 518 821 q 665 844 607 844 q 733 811 733 844 q 703 783 733 783 q 687 786 700 783 q 667 789 674 789 q 618 778 640 789 q 681 653 681 731 q 653 578 681 610 q 586 546 625 546 q 513 576 543 546 q 483 657 483 606 q 521 763 483 719 q 363 697 419 776 q 307 472 307 618 q 310 413 307 454 q 538 439 497 439 q 569 438 558 439 q 593 435 579 438 q 613 425 607 432 q 619 406 619 418 q 610 385 619 393 q 589 376 601 376 q 564 378 586 376 q 538 381 542 381 q 315 356 493 381 q 289 167 326 256 q 422 83 332 144 q 593 24 508 24 q 700 114 700 24 q 696 125 700 115 q 692 139 692 135 q 701 160 692 151 q 724 169 710 169 q 753 150 746 169 m 571 746 q 543 654 543 700 q 555 615 543 631 q 583 600 567 600 q 612 615 600 600 q 624 651 624 629 q 571 746 624 714 m 88 49 q 211 142 164 49 q 135 161 179 161 q 66 138 90 161 q 42 89 42 115 q 54 60 42 72 q 88 49 67 49 z "},"¤":{"ha":600,"x_min":31,"x_max":569,"o":"m 301 497 q 190 450 236 497 q 144 339 144 403 q 190 229 144 275 q 301 183 236 183 q 410 230 365 183 q 456 339 456 276 q 410 450 456 403 q 301 497 365 497 m 31 114 l 128 211 q 85 339 85 268 q 128 465 85 415 l 31 564 l 76 610 l 172 511 q 301 556 232 556 q 428 511 374 556 l 524 610 l 569 564 l 474 465 q 515 339 515 411 q 474 211 515 264 l 569 114 l 524 68 l 428 165 q 301 125 379 125 q 172 165 221 125 l 76 68 l 31 114 z "},"¥":{"ha":742,"x_min":-4,"x_max":714,"o":"m 368 226 q 363 321 368 268 q 290 106 290 210 q 322 28 290 28 q 355 80 342 28 q 368 226 368 132 m 319 -25 q 231 107 231 -25 q 250 210 231 146 q 310 333 269 275 q 207 331 238 331 q 152 331 169 331 q 118 335 135 332 q 96 344 101 338 q 90 363 90 351 q 100 384 90 375 q 122 393 110 393 l 128 393 q 206 386 153 386 q 351 392 251 386 q 261 649 324 558 q 121 739 199 739 q 70 718 83 739 q 57 676 57 697 q 59 662 57 674 q 61 649 61 650 q 53 626 61 635 q 32 617 44 617 q -4 676 -4 617 q 30 761 -4 726 q 121 796 64 796 q 299 695 226 796 q 403 424 372 594 q 547 571 439 471 q 601 622 582 603 q 636 672 619 642 q 653 731 653 701 q 628 781 653 764 q 567 792 604 797 q 547 797 556 789 q 538 819 538 806 q 585 851 538 851 q 678 821 643 851 q 714 732 714 790 q 619 561 714 651 q 559 507 597 540 q 493 447 521 474 q 447 399 465 419 q 629 404 571 406 q 651 395 643 404 q 660 374 660 386 q 658 363 660 367 q 653 356 657 358 q 647 351 650 353 q 638 349 644 350 q 628 349 632 349 q 617 349 625 349 q 604 349 608 349 q 418 340 565 349 q 428 226 428 272 q 397 35 428 94 q 319 -25 367 -25 z "},"¦":{"ha":308,"x_min":122,"x_max":186,"o":"m 122 -243 l 122 243 l 186 243 l 186 -243 l 122 -243 m 122 451 l 122 938 l 186 938 l 186 451 l 122 451 z "},"§":{"ha":542,"x_min":40,"x_max":493,"o":"m 242 -207 q 101 -156 161 -207 q 42 -31 40 -104 q 77 69 42 24 q 168 114 113 114 q 234 92 206 114 q 263 39 263 69 q 251 17 263 25 q 228 10 239 10 q 200 35 213 10 q 164 58 189 58 q 122 33 140 58 q 103 -28 103 8 q 142 -112 103 -74 q 246 -150 182 -150 q 364 -105 318 -150 q 410 18 410 -60 q 267 194 410 135 q 142 277 182 232 q 101 392 101 322 q 160 518 101 463 q 115 635 115 571 q 178 771 115 713 q 326 829 240 829 q 447 791 400 829 q 493 690 493 753 q 461 614 493 644 q 396 585 429 583 q 374 592 383 585 q 365 617 364 600 q 372 632 365 625 q 389 640 379 639 q 419 655 406 642 q 432 689 432 668 q 404 748 433 722 q 322 774 375 774 q 221 734 264 774 q 178 640 178 694 q 217 542 178 579 q 331 474 257 504 q 493 272 493 406 q 438 138 493 196 q 472 19 472 99 q 403 -148 472 -89 q 242 -207 333 -207 m 276 253 q 404 178 382 206 q 433 274 433 218 q 317 417 433 363 q 193 485 222 460 q 161 394 161 446 q 276 253 161 306 z "},"¨":{"ha":353,"x_min":64,"x_max":281,"o":"m 278 651 l 278 642 q 279 632 278 640 q 281 622 281 624 q 272 601 281 610 q 250 592 263 592 q 222 610 228 592 q 217 664 217 628 q 215 676 217 667 q 214 686 214 685 q 223 708 214 699 q 244 717 232 717 q 278 651 281 717 m 128 651 l 128 642 q 129 632 128 640 q 131 622 131 624 q 122 601 131 610 q 100 592 113 592 q 72 610 78 592 q 67 664 67 628 q 65 676 67 667 q 64 686 64 685 q 73 708 64 699 q 94 717 82 717 q 128 651 131 717 z "},"©":{"ha":1028,"x_min":56,"x_max":972,"o":"m 507 17 q 687 56 607 17 q 814 158 767 94 q 886 300 861 222 q 911 463 911 378 q 811 751 911 628 q 535 874 711 874 q 304 808 401 874 q 162 645 207 743 q 117 435 117 547 q 224 131 117 244 q 507 17 332 17 m 972 463 q 923 221 972 332 q 765 36 874 110 q 507 -37 657 -37 q 181 91 307 -37 q 56 435 56 219 q 88 620 56 532 q 178 778 119 708 q 330 888 238 847 q 535 929 422 929 q 855 791 738 929 q 972 463 972 653 m 633 719 l 619 719 q 568 685 592 719 q 660 635 626 674 q 694 550 694 596 q 672 488 694 511 q 610 464 649 464 q 530 508 565 464 q 493 626 494 553 q 394 551 432 611 q 356 419 356 490 q 393 297 356 344 q 503 249 431 249 q 632 308 593 249 q 657 319 639 319 q 674 314 668 319 q 683 290 683 307 q 665 254 683 276 q 603 212 647 232 q 503 192 560 192 q 351 253 408 192 q 294 419 294 314 q 352 595 294 517 q 504 685 410 674 q 552 753 521 728 q 619 778 583 778 q 665 744 665 778 q 633 719 665 719 m 636 550 q 614 600 636 576 q 553 631 592 624 q 572 551 553 582 q 608 521 590 521 q 636 550 636 521 z "},"ª":{"ha":435,"x_min":49,"x_max":368,"o":"m 344 539 l 343 539 q 347 524 347 531 q 338 501 347 510 q 317 493 329 493 q 281 553 281 493 q 292 647 281 583 q 306 772 306 747 q 289 828 306 810 q 256 840 279 840 q 156 763 200 840 q 111 610 111 686 q 147 549 111 549 q 184 568 168 549 q 206 610 200 588 q 233 633 210 633 q 253 624 246 633 q 261 603 261 615 q 228 532 261 574 q 143 490 196 490 q 76 519 104 490 q 49 610 49 547 q 110 801 49 706 q 258 897 171 897 q 338 864 308 897 q 368 772 368 831 q 353 638 368 756 q 342 551 342 579 q 344 539 342 544 m 221 397 l 142 399 q 99 396 115 399 q 73 402 85 393 q 61 425 61 411 q 66 442 61 436 q 83 451 71 449 q 106 455 96 454 q 142 456 117 456 l 219 456 q 299 460 285 456 q 308 463 304 463 q 331 453 321 463 q 340 431 340 444 q 313 403 340 408 q 221 397 286 397 z "},"«":{"ha":458,"x_min":36,"x_max":408,"o":"m 346 253 q 399 210 381 228 q 408 189 408 201 q 399 166 408 175 q 378 157 390 157 q 356 167 364 157 l 326 189 q 264 237 297 211 q 222 269 231 263 q 210 294 210 281 q 222 319 210 310 q 290 392 246 335 q 338 445 326 435 q 361 456 350 456 q 383 447 374 456 q 392 425 392 439 q 383 404 392 413 q 286 294 328 336 q 346 253 300 285 m 117 285 q 222 207 188 242 q 231 186 231 196 q 222 165 231 174 q 199 156 213 156 q 178 164 185 156 q 54 250 131 211 q 36 278 36 260 q 50 303 36 292 q 100 365 69 317 q 160 444 146 429 q 183 454 172 454 q 205 445 196 454 q 214 422 214 436 q 206 401 214 410 q 181 370 200 394 q 142 318 163 346 q 117 285 121 290 z "},"¬":{"ha":600,"x_min":47,"x_max":553,"o":"m 494 135 l 494 351 l 47 351 l 47 410 l 553 410 l 553 135 l 494 135 z "},"­":{"ha":426,"x_min":47,"x_max":378,"o":"m 238 300 l 138 301 q 83 299 94 301 q 58 302 69 293 q 47 325 47 311 q 67 356 47 350 q 138 361 86 361 l 238 360 q 338 367 314 360 q 347 369 343 369 q 369 360 360 369 q 378 339 378 350 q 238 300 378 294 z "},"®":{"ha":717,"x_min":69,"x_max":647,"o":"m 353 322 q 148 403 226 322 q 69 619 69 485 q 151 838 69 747 q 371 929 232 929 q 573 843 499 929 q 647 636 647 757 q 569 415 647 508 q 353 322 492 322 m 353 372 q 528 448 467 372 q 589 636 589 524 q 530 809 589 739 q 371 879 471 879 q 192 804 257 879 q 128 619 128 729 q 190 437 128 501 q 353 372 253 372 m 317 649 l 310 617 q 294 535 294 546 q 303 492 294 517 q 304 476 304 486 q 274 458 304 458 q 233 535 233 458 q 249 625 233 564 q 261 711 261 679 q 260 742 261 717 q 260 775 260 767 q 272 793 260 789 q 311 801 282 799 q 424 778 378 806 q 469 694 469 751 q 417 618 469 638 q 451 578 440 606 q 459 553 454 572 q 470 520 464 535 q 483 500 476 506 q 490 478 490 489 q 458 460 490 460 q 427 473 439 460 q 406 519 415 486 q 350 592 389 590 q 338 599 344 592 q 331 618 331 607 q 350 644 331 644 q 406 693 406 647 q 379 733 406 719 q 324 744 353 746 q 325 715 325 728 q 317 649 325 703 z "},"¯":{"ha":329,"x_min":33,"x_max":294,"o":"m 256 660 q 282 656 269 664 q 294 639 294 649 q 271 610 294 613 q 167 597 221 597 q 117 600 160 597 q 64 603 74 603 q 42 610 51 603 q 33 626 33 617 q 42 647 33 638 q 64 656 51 656 q 114 653 71 656 q 167 650 157 650 q 256 660 208 650 z "},"°":{"ha":333,"x_min":67,"x_max":308,"o":"m 189 833 q 274 798 239 833 q 308 713 308 763 q 274 626 308 661 q 189 592 239 592 q 102 626 138 592 q 67 713 67 661 q 102 798 67 763 q 189 833 138 833 m 240 765 q 230 776 240 765 q 189 788 219 788 q 138 765 158 788 q 117 713 117 743 q 138 660 117 682 q 189 638 158 638 q 240 660 219 638 q 261 713 261 682 q 240 765 261 743 z "},"±":{"ha":600,"x_min":47,"x_max":553,"o":"m 271 360 l 271 540 l 329 540 l 329 360 l 553 360 l 553 301 l 329 301 l 329 117 l 271 117 l 271 301 l 47 301 l 47 360 l 271 360 m 47 10 l 47 68 l 553 68 l 553 10 l 47 10 z "},"²":{"ha":444,"x_min":29,"x_max":443,"o":"m 192 726 l 192 728 q 186 746 186 735 q 194 765 186 757 q 213 774 201 774 q 238 759 228 774 q 247 726 247 744 q 225 672 247 696 q 168 647 203 647 q 105 674 132 647 q 78 739 78 700 q 126 847 78 803 q 242 892 174 892 q 344 852 307 892 q 381 751 381 813 q 351 631 381 696 q 269 517 321 567 q 336 493 310 493 q 392 553 392 493 q 417 582 392 582 q 443 546 443 582 q 413 469 443 497 q 336 440 382 440 q 226 485 283 440 q 117 446 169 446 q 55 465 81 446 q 29 515 29 485 q 56 574 29 550 q 119 597 82 597 q 225 546 161 597 q 297 644 269 586 q 325 751 325 703 q 304 814 325 789 q 240 839 283 839 q 163 810 192 839 q 133 739 133 782 q 144 710 133 721 q 168 700 154 700 q 192 726 192 700 m 117 500 q 181 517 151 500 q 119 546 146 546 q 83 518 83 546 q 93 506 83 511 q 117 500 103 500 z "},"³":{"ha":375,"x_min":42,"x_max":372,"o":"m 185 444 q 75 485 108 444 q 42 575 42 526 q 50 594 42 586 q 68 601 58 601 q 88 594 81 601 q 96 575 96 586 q 117 519 96 542 q 185 496 140 496 q 278 525 242 496 q 315 600 315 554 q 304 650 315 633 q 199 608 260 608 q 140 628 163 608 q 117 675 117 647 q 144 724 117 704 q 213 744 171 744 q 293 728 260 744 q 301 772 301 747 q 285 819 301 797 q 226 840 268 840 q 178 826 201 840 q 149 788 156 813 q 124 767 142 767 q 104 776 113 767 q 96 796 96 785 q 133 858 96 824 q 226 893 171 893 q 324 859 290 893 q 357 772 357 825 q 338 696 357 732 q 372 600 372 663 q 320 490 372 536 q 185 444 268 444 m 171 675 q 199 660 171 660 q 263 683 235 660 q 213 693 240 693 q 171 675 171 693 z "},"´":{"ha":285,"x_min":38,"x_max":249,"o":"m 174 694 q 188 706 176 696 q 207 722 200 717 q 211 723 208 722 q 216 724 214 724 q 220 726 218 725 q 224 726 222 726 q 249 703 249 726 q 221 660 249 682 q 153 607 204 647 q 83 554 101 567 q 58 546 72 546 q 44 554 50 546 q 38 571 38 563 q 49 594 38 586 q 174 694 156 679 z "},"µ":{"ha":531,"x_min":4,"x_max":475,"o":"m 193 447 l 193 443 q 163 182 163 247 q 219 54 163 54 q 330 156 278 54 q 414 433 382 258 q 449 458 419 465 q 475 429 475 454 q 472 410 475 428 q 469 389 469 392 q 435 129 435 206 q 447 44 435 71 q 451 31 451 36 q 442 8 451 17 q 419 -1 433 -1 q 374 118 378 -1 q 219 -7 313 -7 q 129 57 156 -7 q 63 -232 92 -168 q 35 -250 54 -250 q 13 -241 22 -250 q 4 -219 4 -232 q 5 -212 4 -217 q 6 -207 6 -208 q 100 256 49 -112 q 104 289 103 278 q 133 460 126 446 q 161 479 143 479 q 184 469 175 479 q 193 447 193 460 z "},"¶":{"ha":750,"x_min":64,"x_max":761,"o":"m 428 682 q 449 674 442 682 q 460 650 457 667 q 465 621 464 633 q 465 586 465 608 q 421 319 465 521 q 363 -72 363 61 q 368 -128 363 -111 q 372 -142 372 -133 q 363 -164 372 -156 q 342 -172 354 -172 q 300 -72 300 -172 q 361 336 300 43 q 404 586 404 551 q 399 639 404 629 q 396 650 396 647 q 415 679 396 672 q 428 682 421 682 m 594 654 q 616 647 608 654 q 627 622 624 639 q 631 593 631 606 q 632 558 632 581 q 592 311 632 515 q 536 -72 536 26 q 542 -128 536 -111 q 546 -142 546 -133 q 537 -164 546 -156 q 515 -172 528 -172 q 474 -72 474 -172 q 526 304 474 19 q 544 388 531 326 q 564 492 557 450 q 571 558 571 533 q 565 611 571 601 q 563 622 563 619 q 582 651 563 644 q 594 654 588 654 m 761 701 q 751 679 761 689 q 731 669 742 669 q 710 675 718 669 q 698 690 703 681 q 690 703 693 700 q 603 753 664 731 q 446 776 542 776 q 219 710 311 776 q 126 544 126 643 q 168 431 126 474 q 272 388 210 388 q 293 379 285 388 q 301 360 301 371 q 293 339 301 347 q 271 331 285 331 q 127 388 190 331 q 64 544 64 444 q 173 751 64 668 q 447 833 282 833 q 671 790 581 833 q 761 701 761 746 z "},"·":{"ha":181,"x_min":61,"x_max":140,"o":"m 64 321 l 69 368 q 110 393 75 397 q 132 381 124 392 q 139 358 140 371 l 132 311 q 97 286 128 286 q 71 296 81 286 q 64 321 61 306 z "},"¸":{"ha":338,"x_min":74,"x_max":268,"o":"m 158 -253 q 102 -242 131 -253 q 74 -211 74 -231 q 81 -190 74 -199 q 101 -181 89 -181 q 121 -186 111 -181 q 164 -200 139 -200 q 196 -188 179 -200 q 213 -160 213 -176 q 172 -110 213 -129 q 166 -108 171 -110 q 160 -104 161 -106 q 154 -101 158 -103 q 148 -97 150 -99 q 142 -92 146 -94 q 138 -85 139 -89 q 136 -78 138 -82 q 135 -68 135 -74 q 171 -10 135 -51 l 203 22 l 250 4 l 190 -64 q 268 -158 268 -87 q 233 -225 268 -197 q 158 -253 197 -253 z "},"¹":{"ha":361,"x_min":33,"x_max":343,"o":"m 239 721 l 239 686 q 242 618 239 669 q 244 544 244 567 q 199 450 244 450 q 180 459 188 450 q 172 479 172 468 q 181 504 172 485 q 189 544 189 524 q 185 630 189 565 q 182 706 182 694 q 61 693 125 693 q 33 718 33 693 q 42 737 33 729 q 61 744 50 744 q 186 760 131 746 q 214 856 190 817 q 276 894 238 894 q 326 876 308 894 q 343 833 343 858 q 239 721 343 756 m 278 840 q 243 779 256 840 q 289 832 289 803 q 278 840 289 840 z "},"º":{"ha":425,"x_min":56,"x_max":381,"o":"m 150 782 q 180 864 150 829 q 256 899 210 899 q 346 855 311 899 q 381 740 381 811 q 327 566 381 643 q 190 489 274 489 q 92 538 129 489 q 56 667 56 586 q 69 763 56 713 q 99 786 74 786 q 121 777 113 786 q 129 756 129 768 q 128 747 129 750 q 118 667 118 704 q 136 581 118 615 q 192 546 154 546 q 283 605 247 546 q 318 740 318 664 q 256 842 318 842 q 224 826 238 842 q 211 786 211 810 q 251 753 211 753 q 281 725 281 753 q 244 696 281 696 q 178 720 206 696 q 150 782 150 744 m 238 389 l 157 389 q 115 388 124 389 q 90 394 100 385 q 79 418 79 404 q 83 435 79 429 q 99 444 88 442 q 122 447 111 446 q 157 447 133 447 l 238 446 q 315 453 299 446 q 325 456 324 456 q 347 446 338 456 q 356 424 356 436 q 349 403 356 411 q 322 393 342 396 q 288 390 303 390 q 238 389 272 389 z "},"»":{"ha":458,"x_min":51,"x_max":422,"o":"m 411 274 l 363 231 q 283 163 303 182 q 263 154 275 154 q 240 163 249 154 q 231 185 231 172 q 240 206 231 197 q 351 301 246 211 l 301 351 q 255 401 263 392 q 247 421 247 411 q 256 444 247 435 q 278 453 265 453 q 301 443 289 453 q 347 394 326 413 q 422 297 422 315 q 411 274 422 285 m 247 290 q 83 156 117 156 q 60 165 69 156 q 51 188 51 174 q 69 215 51 204 q 182 308 111 235 q 176 315 179 311 q 169 322 174 318 q 161 329 164 326 q 82 399 117 374 q 68 424 68 410 q 77 447 68 438 q 100 456 86 456 q 144 428 113 456 q 206 370 175 401 q 242 336 238 339 q 254 311 254 329 q 247 290 254 300 z "},"¼":{"ha":1000,"x_min":33,"x_max":950,"o":"m 239 721 l 239 686 q 242 618 239 669 q 244 544 244 567 q 199 450 244 450 q 180 459 188 450 q 172 479 172 468 q 181 504 172 485 q 189 544 189 524 q 185 630 189 565 q 182 706 182 694 q 61 693 125 693 q 33 718 33 693 q 42 737 33 729 q 61 744 50 744 q 186 760 131 746 q 214 856 190 817 q 276 894 238 894 q 326 876 308 894 q 343 833 343 858 q 239 721 343 756 m 278 840 q 243 779 256 840 q 289 832 289 803 q 278 840 289 840 m 788 -3 q 760 8 767 -4 q 753 46 753 21 q 760 114 753 51 q 671 144 744 118 q 651 152 664 147 q 631 160 638 157 q 522 111 572 111 q 472 132 490 111 q 454 178 454 153 q 475 226 454 204 q 529 249 496 249 q 617 225 564 249 q 674 297 649 254 q 699 376 699 339 q 688 398 699 389 q 663 408 678 407 l 649 407 q 638 412 643 406 q 633 428 633 418 q 675 454 633 454 q 734 432 713 454 q 756 382 756 410 q 668 203 756 296 q 768 167 728 176 q 792 271 776 203 q 807 357 807 342 q 806 376 807 374 q 804 383 804 379 q 833 399 804 399 q 864 361 864 399 q 856 304 864 342 q 840 235 854 299 q 824 158 826 171 q 867 154 847 154 q 913 179 897 154 q 926 185 917 185 q 950 163 950 185 q 928 122 950 142 q 867 101 906 101 q 815 106 844 101 q 811 44 811 64 q 814 19 811 24 q 817 13 817 14 q 788 -3 817 -3 m 510 175 q 517 165 510 169 q 531 161 524 160 q 582 186 551 161 q 533 200 558 200 q 510 175 510 194 m 189 8 l 189 15 q 260 199 207 88 q 359 389 314 310 q 492 618 404 468 q 644 875 614 826 q 672 892 656 892 q 689 883 682 892 q 696 863 696 874 q 686 838 696 853 q 538 589 646 768 q 240 0 278 153 q 227 -19 238 -12 q 207 -22 217 -25 q 189 8 189 -14 z "},"½":{"ha":903,"x_min":33,"x_max":860,"o":"m 239 721 l 239 686 q 242 618 239 669 q 244 544 244 567 q 199 450 244 450 q 180 459 188 450 q 172 479 172 468 q 181 504 172 485 q 189 544 189 524 q 185 630 189 565 q 182 706 182 694 q 61 693 125 693 q 33 718 33 693 q 42 737 33 729 q 61 744 50 744 q 186 760 131 746 q 214 856 190 817 q 276 894 238 894 q 326 876 308 894 q 343 833 343 858 q 239 721 343 756 m 278 840 q 243 779 256 840 q 289 832 289 803 q 278 840 289 840 m 608 268 l 608 269 q 603 288 603 276 q 610 307 603 299 q 629 315 618 315 q 654 301 644 315 q 664 268 664 286 q 642 213 664 238 q 585 189 619 189 q 522 215 549 189 q 494 281 494 242 q 542 389 494 344 q 658 433 590 433 q 760 394 724 433 q 797 293 797 354 q 767 173 797 238 q 686 58 738 108 q 753 35 726 35 q 808 94 808 35 q 833 124 808 124 q 860 88 860 124 q 829 10 860 39 q 753 -18 799 -18 q 643 26 700 -18 q 533 -12 586 -12 q 472 7 497 -12 q 446 57 446 26 q 472 115 446 92 q 536 139 499 139 q 642 88 578 139 q 714 186 686 128 q 742 293 742 244 q 721 356 742 331 q 657 381 700 381 q 579 352 608 381 q 550 281 550 324 q 560 252 550 263 q 585 242 571 242 q 608 268 608 242 m 533 42 q 597 58 568 42 q 536 88 563 88 q 500 60 500 88 q 510 47 500 53 q 533 42 519 42 m 168 8 l 168 15 q 240 199 186 88 q 338 389 293 310 q 471 618 383 468 q 624 875 593 826 q 651 892 635 892 q 668 883 661 892 q 675 863 675 874 q 665 838 675 853 q 517 589 625 768 q 219 0 254 149 q 206 -19 217 -12 q 186 -22 196 -25 q 168 8 168 -14 z "},"¾":{"ha":1000,"x_min":42,"x_max":950,"o":"m 185 444 q 75 485 108 444 q 42 575 42 526 q 50 594 42 586 q 68 601 58 601 q 88 594 81 601 q 96 575 96 586 q 117 519 96 542 q 185 496 140 496 q 278 525 242 496 q 315 600 315 554 q 304 650 315 633 q 199 608 260 608 q 140 628 163 608 q 117 675 117 647 q 144 724 117 704 q 213 744 171 744 q 293 728 260 744 q 301 772 301 747 q 285 819 301 797 q 226 840 268 840 q 178 826 201 840 q 149 788 156 813 q 124 767 142 767 q 104 776 113 767 q 96 796 96 785 q 133 858 96 824 q 226 893 171 893 q 324 859 290 893 q 357 772 357 825 q 338 696 357 732 q 372 600 372 663 q 320 490 372 536 q 185 444 268 444 m 171 675 q 199 660 171 660 q 263 683 235 660 q 213 693 240 693 q 171 675 171 693 m 788 -3 q 760 8 767 -4 q 753 46 753 21 q 760 114 753 51 q 671 144 744 118 q 651 152 664 147 q 631 160 638 157 q 522 111 572 111 q 472 132 490 111 q 454 178 454 153 q 475 226 454 204 q 529 249 496 249 q 617 225 564 249 q 674 297 649 254 q 699 376 699 339 q 688 398 699 389 q 663 408 678 407 l 649 407 q 638 412 643 406 q 633 428 633 418 q 675 454 633 454 q 734 432 713 454 q 756 382 756 410 q 668 203 756 296 q 768 167 728 176 q 792 271 776 203 q 807 357 807 342 q 806 376 807 374 q 804 383 804 379 q 833 399 804 399 q 864 361 864 399 q 856 304 864 342 q 840 235 854 299 q 824 158 826 171 q 867 154 847 154 q 913 179 897 154 q 926 185 917 185 q 950 163 950 185 q 928 122 950 142 q 867 101 906 101 q 815 106 844 101 q 811 44 811 64 q 814 19 811 24 q 817 13 817 14 q 788 -3 817 -3 m 510 175 q 517 165 510 169 q 531 161 524 160 q 582 186 551 161 q 533 200 558 200 q 510 175 510 194 m 217 8 l 217 15 q 288 199 235 88 q 387 389 342 310 q 519 618 432 468 q 672 875 642 826 q 700 892 683 892 q 717 883 710 892 q 724 863 724 874 q 714 838 724 853 q 565 589 674 768 q 268 0 306 153 q 255 -19 265 -12 q 235 -22 244 -25 q 217 8 217 -14 z "},"¿":{"ha":590,"x_min":38,"x_max":590,"o":"m 310 339 q 356 300 333 339 q 378 217 378 261 q 343 115 378 158 q 238 19 308 71 q 136 -78 172 -28 q 100 -206 100 -129 q 147 -308 100 -267 q 272 -349 193 -349 q 322 -343 300 -349 q 256 -217 256 -303 q 289 -126 256 -161 q 367 -92 322 -92 q 446 -124 411 -92 q 481 -217 481 -157 q 438 -322 481 -281 q 495 -309 469 -324 q 531 -279 521 -294 q 558 -257 544 -257 q 590 -286 590 -257 q 544 -347 590 -317 q 432 -378 497 -378 q 388 -372 404 -378 q 265 -404 331 -404 q 92 -342 154 -404 q 38 -204 38 -287 q 83 -48 38 -110 q 214 75 129 14 q 291 144 265 113 q 317 217 317 176 q 289 285 317 263 q 279 308 279 297 q 288 330 279 321 q 310 339 297 339 m 354 469 l 347 426 q 307 400 343 396 q 285 412 293 401 q 278 435 276 422 l 286 481 q 318 507 292 507 q 347 496 336 507 q 354 469 357 485 m 317 -217 q 375 -317 317 -285 q 419 -217 419 -279 q 403 -165 419 -182 q 364 -149 386 -149 q 331 -167 346 -149 q 317 -217 317 -185 z "},"À":{"ha":919,"x_min":28,"x_max":878,"o":"m 682 506 q 827 367 776 451 q 878 189 878 283 q 831 32 878 86 q 721 -22 783 -22 q 646 7 672 -22 q 597 196 597 57 q 618 474 597 251 q 396 519 522 519 q 279 510 342 519 q 238 263 244 390 q 366 292 311 260 q 421 376 421 324 q 450 407 421 407 q 472 399 463 407 q 481 376 481 390 q 409 251 481 300 q 236 206 338 203 q 267 40 236 82 q 275 21 275 32 q 266 -1 275 8 q 243 -10 257 -10 q 193 51 213 -10 q 175 213 174 111 q 65 268 101 228 q 28 363 28 308 q 82 481 28 431 q 231 557 136 532 q 349 797 276 704 q 517 889 421 889 q 625 847 586 889 q 688 615 688 786 q 682 506 688 557 m 658 196 q 724 33 658 33 q 791 78 765 33 q 817 189 817 122 q 779 333 817 267 q 678 442 742 399 q 658 196 658 254 m 517 832 q 301 571 393 832 q 396 578 350 578 q 622 535 517 578 q 626 617 626 576 q 581 807 626 761 q 517 832 556 832 m 214 492 q 126 439 161 472 q 90 363 90 406 q 176 269 90 294 q 214 492 181 369 m 399 1129 l 415 1125 q 458 1099 428 1115 q 588 1011 536 1056 q 599 988 599 1003 q 589 972 599 979 q 567 964 579 964 q 547 971 554 964 q 426 1051 507 1007 q 376 1082 385 1075 q 367 1099 367 1089 q 376 1120 367 1111 q 399 1129 386 1129 z "},"Á":{"ha":919,"x_min":28,"x_max":878,"o":"m 682 506 q 827 367 776 451 q 878 189 878 283 q 831 32 878 86 q 721 -22 783 -22 q 646 7 672 -22 q 597 196 597 57 q 618 474 597 251 q 396 519 522 519 q 279 510 342 519 q 238 263 244 390 q 366 292 311 260 q 421 376 421 324 q 450 407 421 407 q 472 399 463 407 q 481 376 481 390 q 409 251 481 300 q 236 206 338 203 q 267 40 236 82 q 275 21 275 32 q 266 -1 275 8 q 243 -10 257 -10 q 193 51 213 -10 q 175 213 174 111 q 65 268 101 228 q 28 363 28 308 q 82 481 28 431 q 231 557 136 532 q 349 797 276 704 q 517 889 421 889 q 625 847 586 889 q 688 615 688 786 q 682 506 688 557 m 658 196 q 724 33 658 33 q 791 78 765 33 q 817 189 817 122 q 779 333 817 267 q 678 442 742 399 q 658 196 658 254 m 517 832 q 301 571 393 832 q 396 578 350 578 q 622 535 517 578 q 626 617 626 576 q 581 807 626 761 q 517 832 556 832 m 214 492 q 126 439 161 472 q 90 363 90 406 q 176 269 90 294 q 214 492 181 369 m 658 1122 q 678 1129 665 1129 q 700 1122 690 1129 q 710 1106 710 1114 q 699 1082 710 1090 q 569 994 647 1038 q 526 968 539 978 q 522 967 525 968 q 517 966 519 967 q 513 965 515 965 q 510 964 511 964 q 488 972 497 964 q 478 988 478 981 q 487 1010 478 1001 q 538 1042 496 1018 q 658 1122 618 1086 z "},"Â":{"ha":919,"x_min":28,"x_max":878,"o":"m 682 506 q 827 367 776 451 q 878 189 878 283 q 831 32 878 86 q 721 -22 783 -22 q 646 7 672 -22 q 597 196 597 57 q 618 474 597 251 q 396 519 522 519 q 279 510 342 519 q 238 263 244 390 q 366 292 311 260 q 421 376 421 324 q 450 407 421 407 q 472 399 463 407 q 481 376 481 390 q 409 251 481 300 q 236 206 338 203 q 267 40 236 82 q 275 21 275 32 q 266 -1 275 8 q 243 -10 257 -10 q 193 51 213 -10 q 175 213 174 111 q 65 268 101 228 q 28 363 28 308 q 82 481 28 431 q 231 557 136 532 q 349 797 276 704 q 517 889 421 889 q 625 847 586 889 q 688 615 688 786 q 682 506 688 557 m 658 196 q 724 33 658 33 q 791 78 765 33 q 817 189 817 122 q 779 333 817 267 q 678 442 742 399 q 658 196 658 254 m 517 832 q 301 571 393 832 q 396 578 350 578 q 622 535 517 578 q 626 617 626 576 q 581 807 626 761 q 517 832 556 832 m 214 492 q 126 439 161 472 q 90 363 90 406 q 176 269 90 294 q 214 492 181 369 m 533 1122 q 554 1114 546 1122 q 663 1031 638 1047 q 678 1004 678 1022 q 668 988 678 996 q 646 981 658 981 q 531 1064 626 981 q 419 997 475 1035 q 403 993 415 993 q 381 1001 390 993 q 371 1017 371 1008 q 385 1042 371 1032 q 467 1091 411 1060 q 533 1122 524 1122 z "},"Ã":{"ha":919,"x_min":28,"x_max":878,"o":"m 682 506 q 827 367 776 451 q 878 189 878 283 q 831 32 878 86 q 721 -22 783 -22 q 646 7 672 -22 q 597 196 597 57 q 618 474 597 251 q 396 519 522 519 q 279 510 342 519 q 238 263 244 390 q 366 292 311 260 q 421 376 421 324 q 450 407 421 407 q 472 399 463 407 q 481 376 481 390 q 409 251 481 300 q 236 206 338 203 q 267 40 236 82 q 275 21 275 32 q 266 -1 275 8 q 243 -10 257 -10 q 193 51 213 -10 q 175 213 174 111 q 65 268 101 228 q 28 363 28 308 q 82 481 28 431 q 231 557 136 532 q 349 797 276 704 q 517 889 421 889 q 625 847 586 889 q 688 615 688 786 q 682 506 688 557 m 658 196 q 724 33 658 33 q 791 78 765 33 q 817 189 817 122 q 779 333 817 267 q 678 442 742 399 q 658 196 658 254 m 517 832 q 301 571 393 832 q 396 578 350 578 q 622 535 517 578 q 626 617 626 576 q 581 807 626 761 q 517 832 556 832 m 214 492 q 126 439 161 472 q 90 363 90 406 q 176 269 90 294 q 214 492 181 369 m 438 1086 q 517 1065 481 1086 q 582 1039 563 1039 q 628 1068 614 1039 q 653 1085 635 1085 q 669 1079 663 1085 q 676 1054 676 1074 q 650 1011 676 1035 q 582 988 624 988 q 489 1018 531 988 q 438 1035 463 1035 q 378 994 399 1035 q 353 979 369 979 q 336 988 344 979 q 328 1010 328 997 q 360 1058 328 1031 q 438 1086 392 1086 z "},"Ä":{"ha":919,"x_min":28,"x_max":878,"o":"m 682 506 q 827 367 776 451 q 878 189 878 283 q 831 32 878 86 q 721 -22 783 -22 q 646 7 672 -22 q 597 196 597 57 q 618 474 597 251 q 396 519 522 519 q 279 510 342 519 q 238 263 244 390 q 366 292 311 260 q 421 376 421 324 q 450 407 421 407 q 472 399 463 407 q 481 376 481 390 q 409 251 481 300 q 236 206 338 203 q 267 40 236 82 q 275 21 275 32 q 266 -1 275 8 q 243 -10 257 -10 q 193 51 213 -10 q 175 213 174 111 q 65 268 101 228 q 28 363 28 308 q 82 481 28 431 q 231 557 136 532 q 349 797 276 704 q 517 889 421 889 q 625 847 586 889 q 688 615 688 786 q 682 506 688 557 m 658 196 q 724 33 658 33 q 791 78 765 33 q 817 189 817 122 q 779 333 817 267 q 678 442 742 399 q 658 196 658 254 m 517 832 q 301 571 393 832 q 396 578 350 578 q 622 535 517 578 q 626 617 626 576 q 581 807 626 761 q 517 832 556 832 m 214 492 q 126 439 161 472 q 90 363 90 406 q 176 269 90 294 q 214 492 181 369 m 617 1068 l 617 1058 q 618 1049 617 1057 q 619 1039 619 1040 q 610 1017 619 1026 q 589 1008 601 1008 q 561 1026 567 1008 q 556 1081 556 1044 q 554 1092 556 1083 q 553 1103 553 1101 q 562 1124 553 1115 q 583 1133 571 1133 q 617 1068 619 1133 m 467 1068 l 467 1058 q 468 1049 467 1057 q 469 1039 469 1040 q 460 1017 469 1026 q 439 1008 451 1008 q 411 1026 417 1008 q 406 1081 406 1044 q 404 1092 406 1083 q 403 1103 403 1101 q 412 1124 403 1115 q 433 1133 421 1133 q 467 1068 469 1133 z "},"Å":{"ha":919,"x_min":28,"x_max":878,"o":"m 682 506 q 827 367 776 451 q 878 189 878 283 q 831 32 878 86 q 721 -22 783 -22 q 646 7 672 -22 q 597 196 597 57 q 618 474 597 251 q 396 519 522 519 q 279 510 342 519 q 238 263 244 390 q 366 292 311 260 q 421 376 421 324 q 450 407 421 407 q 472 399 463 407 q 481 376 481 390 q 409 251 481 300 q 236 206 338 203 q 267 40 236 82 q 275 21 275 32 q 266 -1 275 8 q 243 -10 257 -10 q 193 51 213 -10 q 175 213 174 111 q 65 268 101 228 q 28 363 28 308 q 82 481 28 431 q 231 557 136 532 q 349 797 276 704 q 517 889 421 889 q 625 847 586 889 q 688 615 688 786 q 682 506 688 557 m 658 196 q 724 33 658 33 q 791 78 765 33 q 817 189 817 122 q 779 333 817 267 q 678 442 742 399 q 658 196 658 254 m 517 832 q 301 571 393 832 q 396 578 350 578 q 622 535 517 578 q 626 617 626 576 q 581 807 626 761 q 517 832 556 832 m 214 492 q 126 439 161 472 q 90 363 90 406 q 176 269 90 294 q 214 492 181 369 m 526 1017 q 573 1036 556 1017 q 590 1083 590 1056 q 588 1097 590 1089 q 576 1113 585 1104 q 553 1121 567 1121 q 531 1129 540 1121 q 521 1147 521 1138 q 551 1172 521 1172 q 619 1147 593 1174 q 646 1083 646 1121 q 610 1000 646 1036 q 526 964 575 964 q 440 993 472 964 q 407 1067 407 1022 q 429 1130 407 1100 q 472 1160 451 1160 q 504 1136 504 1160 q 485 1111 504 1124 q 469 1093 478 1107 q 461 1068 461 1079 q 481 1029 461 1042 q 526 1017 501 1017 z "},"Æ":{"ha":1496,"x_min":29,"x_max":1443,"o":"m 654 493 l 669 478 q 949 607 813 528 q 1015 803 951 714 q 1165 893 1079 893 q 1253 811 1253 893 q 1011 575 1253 711 q 1022 526 1014 551 q 1183 560 1097 560 q 1309 526 1269 560 q 1349 449 1349 493 q 1310 378 1349 407 q 1217 349 1272 349 q 1000 446 1076 349 q 910 275 910 379 q 979 115 910 176 q 1101 210 1021 175 q 1250 246 1182 246 q 1396 206 1349 246 q 1443 114 1443 167 q 1392 16 1443 56 q 1244 -24 1342 -24 q 993 35 1100 -24 q 957 -92 960 -14 l 958 -112 q 949 -135 958 -126 q 926 -143 940 -143 q 897 -90 897 -143 q 943 67 897 -8 q 849 275 849 144 q 969 496 849 415 q 954 546 964 510 q 704 433 847 483 q 781 176 781 325 q 672 -22 781 -22 q 618 1 642 -22 q 569 196 569 49 q 582 390 569 271 q 333 346 451 346 q 219 353 253 346 q 208 210 211 293 q 240 40 208 82 q 247 21 247 31 q 238 -1 247 8 q 215 -10 229 -10 q 167 50 186 -10 q 147 210 147 110 q 160 363 147 293 q 29 490 29 394 q 85 592 29 546 q 235 646 142 638 q 490 889 338 889 q 599 847 557 889 q 660 615 660 786 q 654 493 660 550 m 278 589 q 229 408 246 510 q 333 401 271 401 q 588 447 458 401 q 589 478 589 453 q 278 589 468 586 m 214 586 q 124 550 156 576 q 92 492 92 524 q 169 419 92 438 q 214 586 183 506 m 599 615 q 574 775 597 721 q 486 829 551 829 q 385 778 433 829 q 300 644 338 728 q 596 544 471 636 q 599 615 599 594 m 1244 33 q 1344 55 1307 33 q 1381 114 1381 76 q 1347 167 1381 144 q 1250 189 1314 189 q 1131 163 1192 189 q 1026 85 1069 138 q 1244 33 1110 33 m 1285 449 q 1183 503 1285 503 q 1049 474 1111 503 q 1217 406 1111 406 q 1265 419 1246 406 q 1285 449 1285 432 m 1165 836 q 1069 778 1115 836 q 1014 640 1024 721 q 1140 733 1090 685 q 1190 808 1190 781 q 1165 836 1190 836 m 675 38 q 718 176 718 38 q 649 413 718 314 q 646 411 647 413 q 631 196 631 243 q 638 106 631 143 q 654 53 644 68 q 675 38 664 38 z "},"Ç":{"ha":835,"x_min":54,"x_max":794,"o":"m 367 -24 l 375 -14 q 140 122 225 8 q 54 399 54 235 q 164 720 54 583 q 446 875 274 857 q 527 975 472 939 q 647 1011 582 1011 q 726 974 726 1011 q 696 946 726 946 q 672 949 693 946 q 647 951 651 951 q 517 876 558 951 q 719 797 644 869 q 794 631 794 725 q 756 528 794 569 q 650 486 718 486 q 511 550 575 486 q 426 778 426 632 q 429 814 426 792 q 201 669 288 788 q 115 399 115 550 q 203 142 115 243 q 443 40 290 40 q 717 165 631 40 q 743 179 726 179 q 763 170 754 179 q 772 147 772 161 q 761 121 772 139 q 723 78 750 103 q 660 33 696 54 q 566 -4 624 11 q 443 -19 508 -19 l 435 -19 l 388 -68 q 420 -83 408 -76 q 447 -113 432 -90 q 463 -165 463 -136 q 425 -238 463 -210 q 339 -267 388 -267 q 279 -254 306 -267 q 253 -218 253 -242 q 260 -202 253 -210 q 275 -194 268 -194 q 294 -200 285 -194 q 338 -214 317 -214 q 407 -165 407 -214 q 399 -142 407 -153 q 383 -127 392 -132 q 360 -115 375 -122 q 329 -75 329 -99 q 335 -58 329 -67 q 351 -39 340 -50 q 367 -24 363 -28 m 650 546 q 731 631 731 546 q 666 761 731 706 q 493 819 601 817 q 489 778 489 800 q 541 610 489 674 q 650 546 593 546 z "},"È":{"ha":726,"x_min":39,"x_max":674,"o":"m 419 246 q 599 202 525 246 q 674 88 674 158 q 629 0 674 38 q 481 -37 585 -37 q 292 -5 381 -37 q 149 93 203 28 q 100 -18 104 49 q 69 -47 97 -47 q 48 -38 57 -47 q 39 -17 39 -29 q 114 147 39 76 q 83 281 83 215 q 197 524 83 432 q 183 603 183 563 q 210 719 183 663 q 288 815 238 776 q 261 910 261 861 q 270 933 261 924 q 293 942 279 942 q 313 933 304 942 q 322 910 322 924 q 339 844 322 878 q 401 865 368 858 q 474 874 435 874 q 599 842 553 874 q 646 761 646 810 q 615 695 646 721 q 538 669 585 669 q 425 696 485 669 q 322 768 365 722 q 246 603 246 706 q 251 560 246 578 q 408 597 322 597 q 562 560 501 597 q 622 465 622 524 q 617 436 622 451 q 599 399 613 421 q 551 365 586 378 q 467 351 517 351 q 323 383 386 351 q 224 468 260 414 q 146 281 146 396 q 165 183 146 235 q 419 246 271 246 m 611 88 q 553 159 611 129 q 419 189 494 189 q 194 131 285 189 q 316 48 239 78 q 481 18 393 18 q 576 38 540 18 q 611 88 611 57 m 561 464 q 517 517 561 494 q 407 539 472 539 q 271 503 314 539 q 351 435 300 461 q 465 408 401 408 q 561 464 561 408 m 474 817 q 374 797 415 817 q 453 746 407 767 q 538 725 500 725 q 570 735 556 725 q 585 761 585 744 q 553 801 585 786 q 474 817 522 817 m 308 1129 l 325 1125 q 368 1099 338 1115 q 497 1011 446 1056 q 508 988 508 1003 q 499 972 508 979 q 476 964 489 964 q 457 971 464 964 q 336 1051 417 1007 q 285 1082 294 1075 q 276 1099 276 1089 q 285 1120 276 1111 q 308 1129 294 1129 z "},"É":{"ha":726,"x_min":39,"x_max":674,"o":"m 419 246 q 599 202 525 246 q 674 88 674 158 q 629 0 674 38 q 481 -37 585 -37 q 292 -5 381 -37 q 149 93 203 28 q 100 -18 104 49 q 69 -47 97 -47 q 48 -38 57 -47 q 39 -17 39 -29 q 114 147 39 76 q 83 281 83 215 q 197 524 83 432 q 183 603 183 563 q 210 719 183 663 q 288 815 238 776 q 261 910 261 861 q 270 933 261 924 q 293 942 279 942 q 313 933 304 942 q 322 910 322 924 q 339 844 322 878 q 401 865 368 858 q 474 874 435 874 q 599 842 553 874 q 646 761 646 810 q 615 695 646 721 q 538 669 585 669 q 425 696 485 669 q 322 768 365 722 q 246 603 246 706 q 251 560 246 578 q 408 597 322 597 q 562 560 501 597 q 622 465 622 524 q 617 436 622 451 q 599 399 613 421 q 551 365 586 378 q 467 351 517 351 q 323 383 386 351 q 224 468 260 414 q 146 281 146 396 q 165 183 146 235 q 419 246 271 246 m 611 88 q 553 159 611 129 q 419 189 494 189 q 194 131 285 189 q 316 48 239 78 q 481 18 393 18 q 576 38 540 18 q 611 88 611 57 m 561 464 q 517 517 561 494 q 407 539 472 539 q 271 503 314 539 q 351 435 300 461 q 465 408 401 408 q 561 464 561 408 m 474 817 q 374 797 415 817 q 453 746 407 767 q 538 725 500 725 q 570 735 556 725 q 585 761 585 744 q 553 801 585 786 q 474 817 522 817 m 617 1122 q 636 1129 624 1129 q 658 1122 649 1129 q 668 1106 668 1114 q 657 1082 668 1090 q 528 994 606 1038 q 485 968 497 978 q 481 967 483 968 q 476 966 478 967 q 472 965 474 965 q 468 964 469 964 q 446 972 456 964 q 436 988 436 981 q 445 1010 436 1001 q 496 1042 454 1018 q 617 1122 576 1086 z "},"Ê":{"ha":726,"x_min":39,"x_max":674,"o":"m 419 246 q 599 202 525 246 q 674 88 674 158 q 629 0 674 38 q 481 -37 585 -37 q 292 -5 381 -37 q 149 93 203 28 q 100 -18 104 49 q 69 -47 97 -47 q 48 -38 57 -47 q 39 -17 39 -29 q 114 147 39 76 q 83 281 83 215 q 197 524 83 432 q 183 603 183 563 q 210 719 183 663 q 288 815 238 776 q 261 910 261 861 q 270 933 261 924 q 293 942 279 942 q 313 933 304 942 q 322 910 322 924 q 339 844 322 878 q 401 865 368 858 q 474 874 435 874 q 599 842 553 874 q 646 761 646 810 q 615 695 646 721 q 538 669 585 669 q 425 696 485 669 q 322 768 365 722 q 246 603 246 706 q 251 560 246 578 q 408 597 322 597 q 562 560 501 597 q 622 465 622 524 q 617 436 622 451 q 599 399 613 421 q 551 365 586 378 q 467 351 517 351 q 323 383 386 351 q 224 468 260 414 q 146 281 146 396 q 165 183 146 235 q 419 246 271 246 m 611 88 q 553 159 611 129 q 419 189 494 189 q 194 131 285 189 q 316 48 239 78 q 481 18 393 18 q 576 38 540 18 q 611 88 611 57 m 561 464 q 517 517 561 494 q 407 539 472 539 q 271 503 314 539 q 351 435 300 461 q 465 408 401 408 q 561 464 561 408 m 474 817 q 374 797 415 817 q 453 746 407 767 q 538 725 500 725 q 570 735 556 725 q 585 761 585 744 q 553 801 585 786 q 474 817 522 817 m 465 1122 q 486 1114 478 1122 q 594 1031 569 1047 q 610 1004 610 1022 q 600 988 610 996 q 578 981 590 981 q 463 1064 558 981 q 351 997 407 1035 q 335 993 347 993 q 313 1001 322 993 q 303 1017 303 1008 q 317 1042 303 1032 q 399 1091 343 1060 q 465 1122 456 1122 z "},"Ë":{"ha":726,"x_min":39,"x_max":674,"o":"m 419 246 q 599 202 525 246 q 674 88 674 158 q 629 0 674 38 q 481 -37 585 -37 q 292 -5 381 -37 q 149 93 203 28 q 100 -18 104 49 q 69 -47 97 -47 q 48 -38 57 -47 q 39 -17 39 -29 q 114 147 39 76 q 83 281 83 215 q 197 524 83 432 q 183 603 183 563 q 210 719 183 663 q 288 815 238 776 q 261 910 261 861 q 270 933 261 924 q 293 942 279 942 q 313 933 304 942 q 322 910 322 924 q 339 844 322 878 q 401 865 368 858 q 474 874 435 874 q 599 842 553 874 q 646 761 646 810 q 615 695 646 721 q 538 669 585 669 q 425 696 485 669 q 322 768 365 722 q 246 603 246 706 q 251 560 246 578 q 408 597 322 597 q 562 560 501 597 q 622 465 622 524 q 617 436 622 451 q 599 399 613 421 q 551 365 586 378 q 467 351 517 351 q 323 383 386 351 q 224 468 260 414 q 146 281 146 396 q 165 183 146 235 q 419 246 271 246 m 611 88 q 553 159 611 129 q 419 189 494 189 q 194 131 285 189 q 316 48 239 78 q 481 18 393 18 q 576 38 540 18 q 611 88 611 57 m 561 464 q 517 517 561 494 q 407 539 472 539 q 271 503 314 539 q 351 435 300 461 q 465 408 401 408 q 561 464 561 408 m 474 817 q 374 797 415 817 q 453 746 407 767 q 538 725 500 725 q 570 735 556 725 q 585 761 585 744 q 553 801 585 786 q 474 817 522 817 m 549 1068 l 549 1058 q 550 1049 549 1057 q 551 1039 551 1040 q 542 1017 551 1026 q 521 1008 533 1008 q 493 1026 499 1008 q 488 1081 488 1044 q 486 1092 488 1083 q 485 1103 485 1101 q 494 1124 485 1115 q 515 1133 503 1133 q 549 1068 551 1133 m 399 1068 l 399 1058 q 400 1049 399 1057 q 401 1039 401 1040 q 392 1017 401 1026 q 371 1008 383 1008 q 343 1026 349 1008 q 338 1081 338 1044 q 336 1092 338 1083 q 335 1103 335 1101 q 344 1124 335 1115 q 365 1133 353 1133 q 399 1068 401 1133 z "},"Ì":{"ha":613,"x_min":0,"x_max":578,"o":"m 256 664 q 117 697 163 664 q 72 781 72 731 q 112 853 72 824 q 210 882 151 882 q 319 848 271 882 q 386 742 368 814 q 515 864 506 772 q 526 883 517 875 q 546 892 535 892 q 569 881 560 892 q 576 857 578 871 q 532 756 572 804 q 394 683 492 707 q 343 424 401 588 q 338 407 339 413 q 282 203 286 265 q 356 211 329 211 q 516 173 461 211 q 571 79 571 135 q 528 -3 571 29 q 407 -35 485 -35 q 279 10 331 -35 q 219 128 228 54 q 115 68 161 111 q 58 -28 68 25 q 29 -53 54 -53 q 0 -22 0 -53 q 15 34 0 -1 q 84 118 31 69 q 218 188 138 167 q 278 429 218 257 q 333 671 338 588 q 256 664 294 664 m 282 144 q 320 56 286 90 q 408 22 354 22 q 480 37 451 22 q 508 81 508 51 q 466 134 508 114 q 356 154 424 154 q 282 144 325 154 m 325 726 q 210 825 301 825 q 156 813 176 825 q 135 781 135 801 q 169 737 135 753 q 256 721 203 721 q 325 726 290 721 m 203 1129 l 219 1125 q 263 1099 232 1115 q 392 1011 340 1056 q 403 988 403 1003 q 393 972 403 979 q 371 964 383 964 q 351 971 358 964 q 231 1051 311 1007 q 180 1082 189 1075 q 171 1099 171 1089 q 180 1120 171 1111 q 203 1129 189 1129 z "},"Í":{"ha":613,"x_min":0,"x_max":578,"o":"m 256 664 q 117 697 163 664 q 72 781 72 731 q 112 853 72 824 q 210 882 151 882 q 319 848 271 882 q 386 742 368 814 q 515 864 506 772 q 526 883 517 875 q 546 892 535 892 q 569 881 560 892 q 576 857 578 871 q 532 756 572 804 q 394 683 492 707 q 343 424 401 588 q 338 407 339 413 q 282 203 286 265 q 356 211 329 211 q 516 173 461 211 q 571 79 571 135 q 528 -3 571 29 q 407 -35 485 -35 q 279 10 331 -35 q 219 128 228 54 q 115 68 161 111 q 58 -28 68 25 q 29 -53 54 -53 q 0 -22 0 -53 q 15 34 0 -1 q 84 118 31 69 q 218 188 138 167 q 278 429 218 257 q 333 671 338 588 q 256 664 294 664 m 282 144 q 320 56 286 90 q 408 22 354 22 q 480 37 451 22 q 508 81 508 51 q 466 134 508 114 q 356 154 424 154 q 282 144 325 154 m 325 726 q 210 825 301 825 q 156 813 176 825 q 135 781 135 801 q 169 737 135 753 q 256 721 203 721 q 325 726 290 721 m 504 1122 q 524 1129 511 1129 q 546 1122 536 1129 q 556 1106 556 1114 q 544 1082 556 1090 q 415 994 493 1038 q 372 968 385 978 q 368 967 371 968 q 363 966 365 967 q 359 965 361 965 q 356 964 357 964 q 333 972 343 964 q 324 988 324 981 q 333 1010 324 1001 q 383 1042 342 1018 q 504 1122 464 1086 z "},"Î":{"ha":613,"x_min":0,"x_max":578,"o":"m 256 664 q 117 697 163 664 q 72 781 72 731 q 112 853 72 824 q 210 882 151 882 q 319 848 271 882 q 386 742 368 814 q 515 864 506 772 q 526 883 517 875 q 546 892 535 892 q 569 881 560 892 q 576 857 578 871 q 532 756 572 804 q 394 683 492 707 q 343 424 401 588 q 338 407 339 413 q 282 203 286 265 q 356 211 329 211 q 516 173 461 211 q 571 79 571 135 q 528 -3 571 29 q 407 -35 485 -35 q 279 10 331 -35 q 219 128 228 54 q 115 68 161 111 q 58 -28 68 25 q 29 -53 54 -53 q 0 -22 0 -53 q 15 34 0 -1 q 84 118 31 69 q 218 188 138 167 q 278 429 218 257 q 333 671 338 588 q 256 664 294 664 m 282 144 q 320 56 286 90 q 408 22 354 22 q 480 37 451 22 q 508 81 508 51 q 466 134 508 114 q 356 154 424 154 q 282 144 325 154 m 325 726 q 210 825 301 825 q 156 813 176 825 q 135 781 135 801 q 169 737 135 753 q 256 721 203 721 q 325 726 290 721 m 353 1122 q 374 1114 365 1122 q 482 1031 457 1047 q 497 1004 497 1022 q 488 988 497 996 q 465 981 478 981 q 350 1064 446 981 q 239 997 294 1035 q 222 993 235 993 q 200 1001 210 993 q 190 1017 190 1008 q 204 1042 190 1032 q 287 1091 231 1060 q 353 1122 343 1122 z "},"Ï":{"ha":613,"x_min":0,"x_max":578,"o":"m 256 664 q 117 697 163 664 q 72 781 72 731 q 112 853 72 824 q 210 882 151 882 q 319 848 271 882 q 386 742 368 814 q 515 864 506 772 q 526 883 517 875 q 546 892 535 892 q 569 881 560 892 q 576 857 578 871 q 532 756 572 804 q 394 683 492 707 q 343 424 401 588 q 338 407 339 413 q 282 203 286 265 q 356 211 329 211 q 516 173 461 211 q 571 79 571 135 q 528 -3 571 29 q 407 -35 485 -35 q 279 10 331 -35 q 219 128 228 54 q 115 68 161 111 q 58 -28 68 25 q 29 -53 54 -53 q 0 -22 0 -53 q 15 34 0 -1 q 84 118 31 69 q 218 188 138 167 q 278 429 218 257 q 333 671 338 588 q 256 664 294 664 m 282 144 q 320 56 286 90 q 408 22 354 22 q 480 37 451 22 q 508 81 508 51 q 466 134 508 114 q 356 154 424 154 q 282 144 325 154 m 325 726 q 210 825 301 825 q 156 813 176 825 q 135 781 135 801 q 169 737 135 753 q 256 721 203 721 q 325 726 290 721 m 457 1068 l 457 1058 q 458 1049 457 1057 q 460 1039 460 1040 q 451 1017 460 1026 q 429 1008 442 1008 q 401 1026 407 1008 q 396 1081 396 1044 q 394 1092 396 1083 q 393 1103 393 1101 q 402 1124 393 1115 q 424 1133 411 1133 q 457 1068 460 1133 m 307 1068 l 307 1058 q 308 1049 307 1057 q 310 1039 310 1040 q 301 1017 310 1026 q 279 1008 292 1008 q 251 1026 257 1008 q 246 1081 246 1044 q 244 1092 246 1083 q 243 1103 243 1101 q 252 1124 243 1115 q 274 1133 261 1133 q 307 1068 310 1133 z "},"Ð":{"ha":836,"x_min":42,"x_max":813,"o":"m 379 -19 q 281 8 319 -19 q 224 89 242 36 q 202 192 207 142 q 197 314 197 243 q 92 301 119 301 q 57 329 57 301 q 92 358 57 358 q 200 372 124 358 q 211 482 203 435 q 92 531 143 485 q 42 644 42 576 q 147 814 42 746 q 390 882 251 882 q 590 851 504 882 q 722 765 675 819 q 790 646 768 710 q 813 508 813 582 q 781 327 813 419 q 694 157 749 235 q 557 30 640 79 q 379 -19 474 -19 m 381 38 q 574 115 486 38 q 706 300 661 193 q 750 508 750 407 q 743 588 750 550 q 713 672 736 626 q 651 749 689 717 q 544 803 613 782 q 388 825 476 825 q 188 771 272 825 q 104 644 104 717 q 140 568 104 593 q 219 539 176 543 q 256 717 232 632 q 285 739 260 739 q 306 731 297 739 q 314 713 314 722 q 313 699 314 703 q 281 533 299 638 q 390 569 349 536 q 435 640 432 601 q 445 660 436 651 q 467 668 454 668 q 488 659 479 668 q 497 638 497 650 q 440 531 497 585 q 272 476 383 478 q 263 386 263 418 q 490 422 464 422 q 511 414 503 422 q 519 392 519 406 q 490 365 519 365 q 258 326 446 364 q 381 38 251 38 z "},"Ñ":{"ha":986,"x_min":0,"x_max":942,"o":"m 879 551 q 843 730 879 665 q 738 794 807 794 q 465 610 614 794 q 474 457 474 539 q 419 115 474 256 q 271 -26 364 -26 q 196 6 225 -26 q 167 93 167 39 q 233 354 167 199 q 400 625 300 510 q 365 786 392 713 q 247 763 315 763 q 70 810 140 763 q 0 929 0 857 q 43 1022 0 985 q 151 1058 86 1058 q 291 1010 226 1058 q 399 874 356 963 q 471 1019 471 932 q 443 1113 471 1069 q 439 1128 439 1117 q 447 1151 439 1142 q 469 1160 456 1160 q 515 1111 496 1160 q 533 1019 533 1063 q 421 817 533 897 q 454 685 440 764 q 739 851 607 851 q 884 784 826 851 q 942 551 942 717 q 895 277 942 424 q 767 -3 849 131 q 740 -18 757 -18 q 719 -9 728 -18 q 710 14 710 0 q 714 31 710 22 q 835 295 790 154 q 879 551 879 436 m 413 457 q 410 544 413 494 q 281 313 332 444 q 229 93 231 181 q 241 50 229 68 q 275 32 253 32 q 370 154 328 32 q 413 457 413 276 m 64 929 q 117 851 64 883 q 247 819 169 819 q 349 839 296 819 q 151 1001 271 1001 q 64 929 64 1001 m 679 1086 q 758 1065 722 1086 q 824 1039 804 1039 q 869 1068 856 1039 q 894 1085 876 1085 q 911 1079 904 1085 q 918 1054 918 1074 q 892 1011 918 1035 q 824 988 865 988 q 731 1018 772 988 q 679 1035 704 1035 q 619 994 640 1035 q 594 979 611 979 q 578 988 586 979 q 569 1010 569 997 q 601 1058 569 1031 q 679 1086 633 1086 z "},"Ò":{"ha":917,"x_min":57,"x_max":933,"o":"m 863 889 l 863 896 q 886 926 863 919 q 913 921 903 931 q 927 891 924 911 q 932 858 931 871 q 933 828 933 844 q 842 632 933 710 q 871 457 871 563 q 748 126 871 258 q 446 -7 625 -7 q 165 105 274 -7 q 57 407 57 217 q 87 585 57 494 q 167 724 117 676 q 189 732 178 732 q 210 724 201 732 q 219 701 219 715 q 211 681 219 689 q 145 566 171 643 q 119 407 119 489 q 211 146 119 242 q 449 50 303 50 q 704 169 600 50 q 808 457 808 289 q 789 597 808 533 q 600 553 721 553 q 374 608 469 553 q 279 751 279 664 q 333 849 279 811 q 472 888 386 888 q 664 838 574 888 q 815 688 754 789 q 872 826 872 746 q 863 889 872 860 m 767 651 q 637 785 715 739 q 472 831 558 831 q 374 807 407 831 q 340 747 340 783 q 419 651 340 693 q 606 610 499 610 q 767 651 706 610 m 383 1129 l 400 1125 q 443 1099 413 1115 q 572 1011 521 1056 q 583 988 583 1003 q 574 972 583 979 q 551 964 564 964 q 532 971 539 964 q 411 1051 492 1007 q 360 1082 369 1075 q 351 1099 351 1089 q 360 1120 351 1111 q 383 1129 369 1129 z "},"Ó":{"ha":917,"x_min":57,"x_max":933,"o":"m 863 889 l 863 896 q 886 926 863 919 q 913 921 903 931 q 927 891 924 911 q 932 858 931 871 q 933 828 933 844 q 842 632 933 710 q 871 457 871 563 q 748 126 871 258 q 446 -7 625 -7 q 165 105 274 -7 q 57 407 57 217 q 87 585 57 494 q 167 724 117 676 q 189 732 178 732 q 210 724 201 732 q 219 701 219 715 q 211 681 219 689 q 145 566 171 643 q 119 407 119 489 q 211 146 119 242 q 449 50 303 50 q 704 169 600 50 q 808 457 808 289 q 789 597 808 533 q 600 553 721 553 q 374 608 469 553 q 279 751 279 664 q 333 849 279 811 q 472 888 386 888 q 664 838 574 888 q 815 688 754 789 q 872 826 872 746 q 863 889 872 860 m 767 651 q 637 785 715 739 q 472 831 558 831 q 374 807 407 831 q 340 747 340 783 q 419 651 340 693 q 606 610 499 610 q 767 651 706 610 m 671 1122 q 690 1129 678 1129 q 713 1122 703 1129 q 722 1106 722 1114 q 711 1082 722 1090 q 582 994 660 1038 q 539 968 551 978 q 535 967 538 968 q 530 966 532 967 q 526 965 528 965 q 522 964 524 964 q 500 972 510 964 q 490 988 490 981 q 499 1010 490 1001 q 550 1042 508 1018 q 671 1122 631 1086 z "},"Ô":{"ha":917,"x_min":57,"x_max":933,"o":"m 863 889 l 863 896 q 886 926 863 919 q 913 921 903 931 q 927 891 924 911 q 932 858 931 871 q 933 828 933 844 q 842 632 933 710 q 871 457 871 563 q 748 126 871 258 q 446 -7 625 -7 q 165 105 274 -7 q 57 407 57 217 q 87 585 57 494 q 167 724 117 676 q 189 732 178 732 q 210 724 201 732 q 219 701 219 715 q 211 681 219 689 q 145 566 171 643 q 119 407 119 489 q 211 146 119 242 q 449 50 303 50 q 704 169 600 50 q 808 457 808 289 q 789 597 808 533 q 600 553 721 553 q 374 608 469 553 q 279 751 279 664 q 333 849 279 811 q 472 888 386 888 q 664 838 574 888 q 815 688 754 789 q 872 826 872 746 q 863 889 872 860 m 767 651 q 637 785 715 739 q 472 831 558 831 q 374 807 407 831 q 340 747 340 783 q 419 651 340 693 q 606 610 499 610 q 767 651 706 610 m 532 1122 q 553 1114 544 1122 q 661 1031 636 1047 q 676 1004 676 1022 q 667 988 676 996 q 644 981 657 981 q 529 1064 625 981 q 418 997 474 1035 q 401 993 414 993 q 379 1001 389 993 q 369 1017 369 1008 q 383 1042 369 1032 q 466 1091 410 1060 q 532 1122 522 1122 z "},"Õ":{"ha":917,"x_min":57,"x_max":933,"o":"m 863 889 l 863 896 q 886 926 863 919 q 913 921 903 931 q 927 891 924 911 q 932 858 931 871 q 933 828 933 844 q 842 632 933 710 q 871 457 871 563 q 748 126 871 258 q 446 -7 625 -7 q 165 105 274 -7 q 57 407 57 217 q 87 585 57 494 q 167 724 117 676 q 189 732 178 732 q 210 724 201 732 q 219 701 219 715 q 211 681 219 689 q 145 566 171 643 q 119 407 119 489 q 211 146 119 242 q 449 50 303 50 q 704 169 600 50 q 808 457 808 289 q 789 597 808 533 q 600 553 721 553 q 374 608 469 553 q 279 751 279 664 q 333 849 279 811 q 472 888 386 888 q 664 838 574 888 q 815 688 754 789 q 872 826 872 746 q 863 889 872 860 m 767 651 q 637 785 715 739 q 472 831 558 831 q 374 807 407 831 q 340 747 340 783 q 419 651 340 693 q 606 610 499 610 q 767 651 706 610 m 457 1086 q 536 1065 500 1086 q 601 1039 582 1039 q 647 1068 633 1039 q 672 1085 654 1085 q 689 1079 682 1085 q 696 1054 696 1074 q 669 1011 696 1035 q 601 988 643 988 q 508 1018 550 988 q 457 1035 482 1035 q 397 994 418 1035 q 372 979 389 979 q 356 988 364 979 q 347 1010 347 997 q 379 1058 347 1031 q 457 1086 411 1086 z "},"Ö":{"ha":917,"x_min":57,"x_max":933,"o":"m 863 889 l 863 896 q 886 926 863 919 q 913 921 903 931 q 927 891 924 911 q 932 858 931 871 q 933 828 933 844 q 842 632 933 710 q 871 457 871 563 q 748 126 871 258 q 446 -7 625 -7 q 165 105 274 -7 q 57 407 57 217 q 87 585 57 494 q 167 724 117 676 q 189 732 178 732 q 210 724 201 732 q 219 701 219 715 q 211 681 219 689 q 145 566 171 643 q 119 407 119 489 q 211 146 119 242 q 449 50 303 50 q 704 169 600 50 q 808 457 808 289 q 789 597 808 533 q 600 553 721 553 q 374 608 469 553 q 279 751 279 664 q 333 849 279 811 q 472 888 386 888 q 664 838 574 888 q 815 688 754 789 q 872 826 872 746 q 863 889 872 860 m 767 651 q 637 785 715 739 q 472 831 558 831 q 374 807 407 831 q 340 747 340 783 q 419 651 340 693 q 606 610 499 610 q 767 651 706 610 m 615 1068 l 615 1058 q 617 1049 615 1057 q 618 1039 618 1040 q 609 1017 618 1026 q 588 1008 600 1008 q 560 1026 565 1008 q 554 1081 554 1044 q 553 1092 554 1083 q 551 1103 551 1101 q 560 1124 551 1115 q 582 1133 569 1133 q 615 1068 618 1133 m 465 1068 l 465 1058 q 467 1049 465 1057 q 468 1039 468 1040 q 459 1017 468 1026 q 438 1008 450 1008 q 410 1026 415 1008 q 404 1081 404 1044 q 403 1092 404 1083 q 401 1103 401 1101 q 410 1124 401 1115 q 432 1133 419 1133 q 465 1068 468 1133 z "},"×":{"ha":600,"x_min":68,"x_max":532,"o":"m 258 281 l 68 472 l 108 513 l 299 321 l 492 513 l 532 472 l 340 281 l 532 90 l 492 49 l 299 240 l 108 49 l 68 90 l 258 281 z "},"Ø":{"ha":917,"x_min":57,"x_max":871,"o":"m 696 757 q 819 677 768 757 q 871 464 871 597 q 749 129 871 265 q 454 -7 626 -7 q 222 57 315 -7 q 126 -54 168 -14 q 106 -62 117 -62 q 76 -36 76 -62 q 85 -14 76 -22 q 181 96 131 32 q 91 230 125 146 q 57 415 57 314 q 181 741 57 607 q 476 875 306 875 q 554 868 510 875 q 579 839 579 864 q 550 811 579 811 q 520 815 543 811 q 478 818 497 818 q 226 701 332 818 q 119 417 121 585 q 217 143 118 247 q 482 561 360 349 q 587 715 546 672 q 696 757 628 757 m 454 50 q 705 172 601 50 q 808 464 808 294 q 772 637 808 574 q 697 700 736 700 q 626 667 656 700 q 535 531 596 635 q 260 107 417 328 q 454 50 332 50 z "},"Ù":{"ha":1007,"x_min":56,"x_max":979,"o":"m 497 38 q 714 174 606 38 q 693 381 693 278 q 713 607 693 499 q 776 792 732 715 q 879 868 819 868 q 949 834 918 868 q 979 714 979 800 q 923 441 979 600 q 778 161 867 282 q 830 42 800 79 q 907 6 860 6 q 921 6 908 6 q 936 7 933 7 q 967 -17 967 7 q 913 -50 967 -50 q 732 106 779 -50 q 497 -19 618 -19 q 335 63 390 -19 q 279 292 279 144 q 283 446 279 307 q 285 614 286 585 q 283 649 285 638 q 240 644 263 644 q 110 681 164 644 q 56 781 56 718 q 90 858 56 826 q 174 890 124 890 q 273 847 228 890 q 335 726 318 804 q 407 794 381 749 q 433 894 433 840 q 415 981 433 958 q 408 1000 408 990 q 439 1031 408 1031 q 481 985 467 1031 q 496 894 496 940 q 454 758 496 819 q 344 667 413 696 q 347 614 347 633 q 344 451 349 589 q 340 292 340 313 q 383 99 340 161 q 497 38 425 38 m 117 781 q 154 724 117 746 q 240 703 192 703 q 278 707 249 703 q 235 797 264 763 q 172 831 207 831 q 133 817 150 831 q 117 781 117 803 m 917 714 q 879 810 917 810 q 838 778 860 810 q 797 690 815 746 q 766 549 778 635 q 754 367 754 463 q 761 232 754 279 q 876 487 835 354 q 917 714 917 619 m 553 1129 l 569 1125 q 613 1099 582 1115 q 742 1011 690 1056 q 753 988 753 1003 q 743 972 753 979 q 721 964 733 964 q 701 971 708 964 q 581 1051 661 1007 q 530 1082 539 1075 q 521 1099 521 1089 q 530 1120 521 1111 q 553 1129 539 1129 z "},"Ú":{"ha":1007,"x_min":56,"x_max":979,"o":"m 497 38 q 714 174 606 38 q 693 381 693 278 q 713 607 693 499 q 776 792 732 715 q 879 868 819 868 q 949 834 918 868 q 979 714 979 800 q 923 441 979 600 q 778 161 867 282 q 830 42 800 79 q 907 6 860 6 q 921 6 908 6 q 936 7 933 7 q 967 -17 967 7 q 913 -50 967 -50 q 732 106 779 -50 q 497 -19 618 -19 q 335 63 390 -19 q 279 292 279 144 q 283 446 279 307 q 285 614 286 585 q 283 649 285 638 q 240 644 263 644 q 110 681 164 644 q 56 781 56 718 q 90 858 56 826 q 174 890 124 890 q 273 847 228 890 q 335 726 318 804 q 407 794 381 749 q 433 894 433 840 q 415 981 433 958 q 408 1000 408 990 q 439 1031 408 1031 q 481 985 467 1031 q 496 894 496 940 q 454 758 496 819 q 344 667 413 696 q 347 614 347 633 q 344 451 349 589 q 340 292 340 313 q 383 99 340 161 q 497 38 425 38 m 117 781 q 154 724 117 746 q 240 703 192 703 q 278 707 249 703 q 235 797 264 763 q 172 831 207 831 q 133 817 150 831 q 117 781 117 803 m 917 714 q 879 810 917 810 q 838 778 860 810 q 797 690 815 746 q 766 549 778 635 q 754 367 754 463 q 761 232 754 279 q 876 487 835 354 q 917 714 917 619 m 799 1122 q 818 1129 806 1129 q 840 1122 831 1129 q 850 1106 850 1114 q 839 1082 850 1090 q 710 994 788 1038 q 667 968 679 978 q 663 967 665 968 q 658 966 660 967 q 653 965 656 965 q 650 964 651 964 q 628 972 638 964 q 618 988 618 981 q 627 1010 618 1001 q 678 1042 636 1018 q 799 1122 758 1086 z "},"Û":{"ha":1007,"x_min":56,"x_max":979,"o":"m 497 38 q 714 174 606 38 q 693 381 693 278 q 713 607 693 499 q 776 792 732 715 q 879 868 819 868 q 949 834 918 868 q 979 714 979 800 q 923 441 979 600 q 778 161 867 282 q 830 42 800 79 q 907 6 860 6 q 921 6 908 6 q 936 7 933 7 q 967 -17 967 7 q 913 -50 967 -50 q 732 106 779 -50 q 497 -19 618 -19 q 335 63 390 -19 q 279 292 279 144 q 283 446 279 307 q 285 614 286 585 q 283 649 285 638 q 240 644 263 644 q 110 681 164 644 q 56 781 56 718 q 90 858 56 826 q 174 890 124 890 q 273 847 228 890 q 335 726 318 804 q 407 794 381 749 q 433 894 433 840 q 415 981 433 958 q 408 1000 408 990 q 439 1031 408 1031 q 481 985 467 1031 q 496 894 496 940 q 454 758 496 819 q 344 667 413 696 q 347 614 347 633 q 344 451 349 589 q 340 292 340 313 q 383 99 340 161 q 497 38 425 38 m 117 781 q 154 724 117 746 q 240 703 192 703 q 278 707 249 703 q 235 797 264 763 q 172 831 207 831 q 133 817 150 831 q 117 781 117 803 m 917 714 q 879 810 917 810 q 838 778 860 810 q 797 690 815 746 q 766 549 778 635 q 754 367 754 463 q 761 232 754 279 q 876 487 835 354 q 917 714 917 619 m 689 1122 q 710 1114 701 1122 q 818 1031 793 1047 q 833 1004 833 1022 q 824 988 833 996 q 801 981 814 981 q 686 1064 782 981 q 575 997 631 1035 q 558 993 571 993 q 536 1001 546 993 q 526 1017 526 1008 q 540 1042 526 1032 q 623 1091 567 1060 q 689 1122 679 1122 z "},"Ü":{"ha":1007,"x_min":56,"x_max":979,"o":"m 497 38 q 714 174 606 38 q 693 381 693 278 q 713 607 693 499 q 776 792 732 715 q 879 868 819 868 q 949 834 918 868 q 979 714 979 800 q 923 441 979 600 q 778 161 867 282 q 830 42 800 79 q 907 6 860 6 q 921 6 908 6 q 936 7 933 7 q 967 -17 967 7 q 913 -50 967 -50 q 732 106 779 -50 q 497 -19 618 -19 q 335 63 390 -19 q 279 292 279 144 q 283 446 279 307 q 285 614 286 585 q 283 649 285 638 q 240 644 263 644 q 110 681 164 644 q 56 781 56 718 q 90 858 56 826 q 174 890 124 890 q 273 847 228 890 q 335 726 318 804 q 407 794 381 749 q 433 894 433 840 q 415 981 433 958 q 408 1000 408 990 q 439 1031 408 1031 q 481 985 467 1031 q 496 894 496 940 q 454 758 496 819 q 344 667 413 696 q 347 614 347 633 q 344 451 349 589 q 340 292 340 313 q 383 99 340 161 q 497 38 425 38 m 117 781 q 154 724 117 746 q 240 703 192 703 q 278 707 249 703 q 235 797 264 763 q 172 831 207 831 q 133 817 150 831 q 117 781 117 803 m 917 714 q 879 810 917 810 q 838 778 860 810 q 797 690 815 746 q 766 549 778 635 q 754 367 754 463 q 761 232 754 279 q 876 487 835 354 q 917 714 917 619 m 772 1068 l 772 1058 q 774 1049 772 1057 q 775 1039 775 1040 q 766 1017 775 1026 q 744 1008 757 1008 q 717 1026 722 1008 q 711 1081 711 1044 q 710 1092 711 1083 q 708 1103 708 1101 q 717 1124 708 1115 q 739 1133 726 1133 q 772 1068 775 1133 m 622 1068 l 622 1058 q 624 1049 622 1057 q 625 1039 625 1040 q 616 1017 625 1026 q 594 1008 607 1008 q 567 1026 572 1008 q 561 1081 561 1044 q 560 1092 561 1083 q 558 1103 558 1101 q 567 1124 558 1115 q 589 1133 576 1133 q 622 1068 625 1133 z "},"Ý":{"ha":954,"x_min":0,"x_max":961,"o":"m 525 156 q 718 283 611 156 q 713 447 713 433 q 715 575 713 524 q 726 683 717 626 q 751 772 735 739 q 796 827 767 806 q 865 849 825 849 q 925 825 897 849 q 961 711 961 794 q 909 495 961 619 q 779 271 857 371 q 782 210 782 218 q 751 -12 782 86 q 669 -174 719 -111 q 552 -278 619 -236 q 417 -337 485 -319 q 276 -354 349 -354 q 82 -293 164 -354 q 0 -118 0 -232 q 44 1 0 -49 q 149 51 88 51 q 232 19 197 51 q 267 -65 267 -14 q 226 -146 267 -146 q 204 -137 214 -146 q 194 -115 194 -128 q 197 -104 194 -110 q 204 -65 204 -81 q 188 -22 204 -37 q 149 -7 171 -7 q 88 -39 114 -7 q 61 -118 61 -71 q 99 -224 61 -182 q 183 -282 138 -267 q 276 -297 229 -297 q 440 -269 364 -297 q 580 -182 517 -240 q 681 -24 643 -124 q 721 206 719 75 q 515 97 613 97 q 443 113 474 97 q 394 158 413 128 q 364 218 375 188 q 348 294 353 249 q 342 370 343 340 q 340 446 340 400 l 340 533 q 338 615 340 565 q 247 600 294 600 q 107 648 163 600 q 51 771 51 696 q 92 869 51 829 q 194 910 132 910 q 309 864 256 910 q 385 713 363 818 q 453 892 453 778 q 451 915 453 894 q 449 940 449 936 q 456 962 449 953 q 476 971 464 971 q 497 965 489 971 q 508 946 506 960 q 512 922 511 932 q 513 892 513 911 q 483 755 513 821 q 396 646 454 689 q 401 414 401 600 q 431 213 401 271 q 525 156 461 156 m 774 447 q 775 410 774 440 q 776 361 776 379 q 865 546 831 447 q 900 713 900 644 q 858 792 900 792 q 792 707 811 792 q 774 447 774 622 m 329 674 q 194 853 299 853 q 137 828 160 853 q 114 771 114 804 q 152 688 114 719 q 249 657 190 657 q 329 674 294 657 m 793 1122 q 813 1129 800 1129 q 835 1122 825 1129 q 844 1106 844 1114 q 833 1082 844 1090 q 704 994 782 1038 q 661 968 674 978 q 657 967 660 968 q 652 966 654 967 q 648 965 650 965 q 644 964 646 964 q 622 972 632 964 q 613 988 613 981 q 622 1010 613 1001 q 672 1042 631 1018 q 793 1122 753 1086 z "},"Þ":{"ha":818,"x_min":28,"x_max":818,"o":"m 528 342 l 533 342 q 588 333 563 333 q 708 381 660 333 q 756 501 756 428 q 701 628 756 581 q 565 676 647 676 q 440 644 501 676 q 461 357 461 508 q 458 249 461 297 q 445 149 456 201 q 418 61 435 96 q 372 3 401 26 q 301 -19 342 -19 q 203 49 240 -19 q 165 229 165 118 q 221 485 165 368 q 369 669 276 603 q 328 799 353 753 q 199 775 264 775 q 72 805 115 775 q 28 878 28 835 q 68 950 28 921 q 167 979 108 979 q 288 944 239 979 q 356 875 336 910 q 426 940 406 904 q 453 956 435 956 q 483 926 483 956 q 456 878 483 910 q 385 824 429 847 q 426 703 410 774 q 565 733 494 733 q 747 669 675 733 q 818 501 818 606 q 752 340 818 406 q 586 275 686 275 q 496 313 496 275 q 528 342 496 342 m 92 878 q 201 832 92 832 q 301 850 254 832 q 247 901 283 881 q 164 922 210 922 q 114 910 136 922 q 92 878 92 899 m 400 357 q 382 607 400 488 q 269 445 310 546 q 228 229 228 344 q 250 91 228 146 q 303 36 272 36 q 400 357 400 36 z "},"ß":{"ha":640,"x_min":-149,"x_max":596,"o":"m -114 -293 l -118 -293 q -140 -285 -131 -293 q -149 -264 -149 -276 q -121 -233 -149 -237 q -52 -199 -83 -228 q 0 -131 -21 -169 q 40 -31 21 -93 q 68 81 58 32 q 88 208 78 131 q 101 328 97 285 q 111 442 106 371 q 390 900 147 900 q 513 848 468 900 q 558 726 558 796 q 479 590 558 614 q 378 478 378 561 q 392 435 378 456 q 421 402 407 414 q 464 371 435 390 q 596 168 596 278 q 538 26 596 82 q 388 -31 481 -31 q 260 10 318 -31 q 203 128 203 51 q 237 218 203 182 q 313 254 271 254 q 379 228 353 254 q 406 164 406 203 q 404 144 406 156 q 393 117 403 133 q 367 100 383 100 q 345 109 354 100 q 336 131 336 118 q 340 147 336 132 q 343 164 343 161 q 313 197 343 197 q 281 178 296 197 q 267 128 267 160 q 306 51 267 76 q 388 26 346 26 q 493 65 453 26 q 533 168 533 104 q 433 317 533 247 q 376 360 396 343 q 337 409 357 376 q 317 479 317 442 q 356 581 317 536 q 458 644 394 626 q 496 726 496 656 q 468 807 496 771 q 389 843 440 843 q 172 436 204 843 q 163 325 167 364 q 151 211 160 286 q 133 90 143 136 q 107 -19 122 44 q 72 -122 92 -82 q 25 -203 51 -162 q -37 -265 -1 -243 q -114 -293 -72 -287 z "},"à":{"ha":481,"x_min":47,"x_max":428,"o":"m 300 481 q 394 442 360 481 q 428 333 428 404 q 410 167 428 265 q 396 56 396 76 q 399 38 396 46 q 404 21 404 26 q 394 1 404 10 q 372 -8 385 -8 q 333 58 333 -8 q 349 176 333 67 q 367 331 367 288 q 346 400 367 378 q 294 422 325 422 q 165 329 219 422 q 110 135 110 236 q 126 72 110 96 q 169 47 143 47 q 249 118 222 47 q 275 136 256 136 q 304 106 304 136 q 265 33 304 76 q 160 -11 225 -11 q 81 26 114 -11 q 47 135 47 63 q 120 367 47 254 q 300 481 193 481 m 361 571 q 340 543 361 543 q 315 551 326 543 q 178 660 188 653 q 150 703 150 681 q 175 726 150 726 l 192 722 q 210 706 199 717 q 225 694 222 696 q 350 594 243 679 q 361 571 361 586 z "},"á":{"ha":481,"x_min":47,"x_max":444,"o":"m 300 481 q 394 442 360 481 q 428 333 428 404 q 410 167 428 265 q 396 56 396 76 q 399 38 396 46 q 404 21 404 26 q 394 1 404 10 q 372 -8 385 -8 q 333 58 333 -8 q 349 176 333 67 q 367 331 367 288 q 346 400 367 378 q 294 422 325 422 q 165 329 219 422 q 110 135 110 236 q 126 72 110 96 q 169 47 143 47 q 249 118 222 47 q 275 136 256 136 q 304 106 304 136 q 265 33 304 76 q 160 -11 225 -11 q 81 26 114 -11 q 47 135 47 63 q 120 367 47 254 q 300 481 193 481 m 369 694 q 384 706 372 696 q 403 722 396 717 q 407 723 404 722 q 412 724 410 724 q 416 726 414 725 q 419 726 418 726 q 444 703 444 726 q 417 660 444 682 q 349 607 400 647 q 279 554 297 567 q 254 546 268 546 q 240 554 246 546 q 233 571 233 563 q 244 594 233 586 q 369 694 351 679 z "},"â":{"ha":481,"x_min":47,"x_max":436,"o":"m 300 481 q 394 442 360 481 q 428 333 428 404 q 410 167 428 265 q 396 56 396 76 q 399 38 396 46 q 404 21 404 26 q 394 1 404 10 q 372 -8 385 -8 q 333 58 333 -8 q 349 176 333 67 q 367 331 367 288 q 346 400 367 378 q 294 422 325 422 q 165 329 219 422 q 110 135 110 236 q 126 72 110 96 q 169 47 143 47 q 249 118 222 47 q 275 136 256 136 q 304 106 304 136 q 265 33 304 76 q 160 -11 225 -11 q 81 26 114 -11 q 47 135 47 63 q 120 367 47 254 q 300 481 193 481 m 306 713 q 324 707 318 713 q 355 673 336 694 q 388 638 374 651 q 421 614 403 625 q 436 588 436 606 q 426 572 436 579 q 404 564 417 564 q 388 570 397 564 q 365 589 378 576 q 341 611 351 601 q 317 635 331 621 q 300 653 304 649 q 251 615 281 639 q 206 581 221 590 q 185 576 197 576 q 165 584 174 576 q 157 600 157 592 q 171 625 157 615 q 214 655 181 631 q 274 696 247 679 q 306 713 300 713 z "},"ã":{"ha":481,"x_min":47,"x_max":428,"o":"m 300 481 q 394 442 360 481 q 428 333 428 404 q 410 167 428 265 q 396 56 396 76 q 399 38 396 46 q 404 21 404 26 q 394 1 404 10 q 372 -8 385 -8 q 333 58 333 -8 q 349 176 333 67 q 367 331 367 288 q 346 400 367 378 q 294 422 325 422 q 165 329 219 422 q 110 135 110 236 q 126 72 110 96 q 169 47 143 47 q 249 118 222 47 q 275 136 256 136 q 304 106 304 136 q 265 33 304 76 q 160 -11 225 -11 q 81 26 114 -11 q 47 135 47 63 q 120 367 47 254 q 300 481 193 481 m 346 578 q 268 606 297 578 q 218 632 240 632 q 178 583 193 632 q 156 569 174 569 q 135 578 143 569 q 128 600 128 588 q 155 653 128 622 q 217 683 182 683 q 292 653 257 683 q 339 629 317 629 q 371 664 358 629 q 396 682 378 682 q 413 676 406 682 q 422 650 422 671 q 400 605 422 632 q 346 578 378 578 z "},"ä":{"ha":481,"x_min":47,"x_max":428,"o":"m 300 481 q 394 442 360 481 q 428 333 428 404 q 410 167 428 265 q 396 56 396 76 q 399 38 396 46 q 404 21 404 26 q 394 1 404 10 q 372 -8 385 -8 q 333 58 333 -8 q 349 176 333 67 q 367 331 367 288 q 346 400 367 378 q 294 422 325 422 q 165 329 219 422 q 110 135 110 236 q 126 72 110 96 q 169 47 143 47 q 249 118 222 47 q 275 136 256 136 q 304 106 304 136 q 265 33 304 76 q 160 -11 225 -11 q 81 26 114 -11 q 47 135 47 63 q 120 367 47 254 q 300 481 193 481 m 397 651 l 397 642 q 399 632 397 640 q 400 622 400 624 q 391 601 400 610 q 369 592 382 592 q 342 610 347 592 q 336 664 336 628 q 335 676 336 667 q 333 686 333 685 q 342 708 333 699 q 364 717 351 717 q 397 651 400 717 m 247 651 l 247 642 q 249 632 247 640 q 250 622 250 624 q 241 601 250 610 q 219 592 232 592 q 192 610 197 592 q 186 664 186 628 q 185 676 186 667 q 183 686 183 685 q 192 708 183 699 q 214 717 201 717 q 247 651 250 717 z "},"å":{"ha":481,"x_min":47,"x_max":428,"o":"m 300 481 q 394 442 360 481 q 428 333 428 404 q 410 167 428 265 q 396 56 396 76 q 399 38 396 46 q 404 21 404 26 q 394 1 404 10 q 372 -8 385 -8 q 333 58 333 -8 q 349 176 333 67 q 367 331 367 288 q 346 400 367 378 q 294 422 325 422 q 165 329 219 422 q 110 135 110 236 q 126 72 110 96 q 169 47 143 47 q 249 118 222 47 q 275 136 256 136 q 304 106 304 136 q 265 33 304 76 q 160 -11 225 -11 q 81 26 114 -11 q 47 135 47 63 q 120 367 47 254 q 300 481 193 481 m 276 554 q 195 583 226 554 q 164 651 164 611 q 183 715 164 686 q 222 743 201 743 q 254 719 254 743 q 235 694 254 707 q 218 651 218 685 q 236 619 218 631 q 275 607 254 607 q 318 624 303 607 q 333 667 333 642 q 324 690 333 676 q 303 704 315 704 q 281 713 290 704 q 271 735 271 722 q 301 756 271 756 q 363 728 336 757 q 389 667 389 700 q 355 588 389 622 q 276 554 321 554 z "},"æ":{"ha":711,"x_min":47,"x_max":694,"o":"m 346 181 l 347 196 q 355 264 349 215 q 361 324 361 313 q 344 394 361 368 q 297 419 326 419 q 167 322 226 419 q 108 125 108 225 q 168 39 108 39 q 226 65 197 39 q 268 124 254 92 q 296 144 275 144 q 318 135 310 144 q 326 113 326 126 q 279 33 326 85 q 167 -18 232 -18 q 82 17 117 -18 q 47 125 47 51 q 122 360 47 243 q 300 476 197 476 q 417 375 392 476 q 576 469 476 469 q 664 440 633 469 q 694 363 694 410 q 632 244 694 288 q 497 200 569 200 q 468 228 468 200 q 497 258 468 256 q 592 289 550 260 q 633 363 633 318 q 619 398 633 383 q 578 413 606 413 q 463 345 518 413 q 408 172 408 278 q 436 76 408 113 q 521 39 464 39 q 606 79 572 39 q 631 92 615 92 q 651 83 643 92 q 660 60 660 74 q 646 31 660 49 q 598 -2 632 14 q 519 -18 564 -18 q 397 28 447 -18 q 346 181 346 75 z "},"ç":{"ha":417,"x_min":53,"x_max":386,"o":"m 151 -253 q 95 -242 124 -253 q 67 -211 67 -231 q 74 -190 67 -199 q 94 -181 82 -181 q 114 -186 104 -181 q 157 -200 131 -200 q 189 -188 172 -200 q 206 -160 206 -176 q 165 -110 206 -129 q 159 -108 164 -110 q 153 -104 154 -106 q 147 -101 151 -103 q 141 -97 143 -99 q 135 -92 139 -94 q 131 -85 132 -89 q 129 -78 131 -82 q 128 -68 128 -74 q 164 -10 128 -56 l 167 -8 q 53 167 53 15 q 119 381 53 286 q 286 475 186 475 q 382 424 361 475 q 386 404 386 415 q 357 374 386 374 q 331 389 342 374 q 282 415 313 415 q 161 335 207 415 q 115 167 115 254 q 133 85 115 115 q 169 49 151 56 q 208 42 188 42 q 322 111 283 42 q 349 129 332 129 q 375 97 375 129 q 331 34 375 72 q 226 -11 288 -4 l 181 -64 q 261 -158 261 -86 q 226 -225 261 -197 q 151 -253 190 -253 z "},"è":{"ha":414,"x_min":49,"x_max":397,"o":"m 200 261 q 294 292 253 263 q 335 365 335 321 q 279 413 335 413 q 166 346 221 413 q 111 175 111 279 q 115 134 111 154 q 131 92 119 114 q 167 56 142 69 q 226 43 192 43 q 324 89 286 43 q 346 100 332 100 q 374 68 374 100 q 327 15 374 44 q 222 -14 281 -14 q 96 37 143 -14 q 49 175 49 88 q 121 386 49 300 q 281 472 193 472 q 368 442 339 472 q 397 365 397 411 q 334 245 397 289 q 200 201 271 201 q 169 231 169 201 q 200 261 169 258 m 342 571 q 321 543 342 543 q 296 551 307 543 q 158 660 168 653 q 131 703 131 681 q 156 726 131 726 l 172 722 q 191 706 179 717 q 206 694 203 696 q 331 594 224 679 q 342 571 342 586 z "},"é":{"ha":414,"x_min":49,"x_max":439,"o":"m 200 261 q 294 292 253 263 q 335 365 335 321 q 279 413 335 413 q 166 346 221 413 q 111 175 111 279 q 115 134 111 154 q 131 92 119 114 q 167 56 142 69 q 226 43 192 43 q 324 89 286 43 q 346 100 332 100 q 374 68 374 100 q 327 15 374 44 q 222 -14 281 -14 q 96 37 143 -14 q 49 175 49 88 q 121 386 49 300 q 281 472 193 472 q 368 442 339 472 q 397 365 397 411 q 334 245 397 289 q 200 201 271 201 q 169 231 169 201 q 200 261 169 258 m 364 694 q 378 706 367 696 q 397 722 390 717 q 401 723 399 722 q 406 724 404 724 q 410 726 408 725 q 414 726 413 726 q 439 703 439 726 q 411 660 439 682 q 343 607 394 647 q 274 554 292 567 q 249 546 263 546 q 234 554 240 546 q 228 571 228 563 q 239 594 228 586 q 364 694 346 679 z "},"ê":{"ha":414,"x_min":49,"x_max":417,"o":"m 200 261 q 294 292 253 263 q 335 365 335 321 q 279 413 335 413 q 166 346 221 413 q 111 175 111 279 q 115 134 111 154 q 131 92 119 114 q 167 56 142 69 q 226 43 192 43 q 324 89 286 43 q 346 100 332 100 q 374 68 374 100 q 327 15 374 44 q 222 -14 281 -14 q 96 37 143 -14 q 49 175 49 88 q 121 386 49 300 q 281 472 193 472 q 368 442 339 472 q 397 365 397 411 q 334 245 397 289 q 200 201 271 201 q 169 231 169 201 q 200 261 169 258 m 286 713 q 304 707 299 713 q 335 673 317 694 q 369 638 354 651 q 401 614 383 625 q 417 588 417 606 q 407 572 417 579 q 385 564 397 564 q 368 570 378 564 q 345 589 358 576 q 322 611 332 601 q 298 635 311 621 q 281 653 285 649 q 231 615 261 639 q 186 581 201 590 q 165 576 178 576 q 146 584 154 576 q 138 600 138 592 q 151 625 138 615 q 194 655 161 631 q 254 696 228 679 q 286 713 281 713 z "},"ë":{"ha":414,"x_min":49,"x_max":397,"o":"m 200 261 q 294 292 253 263 q 335 365 335 321 q 279 413 335 413 q 166 346 221 413 q 111 175 111 279 q 115 134 111 154 q 131 92 119 114 q 167 56 142 69 q 226 43 192 43 q 324 89 286 43 q 346 100 332 100 q 374 68 374 100 q 327 15 374 44 q 222 -14 281 -14 q 96 37 143 -14 q 49 175 49 88 q 121 386 49 300 q 281 472 193 472 q 368 442 339 472 q 397 365 397 411 q 334 245 397 289 q 200 201 271 201 q 169 231 169 201 q 200 261 169 258 m 378 651 l 378 642 q 379 632 378 640 q 381 622 381 624 q 372 601 381 610 q 350 592 363 592 q 322 610 328 592 q 317 664 317 628 q 315 676 317 667 q 314 686 314 685 q 323 708 314 699 q 344 717 332 717 q 378 651 381 717 m 228 651 l 228 642 q 229 632 228 640 q 231 622 231 624 q 222 601 231 610 q 200 592 213 592 q 172 610 178 592 q 167 664 167 628 q 165 676 167 667 q 164 686 164 685 q 173 708 164 699 q 194 717 182 717 q 228 651 231 717 z "},"ì":{"ha":222,"x_min":21,"x_max":232,"o":"m 156 461 q 179 431 179 454 q 178 424 179 426 q 118 11 133 243 q 88 -18 115 -18 q 65 -9 74 -18 q 56 14 56 0 q 62 93 56 28 q 84 262 68 158 q 118 439 100 365 q 131 458 119 451 q 156 461 143 464 m 232 571 q 211 543 232 543 q 186 551 197 543 q 49 660 58 653 q 21 703 21 681 q 46 726 21 726 l 63 722 q 81 706 69 717 q 96 694 93 696 q 221 594 114 679 q 232 571 232 586 z "},"í":{"ha":222,"x_min":56,"x_max":301,"o":"m 156 461 q 179 431 179 454 q 178 424 179 426 q 118 11 133 243 q 88 -18 115 -18 q 65 -9 74 -18 q 56 14 56 0 q 62 93 56 28 q 84 262 68 158 q 118 439 100 365 q 131 458 119 451 q 156 461 143 464 m 226 694 q 241 706 229 696 q 260 722 253 717 q 264 723 261 722 q 269 724 267 724 q 273 726 271 725 q 276 726 275 726 q 301 703 301 726 q 274 660 301 682 q 206 607 257 647 q 136 554 154 567 q 111 546 125 546 q 97 554 103 546 q 90 571 90 563 q 101 594 90 586 q 226 694 208 679 z "},"î":{"ha":222,"x_min":14,"x_max":293,"o":"m 156 461 q 179 431 179 454 q 178 424 179 426 q 118 11 133 243 q 88 -18 115 -18 q 65 -9 74 -18 q 56 14 56 0 q 62 93 56 28 q 84 262 68 158 q 118 439 100 365 q 131 458 119 451 q 156 461 143 464 m 163 713 q 181 707 175 713 q 212 673 193 694 q 245 638 231 651 q 278 614 260 625 q 293 588 293 606 q 283 572 293 579 q 261 564 274 564 q 244 570 254 564 q 222 589 235 576 q 198 611 208 601 q 174 635 188 621 q 157 653 161 649 q 108 615 138 639 q 63 581 78 590 q 42 576 54 576 q 22 584 31 576 q 14 600 14 592 q 28 625 14 615 q 71 655 38 631 q 131 696 104 679 q 163 713 157 713 z "},"ï":{"ha":222,"x_min":40,"x_max":257,"o":"m 156 461 q 179 431 179 454 q 178 424 179 426 q 118 11 133 243 q 88 -18 115 -18 q 65 -9 74 -18 q 56 14 56 0 q 62 93 56 28 q 84 262 68 158 q 118 439 100 365 q 131 458 119 451 q 156 461 143 464 m 254 651 l 254 642 q 256 632 254 640 q 257 622 257 624 q 248 601 257 610 q 226 592 239 592 q 199 610 204 592 q 193 664 193 628 q 192 676 193 667 q 190 686 190 685 q 199 708 190 699 q 221 717 208 717 q 254 651 257 717 m 104 651 l 104 642 q 106 632 104 640 q 107 622 107 624 q 98 601 107 610 q 76 592 89 592 q 49 610 54 592 q 43 664 43 628 q 42 676 43 667 q 40 686 40 685 q 49 708 40 699 q 71 717 58 717 q 104 651 107 717 z "},"ð":{"ha":461,"x_min":43,"x_max":510,"o":"m 201 -11 q 88 47 133 -11 q 43 196 43 104 q 101 395 43 317 q 236 474 158 474 q 285 465 264 474 q 317 444 307 457 q 333 422 328 432 q 338 406 338 413 q 329 384 338 393 q 307 375 321 375 q 274 393 285 375 q 232 413 261 413 q 144 351 182 413 q 106 196 106 290 q 133 88 106 133 q 204 43 160 43 q 301 108 261 43 q 358 263 342 174 q 375 451 375 351 q 335 640 375 571 q 204 578 244 578 q 172 606 172 578 q 181 625 172 617 q 199 635 189 633 q 308 690 232 642 q 238 769 281 738 q 150 807 196 801 q 125 833 125 810 q 135 856 125 847 q 157 865 144 865 l 163 865 q 265 823 203 865 q 360 722 328 781 q 471 785 446 781 q 498 780 486 788 q 510 758 510 772 q 485 728 510 733 q 386 674 467 724 q 423 572 408 636 q 438 451 438 508 q 433 340 438 399 q 399 188 428 282 q 322 42 371 93 q 201 -11 271 -11 z "},"ñ":{"ha":486,"x_min":47,"x_max":426,"o":"m 319 469 q 350 463 335 469 q 384 439 365 457 q 415 380 403 421 q 426 279 426 339 q 394 25 426 181 q 364 -3 390 -3 q 341 6 350 -3 q 332 29 332 15 q 333 35 332 32 q 364 279 364 168 q 314 406 364 406 q 198 297 257 406 q 106 19 139 189 q 76 -4 101 -4 q 47 28 47 -4 q 78 168 47 46 q 107 339 106 281 q 82 422 106 399 q 75 444 75 433 q 84 465 75 456 q 106 474 93 474 q 149 435 129 474 q 165 339 169 397 q 319 469 222 469 m 342 578 q 264 606 293 578 q 214 632 236 632 q 174 583 189 632 q 151 569 169 569 q 131 578 139 569 q 124 600 124 588 q 151 653 124 622 q 213 683 178 683 q 288 653 253 683 q 335 629 313 629 q 367 664 354 629 q 392 682 374 682 q 408 676 401 682 q 418 650 418 671 q 396 605 418 632 q 342 578 374 578 z "},"ò":{"ha":474,"x_min":56,"x_max":444,"o":"m 296 483 q 404 431 364 483 q 444 294 444 379 q 381 81 444 175 q 215 -14 317 -14 q 99 44 143 -14 q 56 200 56 103 q 75 313 56 260 q 104 335 82 335 q 125 326 117 335 q 133 304 133 317 q 131 290 133 299 q 118 201 118 258 q 144 92 118 140 q 218 44 169 44 q 335 122 289 44 q 382 294 382 200 q 360 385 382 344 q 293 425 339 425 q 240 401 257 425 q 222 347 222 378 q 288 292 222 292 q 310 283 301 292 q 319 261 319 274 q 282 231 319 231 q 192 264 224 231 q 160 347 160 297 q 197 442 160 401 q 296 483 233 483 m 357 571 q 336 543 357 543 q 311 551 322 543 q 174 660 183 653 q 146 703 146 681 q 171 726 146 726 l 188 722 q 206 706 194 717 q 221 694 218 696 q 346 594 239 679 q 357 571 357 586 z "},"ó":{"ha":474,"x_min":56,"x_max":454,"o":"m 296 483 q 404 431 364 483 q 444 294 444 379 q 381 81 444 175 q 215 -14 317 -14 q 99 44 143 -14 q 56 200 56 103 q 75 313 56 260 q 104 335 82 335 q 125 326 117 335 q 133 304 133 317 q 131 290 133 299 q 118 201 118 258 q 144 92 118 140 q 218 44 169 44 q 335 122 289 44 q 382 294 382 200 q 360 385 382 344 q 293 425 339 425 q 240 401 257 425 q 222 347 222 378 q 288 292 222 292 q 310 283 301 292 q 319 261 319 274 q 282 231 319 231 q 192 264 224 231 q 160 347 160 297 q 197 442 160 401 q 296 483 233 483 m 379 694 q 394 706 382 696 q 413 722 406 717 q 417 723 414 722 q 422 724 419 724 q 426 726 424 725 q 429 726 428 726 q 454 703 454 726 q 426 660 454 682 q 358 607 410 647 q 289 554 307 567 q 264 546 278 546 q 249 554 256 546 q 243 571 243 563 q 254 594 243 586 q 379 694 361 679 z "},"ô":{"ha":474,"x_min":56,"x_max":444,"o":"m 296 483 q 404 431 364 483 q 444 294 444 379 q 381 81 444 175 q 215 -14 317 -14 q 99 44 143 -14 q 56 200 56 103 q 75 313 56 260 q 104 335 82 335 q 125 326 117 335 q 133 304 133 317 q 131 290 133 299 q 118 201 118 258 q 144 92 118 140 q 218 44 169 44 q 335 122 289 44 q 382 294 382 200 q 360 385 382 344 q 293 425 339 425 q 240 401 257 425 q 222 347 222 378 q 288 292 222 292 q 310 283 301 292 q 319 261 319 274 q 282 231 319 231 q 192 264 224 231 q 160 347 160 297 q 197 442 160 401 q 296 483 233 483 m 289 713 q 307 707 301 713 q 338 673 319 694 q 372 638 357 651 q 404 614 386 625 q 419 588 419 606 q 410 572 419 579 q 388 564 400 564 q 371 570 381 564 q 348 589 361 576 q 324 611 335 601 q 301 635 314 621 q 283 653 288 649 q 234 615 264 639 q 189 581 204 590 q 168 576 181 576 q 149 584 157 576 q 140 600 140 592 q 154 625 140 615 q 197 655 164 631 q 257 696 231 679 q 289 713 283 713 z "},"õ":{"ha":474,"x_min":56,"x_max":444,"o":"m 296 483 q 404 431 364 483 q 444 294 444 379 q 381 81 444 175 q 215 -14 317 -14 q 99 44 143 -14 q 56 200 56 103 q 75 313 56 260 q 104 335 82 335 q 125 326 117 335 q 133 304 133 317 q 131 290 133 299 q 118 201 118 258 q 144 92 118 140 q 218 44 169 44 q 335 122 289 44 q 382 294 382 200 q 360 385 382 344 q 293 425 339 425 q 240 401 257 425 q 222 347 222 378 q 288 292 222 292 q 310 283 301 292 q 319 261 319 274 q 282 231 319 231 q 192 264 224 231 q 160 347 160 297 q 197 442 160 401 q 296 483 233 483 m 350 578 q 272 606 301 578 q 222 632 244 632 q 182 583 197 632 q 160 569 178 569 q 140 578 147 569 q 132 600 132 588 q 159 653 132 622 q 221 683 186 683 q 296 653 261 683 q 343 629 321 629 q 375 664 363 629 q 400 682 382 682 q 417 676 410 682 q 426 650 426 671 q 404 605 426 632 q 350 578 382 578 z "},"ö":{"ha":474,"x_min":56,"x_max":444,"o":"m 296 483 q 404 431 364 483 q 444 294 444 379 q 381 81 444 175 q 215 -14 317 -14 q 99 44 143 -14 q 56 200 56 103 q 75 313 56 260 q 104 335 82 335 q 125 326 117 335 q 133 304 133 317 q 131 290 133 299 q 118 201 118 258 q 144 92 118 140 q 218 44 169 44 q 335 122 289 44 q 382 294 382 200 q 360 385 382 344 q 293 425 339 425 q 240 401 257 425 q 222 347 222 378 q 288 292 222 292 q 310 283 301 292 q 319 261 319 274 q 282 231 319 231 q 192 264 224 231 q 160 347 160 297 q 197 442 160 401 q 296 483 233 483 m 394 651 l 394 642 q 396 632 394 640 q 397 622 397 624 q 388 601 397 610 q 367 592 379 592 q 339 610 344 592 q 333 664 333 628 q 332 676 333 667 q 331 686 331 685 q 340 708 331 699 q 361 717 349 717 q 394 651 397 717 m 244 651 l 244 642 q 246 632 244 640 q 247 622 247 624 q 238 601 247 610 q 217 592 229 592 q 189 610 194 592 q 183 664 183 628 q 182 676 183 667 q 181 686 181 685 q 190 708 181 699 q 211 717 199 717 q 244 651 247 717 z "},"÷":{"ha":600,"x_min":47,"x_max":553,"o":"m 553 251 l 47 251 l 47 310 l 553 310 l 553 251 m 240 488 q 258 530 240 513 q 300 547 276 547 q 342 530 324 547 q 360 488 360 513 q 342 447 360 465 q 301 428 324 428 q 258 446 276 428 q 240 488 240 464 m 240 74 q 258 116 240 99 q 300 133 276 133 q 342 115 324 133 q 360 74 360 97 q 342 33 360 51 q 301 14 324 14 q 258 32 276 14 q 240 74 240 50 z "},"ø":{"ha":468,"x_min":31,"x_max":444,"o":"m 218 264 l 244 311 q 322 432 303 415 q 360 449 339 449 q 408 428 388 449 q 444 294 444 393 q 381 81 444 175 q 215 -14 317 -14 q 139 8 174 -14 q 111 -33 128 -7 q 85 -72 94 -60 q 60 -85 76 -85 q 31 -58 31 -85 q 38 -37 31 -47 q 62 -2 39 -35 q 99 51 85 31 q 56 200 56 106 q 117 400 56 319 q 250 481 179 481 q 277 470 269 481 q 285 449 285 460 q 250 424 285 424 q 162 358 207 424 q 117 200 117 293 q 133 108 117 144 q 218 264 136 113 m 296 282 l 269 232 q 168 60 260 213 q 217 43 192 43 q 335 121 288 43 q 382 294 382 199 q 363 389 382 389 q 296 282 353 389 z "},"ù":{"ha":467,"x_min":50,"x_max":431,"o":"m 144 426 l 144 419 q 111 176 111 272 q 169 46 111 46 q 290 161 235 46 q 369 446 346 276 q 406 472 374 472 q 423 461 415 472 q 428 438 431 450 q 408 324 424 400 q 385 136 385 182 q 413 40 385 69 q 419 19 419 32 q 410 -2 419 7 q 389 -11 401 -11 q 345 29 365 -11 q 326 125 325 69 q 258 24 300 61 q 169 -14 215 -14 q 85 28 121 -14 q 50 176 50 69 q 81 424 50 267 q 113 457 88 457 q 135 448 126 457 q 144 426 144 439 m 313 571 q 292 543 313 543 q 267 551 278 543 q 129 660 139 653 q 101 703 101 681 q 126 726 101 726 l 143 722 q 162 706 150 717 q 176 694 174 696 q 301 594 194 679 q 313 571 313 586 z "},"ú":{"ha":467,"x_min":50,"x_max":431,"o":"m 144 426 l 144 419 q 111 176 111 272 q 169 46 111 46 q 290 161 235 46 q 369 446 346 276 q 406 472 374 472 q 423 461 415 472 q 428 438 431 450 q 408 324 424 400 q 385 136 385 182 q 413 40 385 69 q 419 19 419 32 q 410 -2 419 7 q 389 -11 401 -11 q 345 29 365 -11 q 326 125 325 69 q 258 24 300 61 q 169 -14 215 -14 q 85 28 121 -14 q 50 176 50 69 q 81 424 50 267 q 113 457 88 457 q 135 448 126 457 q 144 426 144 439 m 349 694 q 363 706 351 696 q 382 722 375 717 q 386 723 383 722 q 391 724 389 724 q 395 726 393 725 q 399 726 397 726 q 424 703 424 726 q 396 660 424 682 q 328 607 379 647 q 258 554 276 567 q 233 546 247 546 q 219 554 225 546 q 213 571 213 563 q 224 594 213 586 q 349 694 331 679 z "},"û":{"ha":467,"x_min":50,"x_max":431,"o":"m 144 426 l 144 419 q 111 176 111 272 q 169 46 111 46 q 290 161 235 46 q 369 446 346 276 q 406 472 374 472 q 423 461 415 472 q 428 438 431 450 q 408 324 424 400 q 385 136 385 182 q 413 40 385 69 q 419 19 419 32 q 410 -2 419 7 q 389 -11 401 -11 q 345 29 365 -11 q 326 125 325 69 q 258 24 300 61 q 169 -14 215 -14 q 85 28 121 -14 q 50 176 50 69 q 81 424 50 267 q 113 457 88 457 q 135 448 126 457 q 144 426 144 439 m 271 713 q 289 707 283 713 q 320 673 301 694 q 353 638 339 651 q 386 614 368 625 q 401 588 401 606 q 392 572 401 579 q 369 564 382 564 q 353 570 363 564 q 330 589 343 576 q 306 611 317 601 q 283 635 296 621 q 265 653 269 649 q 216 615 246 639 q 171 581 186 590 q 150 576 163 576 q 131 584 139 576 q 122 600 122 592 q 136 625 122 615 q 179 655 146 631 q 239 696 213 679 q 271 713 265 713 z "},"ü":{"ha":467,"x_min":50,"x_max":431,"o":"m 144 426 l 144 419 q 111 176 111 272 q 169 46 111 46 q 290 161 235 46 q 369 446 346 276 q 406 472 374 472 q 423 461 415 472 q 428 438 431 450 q 408 324 424 400 q 385 136 385 182 q 413 40 385 69 q 419 19 419 32 q 410 -2 419 7 q 389 -11 401 -11 q 345 29 365 -11 q 326 125 325 69 q 258 24 300 61 q 169 -14 215 -14 q 85 28 121 -14 q 50 176 50 69 q 81 424 50 267 q 113 457 88 457 q 135 448 126 457 q 144 426 144 439 m 376 651 l 376 642 q 378 632 376 640 q 379 622 379 624 q 370 601 379 610 q 349 592 361 592 q 321 610 326 592 q 315 664 315 628 q 314 676 315 667 q 313 686 313 685 q 322 708 313 699 q 343 717 331 717 q 376 651 379 717 m 226 651 l 226 642 q 228 632 226 640 q 229 622 229 624 q 220 601 229 610 q 199 592 211 592 q 171 610 176 592 q 165 664 165 628 q 164 676 165 667 q 163 686 163 685 q 172 708 163 699 q 193 717 181 717 q 226 651 229 717 z "},"ý":{"ha":460,"x_min":-118,"x_max":447,"o":"m 150 438 l 149 432 q 118 185 118 268 q 171 56 118 56 q 257 116 213 56 q 330 267 301 176 q 358 440 358 358 q 368 461 358 453 q 390 469 378 469 q 410 460 403 469 q 418 439 418 451 q 404 175 418 393 q 354 -117 392 10 q 435 -242 435 -162 q 426 -263 435 -254 q 404 -272 417 -272 q 383 -263 392 -272 q 375 -242 375 -254 q 332 -176 375 -196 q 197 -362 288 -292 q 11 -433 106 -433 q -81 -404 -44 -433 q -118 -315 -118 -375 q -15 -148 -118 -214 q 207 -82 88 -82 q 296 -94 258 -82 q 347 172 332 19 q 271 46 321 97 q 171 -6 221 -6 q 83 49 111 -6 q 56 185 56 103 q 86 438 56 276 q 119 469 99 468 q 141 460 132 469 q 150 438 150 451 m 19 -376 q 166 -313 93 -376 q 279 -147 239 -250 q 207 -139 250 -139 q 29 -190 114 -139 q -56 -311 -56 -240 q -33 -360 -56 -343 q 19 -376 -11 -376 m 372 694 q 387 706 375 696 q 406 722 399 717 q 410 723 407 722 q 415 724 413 724 q 419 726 417 725 q 422 726 421 726 q 447 703 447 726 q 419 660 447 682 q 351 607 403 647 q 282 554 300 567 q 257 546 271 546 q 242 554 249 546 q 236 571 236 563 q 247 594 236 586 q 372 694 354 679 z "},"þ":{"ha":565,"x_min":-22,"x_max":536,"o":"m 376 474 q 492 418 447 474 q 536 274 536 363 q 485 72 536 158 q 354 -14 433 -14 q 277 16 304 -14 q 250 75 250 46 q 259 97 250 88 q 282 106 268 106 q 311 83 304 106 q 356 46 324 46 q 440 114 404 46 q 475 274 475 182 q 449 374 475 333 q 376 414 424 414 q 206 301 285 414 q 224 -74 224 158 q 203 -329 224 -242 q 118 -417 183 -417 q 59 -393 83 -417 q 24 -331 35 -369 q 10 -258 14 -292 q 6 -186 6 -224 q 42 76 6 -57 q 143 314 79 208 q -10 676 101 600 q -22 703 -22 683 q -13 724 -22 715 q 7 733 -4 733 q 28 725 14 733 q 66 692 43 717 q 112 630 89 667 q 158 527 135 593 q 194 379 181 461 q 376 474 279 474 m 163 -74 q 156 218 163 125 q 92 24 115 135 q 69 -186 69 -86 q 118 -360 69 -362 q 163 -74 163 -356 z "},"ÿ":{"ha":460,"x_min":-118,"x_max":435,"o":"m 150 438 l 149 432 q 118 185 118 268 q 171 56 118 56 q 257 116 213 56 q 330 267 301 176 q 358 440 358 358 q 368 461 358 453 q 390 469 378 469 q 410 460 403 469 q 418 439 418 451 q 404 175 418 393 q 354 -117 392 10 q 435 -242 435 -162 q 426 -263 435 -254 q 404 -272 417 -272 q 383 -263 392 -272 q 375 -242 375 -254 q 332 -176 375 -196 q 197 -362 288 -292 q 11 -433 106 -433 q -81 -404 -44 -433 q -118 -315 -118 -375 q -15 -148 -118 -214 q 207 -82 88 -82 q 296 -94 258 -82 q 347 172 332 19 q 271 46 321 97 q 171 -6 221 -6 q 83 49 111 -6 q 56 185 56 103 q 86 438 56 276 q 119 469 99 468 q 141 460 132 469 q 150 438 150 451 m 19 -376 q 166 -313 93 -376 q 279 -147 239 -250 q 207 -139 250 -139 q 29 -190 114 -139 q -56 -311 -56 -240 q -33 -360 -56 -343 q 19 -376 -11 -376 m 367 651 l 367 642 q 368 632 367 640 q 369 622 369 624 q 360 601 369 610 q 339 592 351 592 q 311 610 317 592 q 306 664 306 628 q 304 676 306 667 q 303 686 303 685 q 312 708 303 699 q 333 717 321 717 q 367 651 369 717 m 217 651 l 217 642 q 218 632 217 640 q 219 622 219 624 q 210 601 219 610 q 189 592 201 592 q 161 610 167 592 q 156 664 156 628 q 154 676 156 667 q 153 686 153 685 q 162 708 153 699 q 183 717 171 717 q 217 651 219 717 z "},"ı":{"ha":222,"x_min":56,"x_max":179,"o":"m 156 461 q 179 431 179 454 q 178 424 179 426 q 118 11 133 243 q 88 -18 115 -18 q 65 -9 74 -18 q 56 14 56 0 q 62 93 56 28 q 84 262 68 158 q 118 439 100 365 q 131 458 119 451 q 156 461 143 464 z "},"Ł":{"ha":782,"x_min":0,"x_max":749,"o":"m 474 632 q 625 733 565 668 q 685 858 685 797 q 674 890 685 878 q 646 903 664 903 q 548 838 599 903 q 474 632 497 772 m 144 -1 q 376 300 314 -1 q 146 231 229 300 q 63 83 63 161 q 87 22 63 46 q 144 -1 111 -1 m 143 -58 q 42 -19 83 -58 q 0 83 0 19 q 24 176 0 129 q 92 266 47 224 q 213 335 136 308 q 385 360 290 361 q 390 418 388 375 q 257 401 324 401 q 222 429 222 401 q 231 448 222 439 q 257 457 240 457 q 399 476 304 457 q 403 550 399 483 q 321 543 358 543 q 161 592 222 543 q 100 729 100 640 q 108 751 100 742 q 131 760 117 760 q 151 751 143 760 q 160 729 160 742 q 209 631 160 660 q 321 603 258 603 q 410 613 369 603 q 494 865 426 764 q 656 965 561 965 q 723 936 697 965 q 749 860 749 907 q 668 689 749 768 q 467 567 588 610 q 461 494 464 531 q 632 522 578 522 q 653 514 644 522 q 663 493 663 506 q 653 475 663 483 q 633 467 644 467 q 456 435 564 465 q 446 356 456 431 q 667 248 600 333 q 735 64 735 163 q 719 -21 735 19 q 681 -85 703 -61 q 640 -122 658 -108 q 611 -136 621 -136 q 588 -127 597 -136 q 579 -106 579 -118 q 593 -81 579 -90 q 674 65 674 -28 q 620 212 674 144 q 436 297 567 279 q 143 -58 363 -58 z "},"ł":{"ha":306,"x_min":38,"x_max":371,"o":"m 147 -6 q 106 94 106 -6 q 144 379 106 199 q 67 344 89 344 q 47 353 56 344 q 38 376 38 363 q 45 397 38 388 q 64 406 53 406 q 158 450 82 406 l 174 513 q 224 767 224 719 q 218 819 224 810 q 215 831 215 828 q 235 860 215 853 q 247 863 240 863 q 269 855 261 863 q 280 831 276 847 q 284 801 283 814 q 285 767 285 789 q 242 531 285 708 l 233 493 q 339 546 317 546 q 368 521 365 546 q 344 483 371 488 q 217 419 319 479 q 168 94 168 203 q 174 39 168 56 q 178 25 178 32 q 169 3 178 11 q 147 -6 160 -6 z "},"Œ":{"ha":1519,"x_min":57,"x_max":1467,"o":"m 1264 -14 q 1024 49 1125 -14 q 993 -17 999 10 q 988 -90 988 -44 q 978 -110 988 -101 q 957 -119 969 -119 q 925 -71 925 -119 q 974 82 925 3 q 878 297 878 167 q 999 519 878 436 q 979 594 983 557 q 806 567 890 571 q 819 440 819 510 q 713 112 819 239 q 436 -15 607 -15 q 168 99 279 -15 q 57 414 57 214 q 85 583 57 501 q 161 715 114 665 q 183 725 171 725 q 205 716 196 725 q 214 694 214 707 q 206 672 214 683 q 143 561 167 632 q 119 414 119 490 q 213 140 119 239 q 436 42 306 42 q 668 153 579 42 q 757 440 757 264 q 744 564 757 515 q 467 588 588 560 q 296 667 346 617 q 257 753 257 706 q 309 841 257 803 q 449 879 361 879 q 658 813 567 879 q 790 622 749 747 q 978 654 881 626 q 1051 836 989 756 q 1194 917 1114 917 q 1258 894 1235 917 q 1282 833 1282 871 q 1215 715 1282 774 q 1039 615 1149 656 q 1051 549 1039 583 q 1211 582 1132 582 q 1338 549 1299 582 q 1376 471 1376 515 q 1340 399 1376 426 q 1246 372 1304 372 q 1029 468 1107 372 q 939 297 939 408 q 1013 131 939 196 q 1138 228 1061 193 q 1290 264 1215 264 q 1429 217 1385 264 q 1467 122 1467 176 q 1414 24 1467 61 q 1264 -14 1361 -14 m 1267 43 q 1369 64 1332 43 q 1406 124 1406 85 q 1375 183 1406 158 q 1290 207 1344 207 q 1163 178 1225 207 q 1058 96 1100 149 q 1267 43 1154 43 m 1082 496 q 1246 429 1140 429 q 1297 441 1278 429 q 1315 471 1315 453 q 1211 525 1315 525 q 1082 496 1133 525 m 1043 675 q 1171 751 1122 707 q 1219 833 1219 794 q 1212 849 1219 842 q 1194 857 1204 857 q 1101 804 1146 857 q 1043 675 1057 751 m 728 621 q 607 774 685 726 q 447 822 529 822 q 358 804 397 822 q 319 751 319 786 q 432 658 319 697 q 728 621 544 618 z "},"œ":{"ha":738,"x_min":56,"x_max":721,"o":"m 522 257 q 617 289 575 260 q 658 363 658 318 q 644 399 658 385 q 603 413 629 413 q 488 345 543 413 q 433 171 433 278 q 463 76 433 114 q 550 39 493 39 q 636 78 606 39 q 658 89 647 89 q 688 61 688 89 q 649 10 688 39 q 547 -18 611 -18 q 451 8 493 -18 q 390 86 408 35 q 221 -25 331 -25 q 101 33 146 -25 q 56 190 56 90 q 76 307 56 258 q 106 326 83 326 q 132 294 132 326 q 129 283 132 292 q 118 190 118 246 q 144 78 118 124 q 222 32 169 32 q 338 112 297 32 q 379 282 379 192 q 359 374 379 333 q 293 415 339 415 q 236 394 256 415 q 217 342 217 372 q 224 317 217 328 q 242 307 232 307 q 257 315 250 307 q 278 322 267 322 q 308 294 308 322 q 287 262 308 275 q 242 249 265 249 q 181 276 207 249 q 154 339 154 303 q 192 432 154 392 q 293 472 229 472 q 377 443 340 472 q 429 360 414 414 q 506 441 460 413 q 603 469 553 469 q 690 440 660 469 q 721 363 721 410 q 658 244 721 288 q 524 201 596 201 q 493 226 493 201 q 502 248 493 239 q 522 257 511 257 z "},"Š":{"ha":804,"x_min":46,"x_max":757,"o":"m 460 525 q 529 500 504 510 q 595 471 554 490 q 660 431 636 451 q 708 383 683 411 q 745 317 733 354 q 757 235 757 279 q 715 103 757 163 q 590 11 672 44 q 540 -101 576 -51 q 474 -172 504 -151 q 428 -192 443 -192 q 396 -164 396 -192 q 415 -135 396 -143 q 522 -11 489 -104 q 453 -22 483 -19 q 372 -26 415 -26 q 140 34 235 -26 q 46 192 46 94 q 113 324 46 269 q 278 378 181 378 q 503 293 413 378 q 597 79 594 208 q 669 144 643 103 q 696 235 696 186 q 633 376 696 326 q 440 469 571 425 q 346 504 378 490 q 272 544 314 518 q 210 606 229 571 q 192 690 192 642 q 265 837 192 775 q 469 899 339 899 q 560 886 513 899 q 708 938 622 938 q 731 929 722 938 q 740 907 740 921 q 707 882 740 882 q 621 857 661 882 q 647 836 640 843 q 699 717 699 786 q 672 648 699 678 q 606 618 646 618 q 525 653 558 618 q 492 744 492 689 q 518 838 492 797 q 468 843 488 843 q 310 797 367 843 q 254 690 254 751 q 302 599 254 632 q 460 525 350 565 m 638 717 q 575 821 638 782 q 553 744 553 788 q 569 695 553 715 q 606 675 585 675 q 638 717 638 675 m 278 319 q 158 283 208 319 q 107 190 107 246 q 183 76 107 122 q 372 29 260 29 q 538 51 469 29 q 474 243 544 167 q 278 319 404 319 m 568 1100 q 585 1103 572 1103 q 615 1081 615 1103 q 601 1054 615 1060 q 497 974 564 1031 q 472 963 483 963 q 404 994 461 963 q 324 1043 347 1025 q 310 1068 310 1051 q 319 1084 310 1076 q 340 1092 328 1092 q 358 1086 351 1092 q 468 1021 401 1056 q 568 1100 529 1074 z "},"š":{"ha":396,"x_min":29,"x_max":382,"o":"m 125 196 q 175 160 175 196 q 165 138 175 144 q 147 133 156 132 q 138 135 146 133 q 125 138 131 138 q 92 97 92 138 q 119 51 92 72 q 182 31 146 31 q 254 54 224 31 q 285 122 285 78 q 206 228 285 186 q 104 358 104 282 q 140 440 104 404 q 236 475 175 475 q 322 446 292 475 q 351 392 351 417 q 342 369 351 378 q 319 360 333 360 q 294 378 299 360 q 274 408 290 393 q 235 422 258 422 q 184 404 203 422 q 165 358 165 386 q 179 322 165 338 q 233 282 193 307 q 319 215 290 249 q 347 131 347 181 q 303 22 347 64 q 181 -19 258 -19 q 74 13 119 -19 q 29 96 29 46 q 57 167 29 139 q 125 196 85 196 m 233 539 q 215 544 221 539 q 184 578 203 557 q 151 613 165 600 q 118 638 136 626 q 103 664 103 646 q 113 680 103 672 q 135 688 122 688 q 151 681 142 688 q 174 663 161 675 q 198 640 188 650 q 222 617 208 631 q 239 599 235 603 q 288 637 258 613 q 333 671 318 661 q 354 675 342 675 q 374 667 365 675 q 382 651 382 660 q 368 626 382 636 q 325 597 358 621 q 265 556 292 572 q 233 539 239 539 z "},"Ÿ":{"ha":954,"x_min":0,"x_max":961,"o":"m 525 156 q 718 283 611 156 q 713 447 713 433 q 715 575 713 524 q 726 683 717 626 q 751 772 735 739 q 796 827 767 806 q 865 849 825 849 q 925 825 897 849 q 961 711 961 794 q 909 495 961 619 q 779 271 857 371 q 782 210 782 218 q 751 -12 782 86 q 669 -174 719 -111 q 552 -278 619 -236 q 417 -337 485 -319 q 276 -354 349 -354 q 82 -293 164 -354 q 0 -118 0 -232 q 44 1 0 -49 q 149 51 88 51 q 232 19 197 51 q 267 -65 267 -14 q 226 -146 267 -146 q 204 -137 214 -146 q 194 -115 194 -128 q 197 -104 194 -110 q 204 -65 204 -81 q 188 -22 204 -37 q 149 -7 171 -7 q 88 -39 114 -7 q 61 -118 61 -71 q 99 -224 61 -182 q 183 -282 138 -267 q 276 -297 229 -297 q 440 -269 364 -297 q 580 -182 517 -240 q 681 -24 643 -124 q 721 206 719 75 q 515 97 613 97 q 443 113 474 97 q 394 158 413 128 q 364 218 375 188 q 348 294 353 249 q 342 370 343 340 q 340 446 340 400 l 340 533 q 338 615 340 565 q 247 600 294 600 q 107 648 163 600 q 51 771 51 696 q 92 869 51 829 q 194 910 132 910 q 309 864 256 910 q 385 713 363 818 q 453 892 453 778 q 451 915 453 894 q 449 940 449 936 q 456 962 449 953 q 476 971 464 971 q 497 965 489 971 q 508 946 506 960 q 512 922 511 932 q 513 892 513 911 q 483 755 513 821 q 396 646 454 689 q 401 414 401 600 q 431 213 401 271 q 525 156 461 156 m 774 447 q 775 410 774 440 q 776 361 776 379 q 865 546 831 447 q 900 713 900 644 q 858 792 900 792 q 792 707 811 792 q 774 447 774 622 m 329 674 q 194 853 299 853 q 137 828 160 853 q 114 771 114 804 q 152 688 114 719 q 249 657 190 657 q 329 674 294 657 m 760 1068 l 760 1058 q 761 1049 760 1057 q 763 1039 763 1040 q 753 1017 763 1026 q 732 1008 744 1008 q 704 1026 710 1008 q 699 1081 699 1044 q 697 1092 699 1083 q 696 1103 696 1101 q 705 1124 696 1115 q 726 1133 714 1133 q 760 1068 763 1133 m 610 1068 l 610 1058 q 611 1049 610 1057 q 613 1039 613 1040 q 603 1017 613 1026 q 582 1008 594 1008 q 554 1026 560 1008 q 549 1081 549 1044 q 547 1092 549 1083 q 546 1103 546 1101 q 555 1124 546 1115 q 576 1133 564 1133 q 610 1068 613 1133 z "},"Ž":{"ha":1097,"x_min":0,"x_max":1057,"o":"m 515 71 l 588 25 q 849 -71 738 -71 q 955 -36 914 -71 q 996 56 996 -1 q 973 124 996 94 q 908 153 950 153 q 887 162 896 153 q 878 183 878 171 q 887 205 878 196 q 908 214 896 214 q 1017 168 976 214 q 1057 56 1057 122 q 998 -76 1057 -22 q 850 -129 939 -129 q 740 -113 794 -129 q 649 -78 686 -97 q 536 -14 611 -58 q 324 107 357 90 q 97 -14 217 -14 q 28 10 57 -14 q 0 74 0 33 q 47 170 0 131 q 179 210 93 210 q 308 181 235 210 q 493 447 378 260 l 519 490 q 646 679 583 596 q 453 782 582 707 q 366 691 422 724 q 249 658 310 658 q 133 693 178 658 q 89 789 89 728 q 131 881 89 847 q 235 915 172 915 q 421 863 322 915 q 432 931 432 899 q 396 1036 432 993 q 389 1056 389 1047 q 398 1078 389 1069 q 418 1088 407 1088 q 468 1038 444 1088 q 492 929 492 988 q 478 835 492 878 q 539 801 499 824 q 612 761 579 778 q 685 729 644 744 q 782 826 738 793 q 879 858 826 858 q 965 775 965 858 q 916 682 965 718 q 792 646 867 646 q 707 660 753 646 q 567 456 647 585 l 538 408 q 368 154 418 215 q 515 71 435 121 m 875 801 q 744 710 819 801 q 788 704 767 704 q 904 772 904 704 q 897 792 904 783 q 875 801 889 801 m 249 717 q 338 744 297 717 q 400 808 379 771 q 236 858 300 858 q 176 838 200 858 q 151 789 151 818 q 178 736 151 756 q 249 717 204 717 m 63 76 q 74 53 63 64 q 106 43 86 43 q 265 132 179 43 q 175 151 211 151 q 91 129 119 151 q 63 76 63 107 m 778 1100 q 794 1103 782 1103 q 825 1081 825 1103 q 811 1054 825 1060 q 707 974 774 1031 q 682 963 693 963 q 614 994 671 963 q 533 1043 557 1025 q 519 1068 519 1051 q 528 1084 519 1076 q 550 1092 538 1092 q 568 1086 561 1092 q 678 1021 611 1056 q 778 1100 739 1074 z "},"ž":{"ha":467,"x_min":14,"x_max":449,"o":"m 340 461 l 344 465 q 364 472 351 472 q 399 442 399 472 q 392 419 399 431 q 244 235 321 342 q 104 68 171 132 q 274 63 175 82 q 343 53 319 53 q 380 62 372 53 q 388 94 388 71 q 414 125 388 122 q 441 117 433 129 q 449 88 449 104 q 419 20 449 44 q 343 -4 390 -4 q 264 6 329 -4 q 154 19 194 19 q 56 4 103 19 q 44 3 54 3 q 23 12 32 3 q 14 32 14 21 q 21 54 14 44 q 196 269 108 144 q 301 399 232 321 q 223 406 286 399 q 150 413 160 413 q 115 397 122 413 q 88 379 107 379 q 65 388 75 379 q 56 410 56 397 q 63 432 56 419 q 94 458 71 444 q 150 471 117 471 q 224 463 160 471 q 299 454 288 454 q 340 461 329 454 m 256 539 q 238 544 243 539 q 206 578 225 557 q 173 613 188 600 q 140 638 158 626 q 125 664 125 646 q 135 680 125 672 q 157 688 144 688 q 174 681 164 688 q 197 663 183 675 q 220 640 210 650 q 244 617 231 631 q 261 599 257 603 q 310 637 281 613 q 356 671 340 661 q 376 675 364 675 q 396 667 388 675 q 404 651 404 660 q 390 626 404 636 q 347 597 381 621 q 288 556 314 572 q 256 539 261 539 z "},"ƒ":{"ha":542,"x_min":-111,"x_max":557,"o":"m 557 696 q 525 619 557 653 q 450 586 493 586 q 399 598 421 586 q 378 631 378 610 q 386 651 378 643 q 408 660 394 660 q 429 653 419 660 q 450 644 442 644 q 481 659 468 644 q 494 696 494 674 q 472 751 494 725 q 410 776 449 776 q 249 436 229 776 q 357 442 324 442 q 463 429 421 442 q 486 403 486 425 q 476 383 486 390 q 454 375 467 375 q 446 376 449 375 q 358 385 413 385 q 325 384 343 385 q 285 382 307 383 q 251 381 264 381 q 261 175 261 215 q 204 -113 261 -11 q 32 -215 147 -215 q -69 -178 -28 -215 q -111 -89 -111 -142 q -85 -16 -111 -47 q -24 15 -58 15 q 1 6 -8 15 q 10 -15 10 -4 q 1 -36 10 -26 q -24 -46 -8 -46 q -40 -58 -32 -46 q -49 -89 -49 -71 q -24 -137 -49 -117 q 33 -158 0 -158 q 133 -112 94 -158 q 199 182 199 -39 q 189 376 199 231 q 118 374 139 374 q 108 374 115 374 q 71 374 82 374 q 49 382 60 375 q 39 404 39 389 q 69 433 39 433 q 93 432 72 433 q 118 431 114 431 q 188 433 138 431 q 235 733 171 632 q 413 833 299 833 q 517 796 476 833 q 557 696 557 758 z "},"ˆ":{"ha":403,"x_min":63,"x_max":342,"o":"m 211 713 q 229 707 224 713 q 260 673 242 694 q 294 638 279 651 q 326 614 308 625 q 342 588 342 606 q 332 572 342 579 q 310 564 322 564 q 293 570 303 564 q 270 589 283 576 q 247 611 257 601 q 223 635 236 621 q 206 653 210 649 q 156 615 186 639 q 111 581 126 590 q 90 576 103 576 q 71 584 79 576 q 63 600 63 592 q 76 625 63 615 q 119 655 86 631 q 179 696 153 679 q 211 713 206 713 z "},"ˇ":{"ha":401,"x_min":85,"x_max":364,"o":"m 215 539 q 197 544 203 539 q 166 578 185 557 q 133 613 147 600 q 100 638 118 626 q 85 664 85 646 q 94 680 85 672 q 117 688 104 688 q 133 681 124 688 q 156 663 143 675 q 180 640 169 650 q 203 617 190 631 q 221 599 217 603 q 270 637 240 613 q 315 671 300 661 q 336 675 324 675 q 356 667 347 675 q 364 651 364 660 q 350 626 364 636 q 307 597 340 621 q 247 556 274 572 q 215 539 221 539 z "},"ˉ":{"ha":329,"x_min":33,"x_max":294,"o":"m 256 660 q 282 656 269 664 q 294 639 294 649 q 271 610 294 613 q 167 597 221 597 q 117 600 160 597 q 64 603 74 603 q 42 610 51 603 q 33 626 33 617 q 42 647 33 638 q 64 656 51 656 q 114 653 71 656 q 167 650 157 650 q 256 660 208 650 z "},"˘":{"ha":406,"x_min":65,"x_max":340,"o":"m 192 621 q 288 689 265 621 q 314 711 294 711 q 331 706 324 711 q 340 690 340 699 q 336 668 340 678 q 192 569 294 569 q 99 609 133 569 q 67 688 65 649 q 92 718 67 718 q 119 694 117 718 q 143 643 122 665 q 192 621 164 621 z "},"˙":{"ha":169,"x_min":50,"x_max":117,"o":"m 51 665 l 50 688 q 59 709 50 700 q 81 718 68 718 q 113 653 115 718 l 113 643 q 115 633 113 642 q 117 624 117 625 q 108 602 117 611 q 85 593 99 593 q 57 611 63 593 q 51 665 51 629 z "},"˚":{"ha":371,"x_min":74,"x_max":299,"o":"m 186 554 q 105 583 136 554 q 74 651 74 611 q 92 715 74 686 q 132 743 111 743 q 164 719 164 743 q 144 694 164 707 q 128 651 128 685 q 146 619 128 631 q 185 607 164 607 q 228 624 213 607 q 243 667 243 642 q 234 690 243 676 q 213 704 225 704 q 190 713 200 704 q 181 735 181 722 q 211 756 181 756 q 272 728 246 757 q 299 667 299 700 q 265 588 299 622 q 186 554 231 554 z "},"˛":{"ha":279,"x_min":44,"x_max":210,"o":"m 149 -225 q 75 -198 106 -225 q 44 -128 44 -171 q 100 -12 44 -65 q 185 46 156 40 l 194 4 q 99 -119 99 -61 q 142 -175 99 -175 q 163 -169 156 -175 q 183 -164 174 -164 q 210 -190 210 -164 q 190 -216 210 -207 q 149 -225 171 -225 z "},"˜":{"ha":453,"x_min":79,"x_max":374,"o":"m 297 578 q 219 606 249 578 q 169 632 192 632 q 129 583 144 632 q 107 569 125 569 q 87 578 94 569 q 79 600 79 588 q 106 653 79 622 q 168 683 133 683 q 243 653 208 683 q 290 629 268 629 q 322 664 310 629 q 347 682 329 682 q 364 676 357 682 q 374 650 374 671 q 351 605 374 632 q 297 578 329 578 z "},"˝":{"ha":494,"x_min":68,"x_max":442,"o":"m 231 719 q 256 690 256 719 q 249 672 256 679 q 111 543 210 622 q 90 536 103 536 q 76 546 83 536 q 68 564 68 556 q 79 588 68 582 q 207 708 171 663 q 231 719 218 719 m 350 668 q 400 700 375 682 q 418 707 410 707 q 442 678 442 707 q 429 653 442 664 q 374 618 417 643 q 283 556 299 568 q 263 549 275 549 q 247 558 256 549 q 239 576 239 567 q 251 601 239 589 q 350 668 296 636 z "},"Ω":{"ha":1028,"x_min":78,"x_max":949,"o":"m 299 46 l 299 49 q 154 208 211 110 q 97 431 97 306 q 219 724 97 608 q 517 840 342 840 q 812 719 694 840 q 929 435 929 599 q 869 203 929 306 q 726 49 810 101 l 726 46 l 949 46 l 949 0 l 632 0 l 632 33 q 801 185 732 83 q 871 429 871 288 q 774 681 871 567 q 517 794 678 794 q 256 686 357 794 q 156 426 156 578 q 226 187 156 292 q 394 33 296 82 l 394 0 l 78 0 l 78 46 l 299 46 z "},"μ":{"ha":531,"x_min":4,"x_max":475,"o":"m 193 447 l 193 443 q 163 182 163 247 q 219 54 163 54 q 330 156 278 54 q 414 433 382 258 q 449 458 419 465 q 475 429 475 454 q 472 410 475 428 q 469 389 469 392 q 435 129 435 206 q 447 44 435 71 q 451 31 451 36 q 442 8 451 17 q 419 -1 433 -1 q 374 118 378 -1 q 219 -7 313 -7 q 129 57 156 -7 q 63 -232 92 -168 q 35 -250 54 -250 q 13 -241 22 -250 q 4 -219 4 -232 q 5 -212 4 -217 q 6 -207 6 -208 q 100 256 49 -112 q 104 289 103 278 q 133 460 126 446 q 161 479 143 479 q 184 469 175 479 q 193 447 193 460 z "},"π":{"ha":767,"x_min":14,"x_max":739,"o":"m 732 564 l 608 564 l 608 183 q 629 0 608 65 l 572 0 q 550 172 550 33 l 550 564 l 256 564 q 215 249 247 426 q 146 0 183 72 l 88 0 q 158 253 126 85 q 197 564 189 422 q 26 544 78 564 l 14 582 q 196 611 78 611 l 739 611 l 732 564 z "},"‐":{"ha":426,"x_min":47,"x_max":378,"o":"m 238 300 l 138 301 q 83 299 94 301 q 58 302 69 293 q 47 325 47 311 q 67 356 47 350 q 138 361 86 361 l 238 360 q 338 367 314 360 q 347 369 343 369 q 369 360 360 369 q 378 339 378 350 q 238 300 378 294 z "},"–":{"ha":625,"x_min":31,"x_max":592,"o":"m 590 354 q 592 344 592 351 q 572 315 592 325 q 401 300 539 300 q 294 301 382 300 q 181 303 206 303 q 67 299 97 303 q 60 297 65 297 q 40 306 49 297 q 31 328 31 315 q 54 358 31 354 q 181 365 88 365 q 289 364 201 365 q 400 363 376 363 q 550 374 519 363 q 560 375 554 375 q 590 354 581 375 z "},"—":{"ha":1111,"x_min":33,"x_max":1081,"o":"m 1046 379 l 1050 379 q 1072 370 1063 379 q 1081 349 1081 361 q 1054 318 1081 322 q 656 300 904 300 l 224 300 q 68 297 90 300 l 64 297 q 42 306 51 297 q 33 328 33 315 q 60 358 33 354 q 225 364 93 364 q 435 363 254 364 q 649 361 617 361 q 1046 379 803 361 z "},"‘":{"ha":111,"x_min":6,"x_max":107,"o":"m 54 836 q 76 846 61 846 q 99 837 90 846 q 107 815 107 828 q 99 794 107 801 q 67 689 79 774 q 35 663 63 663 q 15 672 24 663 q 6 694 6 682 q 21 769 6 721 q 54 836 36 817 z "},"’":{"ha":111,"x_min":25,"x_max":108,"o":"m 56 841 q 61 845 56 841 q 78 850 65 850 q 99 841 90 850 q 108 819 108 832 q 57 661 108 661 q 34 670 43 661 q 25 693 25 679 q 31 710 25 703 q 47 819 47 733 q 56 841 47 832 z "},"‚":{"ha":111,"x_min":25,"x_max":108,"o":"m 56 74 q 61 79 56 74 q 78 83 65 83 q 99 74 90 83 q 108 53 108 65 q 57 -106 108 -106 q 34 -97 43 -106 q 25 -74 25 -87 q 31 -57 25 -64 q 47 53 47 -35 q 56 74 47 65 z "},"“":{"ha":229,"x_min":6,"x_max":225,"o":"m 172 836 q 196 846 179 846 q 217 837 208 846 q 225 815 225 828 q 218 794 225 801 q 185 689 200 776 q 154 663 181 663 q 133 672 142 663 q 124 694 124 682 q 139 769 124 721 q 172 836 154 817 m 56 836 q 78 846 64 846 q 100 837 90 846 q 110 815 110 828 q 100 794 110 804 q 68 689 81 774 q 58 670 67 678 q 38 663 49 663 q 15 672 24 663 q 6 694 6 682 q 22 769 6 722 q 56 836 38 817 z "},"”":{"ha":229,"x_min":25,"x_max":229,"o":"m 199 851 q 220 842 211 851 q 229 821 229 833 q 176 664 229 664 q 156 673 165 664 q 146 694 146 682 q 151 711 146 700 q 167 821 167 738 q 176 842 167 833 q 199 851 185 851 m 29 707 q 46 817 46 733 q 55 838 46 829 q 75 847 64 847 q 98 838 89 847 q 107 817 107 829 q 56 658 107 658 q 33 667 42 658 q 25 690 25 676 q 29 707 25 701 z "},"„":{"ha":229,"x_min":25,"x_max":229,"o":"m 199 85 q 220 76 211 85 q 229 54 229 67 q 176 -103 229 -103 q 156 -94 165 -103 q 146 -72 146 -85 q 151 -56 146 -67 q 167 54 167 -29 q 176 76 167 67 q 199 85 185 85 m 29 -60 q 46 50 46 -33 q 55 72 46 63 q 75 81 64 81 q 98 72 89 81 q 107 50 107 63 q 56 -108 107 -108 q 33 -99 42 -108 q 25 -76 25 -90 q 29 -60 25 -65 z "},"†":{"ha":472,"x_min":61,"x_max":475,"o":"m 189 -172 q 147 -72 147 -172 q 158 53 147 -22 q 188 246 168 128 q 215 415 208 364 l 222 454 l 179 454 q 97 451 108 454 q 72 455 83 446 q 61 478 61 464 q 84 508 61 503 q 179 514 107 514 l 232 514 q 265 739 265 721 q 260 792 265 782 q 257 803 257 800 q 276 832 257 825 q 289 835 282 835 q 310 827 303 835 q 322 803 318 819 q 326 774 325 786 q 326 739 326 761 q 294 513 326 707 q 435 519 411 513 q 444 522 440 522 q 466 513 457 522 q 475 492 475 503 q 431 458 475 465 q 293 454 388 451 l 285 454 l 281 433 q 251 251 271 368 q 221 56 232 133 q 210 -72 210 -22 q 215 -128 210 -111 q 219 -142 219 -133 q 210 -164 219 -156 q 189 -172 201 -172 z "},"‡":{"ha":472,"x_min":26,"x_max":475,"o":"m 189 -172 q 147 -72 147 -172 q 182 204 147 8 l 117 204 q 63 201 74 204 q 38 205 49 196 q 26 228 26 214 q 46 258 26 253 q 117 264 65 264 l 192 264 q 204 340 196 289 q 217 415 213 390 l 225 468 l 179 468 q 97 465 108 468 q 72 469 83 460 q 61 492 61 478 q 84 522 61 517 q 179 528 107 528 l 235 528 q 265 739 265 722 q 260 792 265 782 q 257 803 257 800 q 276 832 257 825 q 289 835 282 835 q 310 827 303 835 q 322 803 318 819 q 326 774 325 786 q 326 739 326 761 q 297 526 326 710 q 435 533 411 526 q 444 536 440 536 q 466 526 457 536 q 475 506 475 517 q 431 472 475 479 q 296 468 388 465 l 288 468 l 281 433 q 253 263 269 354 l 293 263 q 393 269 369 263 q 403 272 399 272 q 424 263 415 272 q 433 242 433 253 q 293 204 433 199 l 243 204 q 210 -72 210 -4 q 215 -128 210 -111 q 219 -142 219 -133 q 210 -164 219 -156 q 189 -172 201 -172 z "},"•":{"ha":289,"x_min":40,"x_max":253,"o":"m 110 356 q 60 376 81 356 q 40 424 40 397 q 69 492 40 464 q 139 519 99 519 q 223 488 193 519 q 253 400 253 457 q 214 314 253 350 q 119 278 175 278 q 85 306 85 278 q 119 332 85 332 q 172 352 150 332 q 194 401 194 372 q 180 446 194 431 q 143 461 165 461 q 112 451 125 461 q 99 425 99 440 q 101 419 99 422 q 106 416 103 417 q 110 417 108 415 l 113 421 q 140 438 124 438 q 163 428 154 438 q 171 406 171 418 q 154 371 171 386 q 110 356 138 356 z "},"…":{"ha":1111,"x_min":147,"x_max":963,"o":"m 150 15 l 156 63 q 196 88 161 92 q 218 76 210 86 q 225 53 226 65 l 218 6 q 183 -19 214 -19 q 157 -10 167 -19 q 150 15 147 0 m 518 15 l 524 63 q 564 88 529 92 q 586 76 578 86 q 593 53 594 65 l 586 6 q 551 -19 582 -19 q 525 -10 535 -19 q 518 15 515 0 m 886 15 l 892 63 q 932 88 897 92 q 954 76 946 86 q 961 53 963 65 l 954 6 q 919 -19 950 -19 q 893 -10 903 -19 q 886 15 883 0 z "},"‰":{"ha":1531,"x_min":61,"x_max":1482,"o":"m 221 350 q 104 403 147 350 q 61 550 61 456 q 88 681 61 618 q 115 699 97 699 q 137 690 128 699 q 146 668 146 681 q 143 656 146 658 q 121 550 121 603 q 147 449 121 492 q 225 407 174 407 q 336 473 292 407 q 388 618 381 539 q 319 614 354 614 q 210 644 256 614 q 165 722 165 675 q 201 800 165 767 q 301 833 238 833 q 397 792 357 833 q 449 685 438 750 q 758 879 599 721 q 781 888 767 888 q 802 878 793 888 q 811 857 811 869 q 807 842 811 850 q 569 370 681 631 q 432 -53 458 110 q 401 -79 426 -79 q 374 -47 374 -79 q 463 257 374 15 q 690 743 551 499 q 449 628 568 657 q 381 436 444 522 q 221 350 317 350 m 386 675 q 358 748 381 718 q 301 778 336 778 q 247 763 267 778 q 226 725 226 749 q 254 688 226 706 q 319 671 282 671 q 386 675 353 671 m 740 335 q 778 430 740 388 q 875 472 815 472 q 983 419 943 472 q 1024 282 1024 367 q 960 77 1024 165 q 793 -11 896 -11 q 678 44 722 -11 q 635 189 635 100 q 660 314 632 256 q 688 333 668 333 q 709 324 700 333 q 718 301 718 315 q 715 290 718 299 q 694 189 694 240 q 722 88 694 131 q 799 46 749 46 q 917 117 871 46 q 963 282 963 189 q 942 374 963 333 q 875 414 921 414 q 821 389 842 414 q 800 335 800 364 q 850 274 800 288 q 872 243 872 267 q 863 223 872 232 q 842 214 854 214 q 813 220 833 214 q 767 256 793 226 q 740 335 740 286 m 1199 335 q 1236 430 1199 388 q 1333 472 1274 472 q 1442 419 1401 472 q 1482 282 1482 367 q 1418 77 1482 165 q 1251 -11 1354 -11 q 1137 44 1181 -11 q 1093 189 1093 100 q 1118 314 1090 256 q 1146 333 1126 333 q 1167 324 1158 333 q 1176 301 1176 315 q 1174 290 1176 299 q 1153 189 1153 240 q 1180 88 1153 131 q 1257 46 1207 46 q 1375 117 1329 46 q 1421 282 1421 189 q 1400 374 1421 333 q 1333 414 1379 414 q 1279 389 1300 414 q 1258 335 1258 364 q 1308 274 1258 288 q 1331 243 1331 267 q 1322 223 1331 232 q 1300 214 1313 214 q 1272 220 1292 214 q 1225 256 1251 226 q 1199 335 1199 286 z "},"‹":{"ha":283,"x_min":35,"x_max":232,"o":"m 175 243 q 210 217 200 225 q 226 201 219 210 q 232 182 232 192 q 224 160 232 169 q 203 151 215 151 q 181 161 190 151 q 139 192 160 178 q 44 267 71 240 q 35 289 35 274 q 47 314 35 301 q 115 385 64 325 q 163 440 151 429 q 185 450 174 450 q 208 441 199 450 q 217 419 217 432 q 208 399 217 408 q 182 369 204 394 q 138 319 160 343 q 110 289 117 296 q 175 243 135 269 z "},"›":{"ha":283,"x_min":51,"x_max":247,"o":"m 172 308 l 146 331 q 76 397 113 357 q 67 419 67 407 q 76 440 67 431 q 99 449 85 449 q 121 439 115 449 q 180 383 129 429 q 239 326 231 336 q 247 306 247 313 q 233 281 247 290 q 119 176 179 243 q 82 150 97 150 q 60 159 69 150 q 51 181 51 168 q 74 218 51 192 q 172 308 121 269 z "},"⁄":{"ha":507,"x_min":0,"x_max":507,"o":"m 0 8 l 0 15 q 72 199 18 88 q 170 389 125 310 q 303 618 215 468 q 456 875 425 826 q 483 892 467 892 q 500 883 493 892 q 507 863 507 874 q 497 838 507 853 q 349 589 457 768 q 51 0 86 149 q 38 -19 49 -12 q 18 -22 28 -25 q 0 8 0 -14 z "},"€":{"ha":865,"x_min":14,"x_max":825,"o":"m 342 300 l 233 293 q 158 290 181 290 q 267 108 185 176 q 474 40 350 40 q 747 165 661 40 q 774 179 757 179 q 794 170 785 179 q 803 147 803 161 q 792 121 803 139 q 753 78 781 103 q 690 33 726 54 q 597 -4 654 11 q 474 -19 539 -19 q 224 65 322 -19 q 96 290 125 150 q 32 297 50 290 q 14 322 14 303 q 24 344 14 335 q 46 353 33 353 l 51 353 q 86 347 61 350 q 85 399 85 364 l 85 422 q 14 454 14 426 q 24 476 14 467 q 46 485 33 485 l 51 485 q 67 482 60 482 q 78 480 71 481 q 90 479 86 479 q 224 758 113 646 q 518 875 335 869 q 599 975 544 939 q 719 1011 654 1011 q 799 974 799 1011 q 768 946 799 946 q 744 949 765 946 q 719 951 724 951 q 589 876 631 951 q 766 832 707 876 q 825 707 825 788 q 781 608 825 647 q 667 569 736 569 q 540 626 581 569 q 499 778 499 683 q 501 814 499 792 q 265 706 356 800 q 153 478 175 611 q 303 483 208 478 l 413 490 q 608 496 542 499 q 631 487 622 496 q 639 465 639 478 q 638 454 639 458 q 633 447 636 450 q 626 443 629 444 q 617 441 624 442 q 608 440 611 440 q 596 440 604 440 q 583 440 588 440 q 383 432 531 440 l 261 425 q 146 422 189 422 l 146 399 q 149 346 146 363 q 275 351 189 346 l 371 358 q 553 364 472 367 q 575 355 567 364 q 583 333 583 346 q 582 322 583 326 q 577 315 581 318 q 571 311 574 313 q 562 309 568 310 q 552 308 556 308 q 540 308 549 308 q 528 308 532 308 q 342 300 489 308 m 667 629 q 738 655 715 629 q 761 707 761 681 q 565 819 761 819 q 561 778 561 800 q 589 669 561 710 q 667 629 617 629 z "},"ℓ":{"ha":642,"x_min":43,"x_max":607,"o":"m 572 168 l 607 143 q 364 -11 521 -11 q 207 55 261 -11 q 149 215 153 121 l 149 229 q 106 197 135 219 q 65 165 76 174 l 43 203 q 94 243 58 215 q 149 286 131 271 l 149 631 q 206 845 149 781 q 339 910 263 910 q 457 856 417 910 q 497 721 497 801 q 422 499 497 610 q 203 264 346 389 l 203 238 q 253 85 203 136 q 374 33 304 33 q 492 74 439 33 q 572 168 544 115 m 203 640 l 203 322 q 387 529 324 438 q 450 714 450 621 q 335 865 450 865 q 244 811 285 865 q 203 640 203 757 z "},"™":{"ha":861,"x_min":-1,"x_max":850,"o":"m 193 878 q 378 874 247 878 q 436 782 440 872 q 494 854 460 829 q 554 879 528 879 q 610 853 586 879 q 636 776 633 828 q 692 851 657 821 q 764 882 726 882 q 822 852 793 882 q 850 751 850 822 q 817 526 850 664 q 786 507 811 507 q 758 526 758 507 q 763 541 758 531 q 767 556 767 551 q 774 586 768 561 q 783 633 779 611 q 791 687 788 654 q 794 749 794 719 q 784 801 794 779 q 757 824 774 824 q 678 764 717 824 q 624 600 640 704 q 616 563 621 585 q 610 539 611 542 q 586 518 606 518 q 566 526 574 518 q 558 544 558 535 q 571 615 558 556 q 586 744 586 692 q 546 824 586 824 q 464 748 508 824 q 393 532 419 672 q 367 510 389 510 q 340 539 340 510 q 343 556 340 544 q 351 587 346 568 q 358 618 356 606 q 383 764 383 731 q 369 822 383 813 q 207 824 229 825 q 164 642 164 719 q 213 564 164 569 q 230 556 222 564 q 238 538 238 549 q 210 508 238 511 q 201 510 203 510 q 133 551 156 517 q 110 638 110 586 q 150 822 110 681 q 83 815 101 819 q 63 803 74 813 q 51 786 53 793 q 26 764 46 764 q -1 793 -1 764 q 25 844 -1 822 q 193 878 64 878 z "},"Ω":{"ha":1028,"x_min":78,"x_max":949,"o":"m 299 46 l 299 49 q 154 208 211 110 q 97 431 97 306 q 219 724 97 608 q 517 840 342 840 q 812 719 694 840 q 929 435 929 599 q 869 203 929 306 q 726 49 810 101 l 726 46 l 949 46 l 949 0 l 632 0 l 632 33 q 801 185 732 83 q 871 429 871 288 q 774 681 871 567 q 517 794 678 794 q 256 686 357 794 q 156 426 156 578 q 226 187 156 292 q 394 33 296 82 l 394 0 l 78 0 l 78 46 l 299 46 z "},"℮":{"ha":1035,"x_min":40,"x_max":993,"o":"m 993 399 l 221 399 q 215 394 215 399 l 215 160 q 225 133 215 147 q 517 7 347 7 q 825 149 701 7 l 893 149 q 728 28 828 72 q 517 -17 629 -17 q 179 108 318 -17 q 40 411 40 233 q 180 715 40 589 q 517 840 319 840 q 853 715 714 840 q 993 411 993 589 l 993 399 m 818 429 l 818 664 q 807 692 818 681 q 517 814 682 814 q 226 689 349 814 q 215 660 215 675 l 215 429 q 221 422 215 422 l 814 422 q 818 429 818 422 z "},"∂":{"ha":732,"x_min":61,"x_max":658,"o":"m 139 814 l 113 850 q 329 918 200 918 q 561 799 464 918 q 658 469 658 679 q 638 294 658 379 q 576 140 617 210 q 468 28 536 71 q 315 -14 400 -14 q 127 70 193 -14 q 61 260 61 154 q 146 471 61 389 q 347 553 231 553 q 506 503 440 553 q 599 407 572 453 l 600 407 q 601 475 601 426 q 519 765 601 657 q 326 874 438 874 q 139 814 219 874 m 318 31 l 319 31 q 499 122 426 31 q 589 344 571 214 q 502 454 567 401 q 353 507 438 507 q 188 436 258 507 q 118 264 118 365 q 174 98 118 165 q 318 31 229 31 z "},"∆":{"ha":899,"x_min":44,"x_max":853,"o":"m 44 0 l 44 50 l 417 853 l 483 853 l 853 50 l 853 0 l 44 0 m 103 46 l 789 46 l 556 558 q 504 672 547 579 q 450 796 461 765 l 444 796 q 422 741 439 779 q 383 655 404 703 q 351 585 361 607 l 103 46 z "},"∏":{"ha":954,"x_min":35,"x_max":919,"o":"m 919 775 l 756 775 l 756 -114 l 699 -114 l 699 775 l 254 775 l 254 -114 l 199 -114 l 199 775 l 35 775 l 35 825 l 919 825 l 919 775 z "},"∑":{"ha":763,"x_min":29,"x_max":726,"o":"m 726 -114 l 29 -114 l 29 -76 l 424 353 l 47 788 l 47 825 l 710 825 l 710 775 l 135 775 l 135 771 l 493 358 l 113 -57 l 113 -61 l 726 -61 l 726 -114 z "},"−":{"ha":600,"x_min":47,"x_max":553,"o":"m 553 251 l 47 251 l 47 310 l 553 310 l 553 251 z "},"∕":{"ha":507,"x_min":0,"x_max":507,"o":"m 0 8 l 0 15 q 72 199 18 88 q 170 389 125 310 q 303 618 215 468 q 456 875 425 826 q 483 892 467 892 q 500 883 493 892 q 507 863 507 874 q 497 838 507 853 q 349 589 457 768 q 51 0 86 149 q 38 -19 49 -12 q 18 -22 28 -25 q 0 8 0 -14 z "},"∙":{"ha":181,"x_min":61,"x_max":140,"o":"m 64 321 l 69 368 q 110 393 75 397 q 132 381 124 392 q 139 358 140 371 l 132 311 q 97 286 128 286 q 71 296 81 286 q 64 321 61 306 z "},"√":{"ha":757,"x_min":47,"x_max":757,"o":"m 757 975 l 453 -182 l 393 -182 l 167 382 l 64 344 l 47 383 l 203 443 l 401 -56 q 421 -124 411 -85 l 422 -124 q 431 -90 425 -112 q 439 -56 436 -67 l 708 975 l 757 975 z "},"∞":{"ha":1031,"x_min":71,"x_max":960,"o":"m 960 343 l 960 342 q 901 199 960 256 q 764 143 843 143 q 654 181 704 143 q 518 307 604 218 q 389 185 432 214 q 263 143 328 143 q 128 201 185 143 q 71 338 71 258 q 128 479 71 422 q 272 536 186 536 q 342 523 308 536 q 410 481 375 510 q 465 432 444 453 q 522 371 485 411 q 581 434 563 415 q 635 483 600 453 q 703 524 669 513 q 775 536 736 536 q 910 483 860 536 q 960 343 960 429 m 269 188 l 271 188 q 322 197 297 188 q 373 225 347 206 q 415 258 399 244 q 458 301 431 272 q 493 338 485 329 q 379 453 415 426 q 260 496 321 496 q 158 449 196 496 q 119 336 119 401 q 161 231 119 274 q 269 188 203 188 m 769 496 l 768 496 q 699 477 735 496 q 641 438 663 458 q 588 385 619 418 q 546 343 556 351 q 631 257 603 283 q 697 209 660 231 q 771 188 735 188 q 874 233 835 188 q 913 339 913 279 q 872 454 913 413 q 769 496 832 496 z "},"∫":{"ha":444,"x_min":8,"x_max":429,"o":"m 429 982 l 415 942 q 363 958 396 958 q 293 933 318 958 q 242 714 242 881 q 251 408 242 622 q 260 104 260 194 q 199 -135 260 -60 q 90 -182 160 -182 q 8 -160 40 -182 l 22 -119 q 89 -137 58 -137 q 153 -111 126 -137 q 207 107 207 -49 q 197 415 207 199 q 188 719 188 631 q 256 961 188 903 q 360 1001 297 1001 q 429 982 400 1001 z "},"≈":{"ha":785,"x_min":72,"x_max":711,"o":"m 685 513 l 711 488 q 543 372 646 372 q 525 373 533 372 q 506 376 517 374 q 490 379 496 378 q 472 385 483 381 q 456 391 461 389 q 438 399 451 393 q 419 408 424 406 q 399 419 415 411 q 376 431 382 428 q 242 475 293 475 q 100 375 168 475 l 72 399 q 253 517 136 517 q 308 508 282 517 q 371 479 333 500 q 410 458 408 458 q 436 444 417 454 q 464 431 456 435 q 488 422 472 428 q 517 415 503 417 q 547 413 531 413 q 622 436 590 413 q 685 513 653 460 m 685 297 l 711 272 q 543 158 646 158 q 486 167 515 158 q 440 184 457 176 q 376 217 424 192 q 243 261 288 261 q 183 245 211 261 q 139 211 156 229 q 100 161 122 193 l 72 185 q 251 301 136 301 q 300 294 275 301 q 339 281 325 288 q 378 261 353 275 q 410 244 403 247 q 428 235 414 242 q 448 225 443 228 q 465 217 453 222 q 484 209 476 211 q 503 204 492 207 q 525 200 514 201 q 549 199 536 199 q 622 222 592 199 q 685 297 653 244 z "},"≠":{"ha":785,"x_min":71,"x_max":713,"o":"m 544 625 l 476 482 l 713 482 l 713 440 l 457 440 l 356 233 l 713 233 l 713 192 l 336 192 l 257 25 l 222 44 l 293 192 l 71 192 l 71 233 l 313 233 l 413 440 l 71 440 l 71 482 l 432 482 l 510 643 l 544 625 z "},"≤":{"ha":785,"x_min":71,"x_max":711,"o":"m 708 90 l 81 385 l 81 429 l 708 724 l 708 672 l 132 410 l 132 407 l 708 142 l 708 90 m 711 -6 l 71 -6 l 71 35 l 711 35 l 711 -6 z "},"≥":{"ha":785,"x_min":72,"x_max":711,"o":"m 81 724 l 708 429 l 708 385 l 81 90 l 81 142 l 656 406 l 656 408 l 81 672 l 81 724 m 711 -6 l 72 -6 l 72 35 l 711 35 l 711 -6 z "},"◊":{"ha":760,"x_min":78,"x_max":681,"o":"m 681 413 l 401 -62 l 356 -62 l 78 413 l 356 888 l 403 888 l 681 413 m 625 411 l 404 786 q 378 842 388 817 l 376 842 q 349 786 368 821 l 132 414 l 353 36 q 378 -17 376 -8 l 382 -17 q 407 36 388 1 l 625 411 z "},"ﬁ":{"ha":625,"x_min":-43,"x_max":596,"o":"m 69 -279 q 128 -238 106 -279 q 171 -106 150 -197 q 221 319 201 31 q 72 88 124 238 q 19 -179 19 -61 q 34 -251 19 -222 q 69 -279 49 -279 m 504 -18 q 481 -9 490 -18 q 472 14 472 0 q 478 83 472 26 q 497 231 483 139 q 526 394 510 322 q 457 401 501 401 q 369 390 421 401 q 288 358 318 378 q 229 -128 264 11 q 165 -287 201 -235 q 65 -339 129 -339 q -12 -297 19 -339 q -43 -179 -43 -254 q -17 13 -43 -92 q 72 228 8 118 q 225 394 136 339 q 247 615 236 547 q 286 747 258 682 q 360 843 313 806 q 465 881 408 881 q 552 849 521 881 q 583 774 583 818 q 562 707 583 736 q 521 678 540 678 q 501 684 511 678 q 492 700 492 690 q 508 736 492 725 q 521 774 521 746 q 503 808 521 792 q 458 824 486 824 q 343 726 389 824 q 289 421 306 644 q 369 449 317 438 q 469 461 421 461 q 568 453 525 461 q 596 429 596 449 q 593 410 596 421 q 535 11 550 253 q 504 -18 532 -18 z "},"ﬂ":{"ha":625,"x_min":-43,"x_max":661,"o":"m 69 -279 q 128 -238 106 -279 q 171 -106 150 -197 q 222 335 201 28 q 70 99 121 247 q 19 -172 19 -49 q 34 -250 19 -221 q 69 -279 49 -279 m 65 -339 q -12 -295 19 -339 q -43 -172 -43 -251 q -18 24 -43 -81 q 71 239 7 128 q 226 408 135 350 q 247 618 236 556 q 289 744 258 681 q 378 843 318 806 q 506 881 439 881 q 617 851 574 881 q 661 760 661 821 q 660 724 661 742 q 653 680 658 706 q 644 641 647 654 q 631 588 642 628 q 617 531 621 547 q 543 94 543 229 q 549 39 543 56 q 553 25 553 33 q 544 3 553 11 q 522 -6 535 -6 q 481 94 481 -6 q 549 513 481 240 q 597 756 597 711 q 569 806 597 789 q 499 824 542 824 q 413 798 454 824 q 346 724 371 772 q 290 436 306 646 q 404 457 343 457 q 461 424 461 457 q 453 404 461 411 q 433 397 444 397 q 415 397 426 397 l 404 399 q 289 374 338 399 q 229 -128 264 10 q 165 -287 201 -235 q 65 -339 129 -339 z "}}}
